<svg width="422" height="842" viewBox="0 0 422 842" fill="none" xmlns="http://www.w3.org/2000/svg">
<path fill-rule="evenodd" clip-rule="evenodd" d="M97.6132 315.963C106.058 334.72 116.498 351.305 128.862 367.868C127.995 328.732 127.248 289.385 125.97 249.889C118.141 265.151 109.798 278.962 98.6616 294.113C89.9308 303.436 94.0017 307.305 97.6132 315.963ZM69.9291 773.834C68.9506 772.45 69.5298 770.691 70.8832 769.794C68.0013 763.586 76.6855 758.793 80.9599 754.12C90.6754 743.589 105.981 728.494 107.343 715.197C111.977 685.03 114.625 654.757 122.044 624.943C126.452 606.007 138.69 590.812 144.159 572.211C153.668 523.051 141.383 473.752 143.507 424.102C116.706 421.475 120.177 424.814 123.048 402.541C121.254 401.297 119.507 399.98 117.874 398.652C113.595 400.933 108.544 406.525 103.832 406.229C102.341 405.881 101.266 404.013 100.243 402.409C92.6767 390.488 85.6433 378.836 78.7575 366.823C40.6791 306.833 49.2919 293.249 84.8106 235.744C99.7689 213.535 118.142 181.217 146.639 178.974C150.079 178.977 153.706 178.794 156.669 176.632C156.69 173.19 158.451 172.079 162.917 171.45C165.432 171.192 167.405 169.727 169.86 170.325C171.612 164.482 171.26 159.783 173.161 154.002C179.672 144.136 200.793 149.058 208.527 152.152C218.138 155.492 208.995 170.436 215.268 177.261C216.636 178.023 218.059 178.389 219.881 178.388C227.652 176.66 231.439 185.982 235.113 192.132C245.628 193.427 253.508 194.987 258.345 198.774C262.781 202.12 266.043 207.502 270.378 218.633C279.458 238.484 285.412 258.199 288.041 277.217C290.33 290.105 296.688 301.258 301.792 312.964C314.322 343.442 319.731 363.629 316.732 390.455C313.551 389.885 310.343 388.73 306.995 388.298L305.641 391.498C305.555 391.434 305.52 391.362 305.514 391.342C301.585 418.192 312.364 472.867 277.197 465.673C274.095 495.221 264.198 521.489 252.29 546.197C247.475 555.492 242.632 565.317 242.712 576.232L244.525 576.272C244.833 576.279 244.932 576.342 244.933 576.342C245.278 576.427 244.878 579.116 244.491 580.637C238.802 600.718 233.882 620.797 229.465 641.12C228.533 643.859 228.13 651.231 225.972 652.482C226.066 653.488 223.091 655.461 222.861 655.397C223.379 659.275 221.501 661.01 221.564 664.947C221.554 664.854 224.203 664.992 224.087 664.912C225.669 664.912 227.461 668.267 227.483 670.541C227.627 673.28 225.311 675.855 224.501 678.542C223.245 684.439 223.441 690.417 222.882 696.352C228.155 697.547 226.972 703.147 222.348 703.423C222.348 703.423 221.506 711.248 221.672 715.148C224.844 715.528 226.253 718.353 227.301 720.544C231.203 720.588 234.854 722.362 238.477 724.21C246.923 728.345 255.216 732.676 262.739 737.063C269.376 741.472 283.843 746.319 276.332 755.592C276.446 755.832 274.72 760.135 272.392 759.743C260.906 760.858 217.23 751.381 207.126 749.279C203.696 748.464 188.689 746.511 194.921 741.45C192.599 734.969 192.497 722.672 199.502 721.171C200.183 715.081 205.313 712.944 210.43 715.197C210.397 710.817 210.671 707.025 210.716 702.643C208.254 702.318 205.527 701.405 204.815 699.539C204.14 698.509 204.402 695.001 206.937 694.976C207.012 694.97 208.844 695.058 208.918 695.057C208.624 687.967 209.243 681.95 208.181 674.847C207.611 672.49 205.747 672.105 204.527 670.892C203.382 667.364 206.903 664.515 209.916 663.921C210.684 660.335 209.064 656.536 209.916 653.016C207.952 652.951 206.418 652.851 205.142 651.659C204.588 651.116 203.681 651.281 202.976 651.233C202.293 643.828 197.669 637.504 196.644 630.381C195.199 621.949 197.922 613.151 198.897 604.558C199.687 597.411 198.428 590.098 197.799 583.079C171.908 624.364 136.945 664.15 130.686 714.406C130.019 718.275 129.615 722.602 133.186 726.391L133.339 726.435C134.247 728.256 134.817 731.727 135.468 733.605C138.84 736.267 135.745 741.377 133.309 743.681C132.571 744.522 131.941 745.498 131.266 746.379C118.543 761.562 117.103 778.717 92.6792 777.559C86.6748 777.184 72.6245 777.375 69.9291 773.834Z" fill="white"/>
<path fill-rule="evenodd" clip-rule="evenodd" d="M172.156 156.692C174.217 155.285 171.283 167.418 171.277 168.576L171.225 168.831C170.711 171.301 169.807 174.173 167.724 175.753C168.685 183.608 169.88 191.44 171.351 199.212C184.474 200.922 197.684 203.392 211.031 202.146C217.996 202.206 222.624 197.487 225.472 191.607L225.558 191.429L224.971 189.326C216.045 183.852 209.279 172.757 213.304 162.288C213.565 161.607 214.653 161.881 214.415 162.592C212.726 167.318 213.435 172.646 215.834 176.986C217.333 177.784 218.929 177.728 220.535 177.68C228.282 176.547 232.731 185.335 236.065 190.815L238.984 191.247C250.15 192.905 260.921 194.867 266.435 206.301L266.938 207.372C274.74 223.968 282.029 241.04 286.278 258.922C288.394 268.335 289.16 278.034 292.264 287.217C298.708 304.263 307.79 320.281 312.715 337.928C315.77 344.164 324.354 392.433 315.886 392.593C312.836 391.68 309.728 390.943 306.588 390.416C307.072 390.784 307.249 391.411 307.157 392.053C306.061 399.736 305.978 407.519 305.984 415.265C306.432 433.866 306.371 473.173 278.653 468.173C276.38 490.917 268.621 512.919 259.996 533.973C254.872 547.544 244.933 559.924 244.434 574.832C247.868 574.883 246.536 579.248 246.114 581.353C244.959 586.506 243.456 591.58 241.936 596.633C236.578 614.762 233.378 633.498 228.79 651.835C228.542 652.718 228.125 653.319 227.592 653.723C227.501 655.631 224.617 656.726 222.986 656.092C223.215 658.4 223.152 660.737 223.184 663.053L223.191 663.486L223.69 663.481C225.865 662.922 228.064 666.441 228.677 668.248C230.742 673.303 225.955 677.01 225.598 681.825C225.274 686.397 224.843 690.929 224.646 695.513C230.615 697.842 227.975 705.642 222.125 705.561C222.399 708.407 222.436 711.27 222.556 714.121C225.099 714.787 227.006 716.93 228.258 719.167C233.398 719.518 238.091 722.555 242.671 724.706C249.754 728.201 256.721 731.931 263.555 735.892C270.21 740.319 285.018 745.345 278.545 755.584C280.174 756.988 279.036 759.738 277.551 760.885L277.5 760.924C276.024 762.078 274.073 762.078 272.259 761.891C251.192 762.418 228.994 755.878 208.045 751.608L206.463 751.326C201.877 750.506 197.183 749.587 193.109 747.351C191.385 745.949 190.963 742.526 192.727 741.144C190.919 734.606 192.55 723.126 199.705 720.597C200.554 715.748 204.478 712.271 209.469 713.751C209.494 710.645 209.746 707.577 209.802 704.471C207.328 704.005 205.045 703.046 203.852 700.697C202.54 698.356 203.961 694.433 206.943 694.559C207.044 689.723 206.771 684.968 206.731 680.14L206.727 679.849C206.711 678.285 206.774 676.56 206.111 675.122C205.429 673.641 203.616 673.495 202.811 672.091C201.048 668.309 204.578 663.867 208.219 662.849C208.676 660.317 208.439 657.636 208.898 655.079C206.959 654.966 205.307 654.516 203.903 653.416C202.933 653.266 201.216 653.698 201.106 652.306C200.711 646.616 197.84 641.55 196.032 636.243C192.297 625.921 195.686 615.142 196.984 604.702C197.596 599.378 196.951 594.031 196.406 588.694C171.764 627.267 140.155 664.565 132.852 711.1C132.447 716.338 130.307 720.647 134.067 725.166C135.328 725.531 136.405 731.453 136.892 732.944C140.742 736.506 137.387 742.862 134.036 745.616C132.432 748.385 130.286 750.81 128.278 753.29L127.631 754.374C123.377 761.483 118.838 768.612 113.07 774.569C103.376 781.756 87.1082 779.711 75.6899 778.417L74.6749 778.252C72.2966 777.855 69.6638 777.275 68.2951 775.159C67.1063 773.325 67.2654 770.946 68.7434 769.569C67.2767 765.345 70.6186 761.197 73.7611 758.603C85.9435 747.81 96.4444 735.115 104.622 721.045C107.756 698.293 110.975 675.543 114.461 652.843C117.274 634.058 121.559 615.252 130.606 598.398L132.824 594.184C136.575 587.045 140.17 579.923 142.307 572.054C147.289 553.513 146.096 534.097 145.406 515.117C144.518 485.486 142.405 455.849 142.681 426.196C137.1 425.611 121.971 425.971 119.588 420.24C118.808 414.778 120.638 409.221 121.051 403.766C119.873 402.94 118.723 402.075 117.604 401.182C115.529 402.73 113.387 404.191 111.187 405.549C105.924 409.336 101.854 409.941 98.5973 403.717C89.1733 388.827 80.081 373.723 71.5016 358.33C63.5443 343.565 53.6815 328.824 51.6618 311.826C48.7258 281.228 84.64 232.257 102.621 207.396C113.671 194.034 127.966 179.803 146.224 178.756L146.779 178.729C149.228 178.606 152.786 178.874 154.827 177.219C155.213 171.695 160.883 171.723 165.099 170.81C165.972 170.144 167.297 169.987 168.413 170.04C169.926 165.697 170.27 160.895 172.156 156.692ZM120.096 724.985C115.471 722.58 109.953 722.385 105.088 724.291C99.055 735.466 91.328 745.666 82.5539 754.829C79.3482 759.3 67.3151 765.195 73.3174 771.229L74.1301 771.378C83.3442 773.055 92.6992 774.375 102.088 773.619C108.223 771.922 113.174 767.377 117.076 762.469C121.919 756.191 125.921 749.284 130.352 742.71C134.33 735.971 136.427 735.88 133.308 727.876C133.302 728.032 133.264 728.19 133.185 728.352C132.083 730.573 128.702 730.368 126.794 729.531C124.306 728.439 122.498 726.251 120.096 724.985ZM76.3996 773.302L76.5393 773.366V773.366L76.6811 773.43L76.8885 773.433L76.3996 773.302V773.302ZM251.762 733.069C244.901 730.002 232.331 721.063 225.322 722.421C220.147 724.004 215.375 726.835 209.858 727.245L209.621 727.253C205.683 727.421 198.684 728.735 197.205 724.105C195.246 727.846 194.601 732.48 194.631 736.713C194.549 740.321 196.202 743.175 200.038 743.468L203.59 744.361C226.096 750.008 248.812 755.4 272.005 757.071C278.093 753.27 278.243 748.274 271.788 744.803C265.269 740.638 258.56 736.757 251.762 733.069ZM119.207 645.909C115.176 671.121 112.47 696.476 108.567 721.7C122.191 718.296 126.192 730.507 131.264 727.101C127.716 722.433 128.141 718.917 129.192 713.485C131.274 695.189 138.09 677.784 146.541 661.539C147.504 659.684 148.492 657.84 149.494 656C138.627 656.991 126.93 653.893 119.207 645.909ZM203.137 717.803C202.204 719.251 201.834 720.996 201.536 722.669C201.383 723.534 201.467 724.808 201.16 725.778C207.006 725.955 212.885 724.593 218.153 722.086L217.896 722.069C213.602 721.805 204.73 722.408 203.137 717.803ZM199.502 721.534C198.934 721.938 198.442 722.406 198.017 722.925C197.873 723.731 198.29 724.609 198.967 725.11C199.102 723.93 199.267 722.706 199.502 721.534ZM210.922 704.653C210.94 708.303 211.162 711.899 211.122 715.544C211.116 716.808 211.491 718.405 210.717 719.479L211.947 719.609C215.031 719.93 218.176 720.195 221.258 719.845C221.357 715.099 221.36 710.33 221.672 705.589C217.872 705.564 214.663 704.925 210.922 704.653ZM222.696 719.185C222.691 719.33 222.688 719.484 222.694 719.627C223.137 719.545 223.577 719.446 224.013 719.33C223.655 719.294 223.29 719.355 222.937 719.233C222.856 719.221 222.773 719.211 222.696 719.185ZM209.423 718.617C209.034 719.058 208.275 719.137 207.795 718.845C207.697 718.862 207.6 718.875 207.498 718.88C207.469 718.883 207.438 718.88 207.41 718.88L207.744 718.964C208.44 719.136 208.979 719.247 209.693 719.349C209.567 719.121 209.483 718.875 209.423 718.617ZM225.417 718.599C225.327 718.765 225.204 718.903 225.053 719.018L225.397 718.903C225.455 718.883 225.512 718.863 225.568 718.842C225.522 718.757 225.471 718.678 225.417 718.599ZM205.266 717.596C205.33 717.746 205.475 717.977 205.64 718.1C205.494 717.949 205.365 717.78 205.266 717.596ZM222.599 715.247C222.602 715.334 222.604 715.421 222.61 715.511C222.657 715.461 222.712 715.416 222.779 715.385C222.717 715.34 222.656 715.293 222.599 715.247ZM206.926 695.36C204.06 696.289 205.064 699.884 207.233 701.063C209.592 702.618 213.155 702.375 215.863 702.608C218.635 702.667 221.843 703.793 224.339 702.175C225.64 701.299 225.652 699.307 224.275 698.54C224.249 698.602 224.221 698.66 224.193 698.719C224.211 698.86 224.198 699.019 224.136 699.205C222.564 702.032 212.699 700.399 210.197 698.998L210.004 698.914C208.309 698.194 206.721 697.86 206.926 695.36ZM210.43 653.772C211.05 656.552 210.847 659.446 211.239 662.235C211.485 663.044 211.17 663.581 210.665 663.857C213.921 664.83 217.202 665.313 220.593 664.556C220.226 661.296 221.153 657.663 221.623 654.386L210.43 653.772V653.772ZM222.86 654.455C222.915 654.871 222.908 655.325 222.955 655.757C222.962 655.747 222.969 655.738 222.977 655.729L222.991 655.716C223.401 655.361 223.772 654.905 224.164 654.511C223.734 654.502 223.294 654.478 222.86 654.455ZM205.886 570.089C203.811 575.032 201.47 579.839 198.844 584.521L198.951 585.627C199.646 592.876 200.168 600.133 198.991 607.368L198.881 607.989C197.067 618.127 194.805 628.683 199.206 638.495L199.406 639.009C200.978 643.038 202.633 647.035 203.058 651.362C210.21 651.873 217.385 652.587 224.546 652.838C226.398 653.153 227.299 652.095 227.464 650.356C233.051 626.95 237.952 603.382 244.006 580.092L244.069 579.973C244.726 578.718 245.218 577.274 243.998 576.835C241.698 576.434 239.442 578.893 237.257 579.521C225.53 584.144 216.648 571.865 205.886 570.089ZM205.609 579.622C212.73 590.157 208.855 606.16 208.037 618.672C207.432 623.279 208.143 627.999 207.66 632.582C207.594 632.94 207.028 633.007 206.871 632.684C205.193 628.463 205.882 623.608 206.029 619.166C207.076 606.028 210.043 592.465 205.609 579.622ZM226.427 435.34C226.4 435.168 226.159 435.23 226.144 435.378C226.067 466.978 224.082 498.485 220.941 529.927C220.897 530.608 222.013 530.769 222.144 530.089C224.403 518.412 225.315 506.513 226.08 494.654L226.166 493.312C227.161 477.383 227.476 461.412 227.049 445.457C226.956 442.105 226.942 438.659 226.427 435.34ZM291.004 389.316C290.728 389.643 290.426 389.84 290.118 389.94C290.12 397.324 288.63 404.59 284.545 410.986C282.751 413.357 281.787 416.095 280.927 418.912C281.174 419.677 280.864 420.556 280.287 420.997C276.511 432.471 276.122 444.759 277.515 456.678C281.762 450.451 283.446 443.016 284.634 435.688C284.698 435.32 285.307 435.325 285.374 435.688C286.783 443.526 284.395 451.35 281.312 458.51C279.601 459.957 279.969 463.235 279.769 465.285C311.07 469.84 300.184 409.745 304.194 391.237C304.268 390.725 304.701 390.357 305.192 390.199C300.497 389.485 295.741 389.431 291.004 389.316ZM164.364 172.13L163.822 172.267C158.11 173.693 156.597 173.726 156.233 180.44C154.812 189.913 149.564 198.186 147.205 207.348C146.261 210.584 147.257 216.547 151.733 215.676C153.183 215.231 154.313 217.183 153.216 218.221C149.976 221.284 146.831 224.444 143.667 227.586C156.37 270.466 172.873 312.233 192.973 352.192C193.77 353.776 191.38 355.172 190.589 353.584C170.603 313.496 153.984 271.742 141.085 228.852L140.695 227.552C140.126 225.974 147.409 220.315 148.736 218.467C135.454 212.071 153.951 189.671 154.492 178.905C150.645 180.409 146.381 179.894 142.366 180.55C134.65 181.899 127.879 186.363 121.86 191.17C97.4127 212.762 81.7866 242.655 66.1576 270.829C55.5131 289.218 50.3829 311.687 61.0636 331.243C73.4561 356.314 87.8368 380.482 103.034 403.943C104.706 406.111 107.271 403.619 109.03 402.704C119.14 396.63 127.906 388.364 134.648 378.698C116.97 356.535 100.525 332.318 91.3607 305.351C90.6286 298.79 99.8241 291.191 103.18 285.489C110.59 275.266 117.512 264.696 124.123 253.946C123.915 252.883 124.354 251.718 125.48 251.748L126.135 250.657C131.183 242.265 131.745 241.94 126.733 252.206C129.276 290.076 128.853 328.677 129.953 366.788C132.927 370.723 135.988 374.594 139.12 378.404C149.283 371.402 161.237 366.833 173.514 365.419L174.144 365.356C179.34 364.825 188.128 363.717 188.819 370.56C187.892 378.936 170.788 374.181 165.258 378.933C174.278 382.566 184.617 383.594 192.899 389.075C195.556 390.621 200.763 395.566 195.675 397.454C193.455 397.646 191.163 396.778 188.944 396.592C191.44 397.431 193.737 398.859 195.199 401.093C196.252 402.625 197.02 405.802 194.505 406.46C188.77 406.616 183.06 404.757 177.412 403.82L177.914 404.024C182.033 405.713 188.43 408.736 182.886 413.205C177.334 416.076 170.613 411.189 165.084 409.882C150.183 406.423 139.175 415.915 123.902 405.634C123.474 410.162 122.103 414.821 122.524 419.355C126.198 422.789 137.63 422.675 142.745 423.129L142.739 422.954C142.665 420.171 143.406 420.455 143.546 423.162C156.494 423.559 169.471 423.318 182.392 422.389C187.937 421.98 193.472 421.428 198.986 420.711L200.02 420.575C202.853 420.197 205.814 419.946 208.596 419.27C211.442 418.889 211.445 415.851 211.144 413.621C207.237 331.161 173.742 253.625 164.364 172.13ZM217.01 178.941C217.668 179.918 218.398 180.852 219.187 181.735C220.401 179.856 223.357 178.792 224.198 181.597C225.145 184.479 226.498 187.44 226.538 190.495C245.898 253.648 246.39 320.802 246.013 386.309C246.592 396.701 243.372 406.87 243.67 417.206C254.274 418.731 265.033 418.861 275.681 417.733C275.996 416.906 276.352 416.09 276.755 415.292C292.693 395.85 284.244 371.48 276.567 350.419C271.926 350.611 267.257 350.322 262.612 350.375C264.046 354.821 264.418 359.523 265.181 364.119C265.701 367.395 266.365 370.645 267.128 373.872L267.332 374.732C267.62 375.922 268.001 377.206 267.584 378.386C267.174 379.55 265.76 380.021 264.822 379.115C263.133 377.187 263.314 374.314 262.768 371.92L262.667 371.168C261.737 364.307 260.512 357.178 262.212 350.375C260.542 350.012 255.981 351.334 255.741 349.088C255.812 345.382 253.124 337.345 256.116 334.902C257.896 333.543 260.957 333.973 263.045 333.889C265.458 333.791 267.868 333.702 270.278 333.717C250.907 286.878 256.295 272.455 258.26 225.838L258.319 224.416C258.314 224.111 258.808 224.034 258.862 224.344C261.824 243.438 257.876 262.773 259.746 281.925C263.068 318.323 286.114 349.569 289.969 385.79C298.28 384.828 306.685 386.007 314.741 388.098C314.91 386.627 315.04 385.15 315.133 383.671C316.661 356.639 307.182 330.378 296.119 306.134C289.49 293.257 285.392 279.525 283.678 265.16C280.347 246.453 272.875 228.828 265.426 211.453C260.719 198.455 250.539 195.392 237.916 193.882C242.174 200.944 246.405 208.021 250.629 215.103C251.573 217.243 248.684 218.776 247.422 220.092C262.928 228.558 253.874 254.681 254.195 269.327C253.044 282.777 252.61 296.314 250.581 309.672C250.432 310.596 249.013 310.327 249 309.457C249.187 289.439 251.573 269.498 252.619 249.514L252.747 248.057C253.563 238.595 254.36 224.944 242.991 222.346C241.457 222.098 241.339 219.815 242.571 219.13C244.21 218.216 245.647 217.098 246.933 215.773C240.446 205.346 234.788 194.369 227.962 184.173L227.677 183.81C223.121 178.038 223.438 180.125 217.01 178.941ZM185.676 370.052C184.415 366.356 172.251 368.766 168.998 369.165C157.015 371.432 144.955 376.738 135.829 384.91C135.265 385.414 134.6 385.406 134.074 385.132C129.983 390.357 125.267 395.092 120.088 399.255C121.036 400 122.01 400.726 123.011 401.417C123.49 401.468 123.923 401.717 124.118 402.164C138.362 412.488 148.843 404.434 163.639 406.297C169.164 407.409 174.252 410.926 179.945 411.073C184.123 410.123 180.444 408.375 178.493 407.698C172.896 405.025 167.161 402.653 161.444 400.251C159.669 399.506 160.279 396.822 162.261 397.29C165.732 398.109 169.213 398.889 172.696 399.652C179.395 401.023 186.254 402.777 193.025 403.439C191.521 399.256 175.55 394.731 170.911 393.072C169.156 392.238 164.156 392.402 164.728 389.679C165.189 387.152 170.513 390.046 172.284 390.255C179.527 392.089 186.918 393.209 194.297 394.325C186.37 386.371 174.085 385.68 163.962 381.957L163.627 381.88C161.853 381.459 159.483 380.68 160.836 378.699L160.881 378.634C166.087 370.957 186.543 374.849 185.676 370.052ZM170.698 327.331C174.388 324.291 176.369 330.528 176.133 333.42C176.308 335.82 176.495 338.223 176.651 340.625C176.422 342.506 178.423 349.352 175.747 349.413C164.05 348.824 152.373 348.965 140.672 348.267C140.657 350.626 140.541 352.985 140.662 355.352C140.599 358.306 141.625 361.263 141.026 364.181C140.66 365.527 138.833 365.706 138.12 364.56C135.982 359.529 137.453 353.04 138.966 347.95C130.128 345.703 134.387 338.582 134.389 332.361C134.376 332.197 134.54 332.113 134.673 332.144C136.864 335.205 134.011 339.291 135.262 342.621C136.556 346.26 142.046 345.926 145.149 345.986L145.242 345.988C154.903 346.155 164.557 346.553 174.218 346.74C173.805 343.485 173.693 340.152 173.444 336.897C173.131 334.562 173.583 331.789 172.394 329.695C167.022 331.439 161.429 332.137 155.782 332.026C149.051 332.208 141.972 332.816 135.393 332.01C144.828 330.554 155.251 330.765 164.865 328.917C166.776 328.422 168.726 327.42 170.698 327.331ZM124.259 257.075C118.438 268.184 111.748 278.761 104.62 289.056C103.093 291.256 101.526 293.426 99.9325 295.58L99.6377 295.957C96.4548 300.002 93.1489 303.358 96.1566 308.726C104.039 327.876 114.588 345.862 126.812 362.554L126.603 352.964C125.91 320.998 125.254 289.031 124.259 257.075ZM270.494 334.28C255.884 337.348 255.605 331.604 258.045 347.848C263.907 347.887 269.765 347.755 275.628 347.85C273.952 343.314 272.216 338.798 270.494 334.28ZM226.626 195.369C223.33 201.036 217.856 204.675 211.263 204.728C199.695 205.392 187.973 204.63 176.7 201.888C175.043 201.471 173.063 201.113 171.536 200.207C180.228 247.342 194.299 293.262 204.196 340.126L204.521 341.671L204.79 341.618C211.527 340.422 218.856 340.919 225.784 340.494C231.341 340.414 236.955 341.009 242.474 340.182L242.302 334.357C240.91 287.732 238.968 240.549 226.626 195.369ZM221.793 181.896C221.181 181.887 220.245 182.252 219.621 182.208C220.892 183.567 222.298 184.792 223.778 185.859C223.101 184.59 222.572 183.068 221.793 181.896Z" fill="black"/>
<path fill-rule="evenodd" clip-rule="evenodd" d="M241.704 118.507C241.602 112.776 241.489 106.93 240.636 101.254C239.802 95.7049 237.508 90.6893 233.565 86.6599C225.191 78.101 213.052 76.0104 201.753 74.0946L182.434 70.819C176.54 69.8199 170.253 68.2229 164.298 69.6398C161.364 70.338 158.872 71.9601 156.594 73.8792C154.399 75.729 152.039 77.7154 150.552 80.204C149.062 82.6963 148.549 85.6096 148.065 88.4283C147.518 91.6062 147.094 94.8089 146.792 98.0193C146.188 104.451 146.106 110.932 146.544 117.377C146.756 120.503 147.094 123.621 147.525 126.724C147.739 128.263 147.981 129.798 148.254 131.328C148.335 131.779 148.396 132.278 148.478 132.783C147.869 134.514 147.523 136.307 147.551 138.092C147.633 143.35 152.076 146.66 156.556 148.438C159.153 149.468 161.869 150.169 164.421 151.32C167.105 152.531 168.933 154.494 170.768 156.733C174.269 161.005 178.22 164.843 182.731 168.046C192.295 174.837 204.409 178.048 216.013 175.61C218.797 175.026 221.606 174.117 224.109 172.749C226.752 171.304 228.739 169.21 230.407 166.735C233.505 162.14 235.727 156.965 237.408 151.7C239.122 146.328 240.339 140.947 241.003 135.346C241.664 129.764 241.804 124.124 241.704 118.507V118.507Z" fill="white"/>
<path fill-rule="evenodd" clip-rule="evenodd" d="M180.056 50.8533C188.05 49.7549 199.084 53.3248 203.066 60.5228C222.074 56.047 246.047 55.9004 261.714 70.8003C278.061 88.4749 257.528 111.779 243.913 117.033C244.904 121.845 243.359 152.671 232.422 166.421C223.743 178.071 203.531 183.448 194.178 169.533L194.105 169.418C193.103 167.811 193.966 167.862 194.995 169.058C204.153 177.102 216.605 177.239 226.201 168.75C244.185 153.233 242.33 115.185 233.773 93.1743C209.405 90.5012 183.316 97.8781 166.485 116.199L167.623 123.043C167.817 124.209 168.038 125.373 168.206 126.543C168.313 127.293 168.325 128.039 167.805 128.646C166.088 130.649 163.195 127.638 160.814 126.441C160.111 126.342 159.407 126.304 158.716 126.353C147.277 127.825 149.531 149.989 162.103 146.104C163.16 145.446 164.067 145.647 164.477 146.601C167.474 149.342 169.45 154.232 174.428 158.942C176.185 160.709 177.784 162.187 179.76 163.604C180.92 164.776 184.422 165.971 183.312 167.977C181.213 172.542 168.833 158.203 166.644 154.238C159.786 156.943 152.186 156.024 145.079 155.363C107.587 153.416 112.592 113.941 143.324 89.0183C149.108 84.7646 155.491 81.2945 162.125 78.6242C163.031 78.2596 162.635 76.7741 161.717 77.1438C157.327 78.911 153.048 81.0143 148.968 83.4487L148.962 81.9933C148.956 79.5419 148.994 76.9898 149.421 74.7501C149.634 73.1981 149.992 71.5405 150.544 70.2935C151.226 66.4703 161.911 53.3473 180.056 50.8533ZM158.216 131.441C158.794 130.892 159.875 131.547 160.39 131.531C161.708 131.711 162.96 132.267 163.937 132.953C164.582 133.314 165.033 133.652 165.411 133.964L165.421 133.961C165.418 133.961 165.415 133.964 165.412 133.965L165.447 133.989C165.997 134.379 168.01 136.576 166.738 135.986C166.643 135.862 166.546 135.744 166.448 135.628C166.438 135.644 166.423 135.66 166.406 135.675L166.477 135.781C167.558 137.405 165.692 135.694 165.405 135.239C165.392 135.25 165.376 135.258 165.361 135.266L165.735 135.72C165.787 135.785 165.828 135.836 165.862 135.88L165.941 135.956C167.191 137.183 167.23 138.287 165.778 136.473C165.835 136.558 165.881 136.649 165.887 136.729L165.973 136.839C167.113 138.306 166.186 137.785 165.62 137.158L165.572 137.104L165.582 137.119C166.109 137.93 165.064 137.361 164.879 136.927L164.871 136.908C164.67 136.744 164.546 136.559 164.503 136.513L164.496 136.505C163.515 135.502 162.095 134.654 160.888 134.268C160.713 134.235 160.536 134.208 160.357 134.189C159.632 134.027 158.898 133.917 158.157 133.857C158.066 133.846 157.974 133.78 157.906 133.694C156.785 133.656 157.131 133.197 157.596 133.112L157.604 133.11L157.512 133.103C156.792 133.032 156.301 132.775 157.028 132.616L157.12 132.598C157.109 132.58 157.099 132.563 157.089 132.545C156.467 132.477 156.873 131.872 157.219 132.018C157.073 131.543 157.738 131.78 157.821 131.71C157.885 131.64 157.963 131.578 158.009 131.574C158.209 131.433 158.112 131.446 158.216 131.441ZM162.028 123.749L161.882 123.834C161.764 123.903 161.642 123.949 161.52 123.976C161.692 124.049 161.862 124.128 162.031 124.212C162.028 124.109 162.026 124.006 162.026 123.903L162.028 123.749Z" fill="black"/>
<path fill-rule="evenodd" clip-rule="evenodd" d="M221.894 151.453L222.071 151.413C223.486 151.079 224.848 150.626 226.166 151.502C227.422 152.336 227.596 153.879 226.618 155.005C225.612 156.163 224.276 156.098 222.866 156.114L222.778 156.115C221.607 156.131 220.417 156.114 219.25 156.01C218.163 155.913 217.069 155.759 215.994 155.556L215.358 155.431C214.709 155.3 214.069 155.129 213.735 154.502C213.151 153.407 217.488 152.549 218.015 152.399C219.294 152.034 220.597 151.747 221.894 151.453ZM224.3 138.259C223.608 138.975 222.695 139.465 221.67 139.769C219.093 140.534 215.806 140.127 213.702 139.347C213.265 139.185 212.857 138.855 212.623 138.443C212.409 138.067 212.336 137.624 212.499 137.172C212.546 137.044 212.602 136.918 212.659 136.794C212.813 136.456 213.128 136.194 213.497 136.043C213.881 135.888 214.317 135.856 214.667 135.966C214.714 135.98 214.763 135.996 214.812 136.011C216.145 136.431 218.332 137.126 220.144 136.991C221.231 136.911 222.187 136.527 222.682 135.533C222.942 135.009 222.87 134.491 222.639 134.017C222.29 133.301 221.592 132.679 221.004 132.25C220.175 131.645 219.291 131.404 218.376 131.149C218.031 131.053 217.682 130.956 217.33 130.839C217.214 130.801 217.112 130.726 217.036 130.628C216.961 130.531 216.911 130.413 216.896 130.295C216.88 130.172 216.899 130.05 216.956 129.945C217.009 129.847 217.093 129.761 217.219 129.705C219.009 128.904 221.323 129.433 223.07 130.693C223.943 131.323 224.672 132.132 225.12 133.036C225.537 133.874 225.714 134.795 225.551 135.733C225.368 136.784 224.923 137.614 224.3 138.259ZM194.971 120.391C195.474 120.169 195.887 121.205 195.99 121.488L196.204 122.074C196.554 123.019 196.954 123.979 197.688 124.681C198.303 125.268 199.288 125.765 200 125.078C200.677 124.427 200.347 123.693 200.447 122.893C200.627 121.447 202.601 120.002 203.788 121.511C206.469 124.92 202.32 129.662 198.499 128.83C196.556 128.407 194.991 126.85 194.349 125L194.316 124.902C193.931 123.729 193.542 121.02 194.971 120.391ZM229.572 122.765L229.554 122.722C228.277 119.82 232.832 118.573 233.219 121.179L233.243 121.355C233.619 124.247 232.827 128.136 229.281 128.424C225.3 128.748 223.642 124.312 223.997 121.056C224.061 120.473 224.769 120.393 224.988 120.922L225.034 121.038C225.677 122.674 226.288 125.821 228.552 125.817C230.066 125.815 229.993 123.775 229.572 122.765V122.765ZM232.461 114.366C234.749 114.285 234.746 117.862 232.461 117.916C224.827 118.095 217.187 118.333 209.551 118.374L208.163 118.383C200.991 118.431 193.793 118.529 186.642 117.927C186.031 117.876 186.145 117.02 186.655 117.055C194.153 115.989 201.742 115.677 209.297 115.272C217.011 114.858 224.74 114.639 232.461 114.366Z" fill="black"/>
</svg>
