<svg width="25" height="24" viewBox="0 0 25 24" fill="none" xmlns="http://www.w3.org/2000/svg">
<path fill-rule="evenodd" clip-rule="evenodd" d="M6.76027 3.47943C9.95422 2.29703 13.7712 3.17054 16.1982 5.47985C17.2279 6.45965 18.0082 7.66672 18.4795 8.9999H19.0002C20.5915 8.9999 22.1176 9.63204 23.2429 10.7573C24.3681 11.8825 25.0002 13.4086 25.0002 14.9999C25.0002 16.5912 24.3681 18.1173 23.2429 19.2425C22.1177 20.3678 20.5915 20.9999 19.0002 20.9999V19.9999V18.9999C20.0611 18.9999 21.0785 18.5785 21.8287 17.8283C22.5788 17.0782 23.0002 16.0608 23.0002 14.9999C23.0002 13.939 22.5788 12.9216 21.8287 12.1715C21.0785 11.4213 20.0611 10.9999 19.0002 10.9999H17.7402C17.2842 10.9999 16.886 10.6914 16.772 10.2499C16.4446 8.98203 15.7682 7.83139 14.8195 6.92875C12.9217 5.12296 9.90246 4.44884 7.45461 5.35503C4.92846 6.29021 3.22364 8.53405 2.95105 11.2203C2.66204 14.0684 3.70278 16.593 6.04193 18.1592C6.59173 18.5 7.05644 18.6978 7.61264 18.8196C8.19607 18.9474 8.91746 18.9999 10.0002 18.9999H19.0002V19.9999V20.9999H10.0002C8.8753 20.9999 7.9819 20.9479 7.18484 20.7733C6.36503 20.5938 5.68655 20.2939 4.97169 19.8488C4.96287 19.8434 4.95413 19.8377 4.94548 19.832C1.90842 17.8072 0.606145 14.518 0.961271 11.0184C1.3092 7.58963 3.50254 4.68543 6.76027 3.47943Z" fill="#18191F"/>
</svg>
