<svg width="25" height="24" viewBox="0 0 25 24" fill="none" xmlns="http://www.w3.org/2000/svg">
<path fill-rule="evenodd" clip-rule="evenodd" d="M6.76027 3.47955C9.95422 2.29715 13.7712 3.17066 16.1982 5.47997C17.2279 6.45977 18.0082 7.66685 18.4795 9.00002H19.0002C20.5915 9.00002 22.1176 9.63217 23.2429 10.7574C24.3681 11.8826 25.0002 13.4087 25.0002 15C25.0002 16.5913 24.3681 18.1174 23.2429 19.2427C22.1177 20.3679 20.5915 21 19.0002 21V20V19C20.0611 19 21.0785 18.5786 21.8287 17.8285C22.5788 17.0783 23.0002 16.0609 23.0002 15C23.0002 13.9392 22.5788 12.9217 21.8287 12.1716C21.0785 11.4215 20.0611 11 19.0002 11H17.7402C17.2842 11 16.886 10.6915 16.772 10.25C16.4446 8.98215 15.7682 7.83151 14.8195 6.92887C12.9217 5.12308 9.90246 4.44896 7.45461 5.35515C4.92846 6.29033 3.22364 8.53418 2.95105 11.2204C2.66204 14.0685 3.70278 16.5932 6.04193 18.1593C6.59173 18.5001 7.05644 18.698 7.61264 18.8198C8.19607 18.9475 8.91746 19 10.0002 19H19.0002V20V21H10.0002C8.8753 21 7.9819 20.948 7.18484 20.7735C6.36503 20.594 5.68655 20.294 4.97169 19.849C4.96287 19.8435 4.95413 19.8378 4.94548 19.8321C1.90842 17.8074 0.606145 14.5182 0.961271 11.0185C1.3092 7.58975 3.50254 4.68555 6.76027 3.47955Z" fill="#9FA4B4"/>
</svg>
