<svg width="240" height="260" viewBox="0 0 240 260" fill="none" xmlns="http://www.w3.org/2000/svg">
<g clip-path="url(#clip0)">
<path fill-rule="evenodd" clip-rule="evenodd" d="M192.796 246.477C192.284 241.715 191.968 236.919 191.787 232.133C191.606 227.353 191.843 222.514 191.947 217.732C192.158 208.003 192.503 198.252 191.729 188.539C190.997 179.359 189.317 170.243 186.666 161.422C185.375 157.127 184.015 152.658 181.892 148.689C179.757 144.698 176.376 142.041 172.661 139.604C168.706 137.009 164.783 134.365 160.844 131.746C157.537 129.548 151.587 126.989 148.874 124.051C146.019 120.958 145.482 113.293 143.581 109.63C141.729 106.062 136.488 103.735 132.453 103.735C125.773 103.735 120.712 103.393 115.219 109.574C112.479 112.659 114.659 115.777 111.787 118.737C109.146 121.458 102.392 124.255 98.9886 125.834C94.912 127.726 90.7325 129.396 86.4923 130.883C82.167 132.401 77.7327 133.532 73.3832 134.964C69.214 136.336 63.77 141.995 60.5334 144.988C57.5243 147.772 56.7775 147.46 54.4899 150.841C49.4694 158.262 44.4433 165.768 40.4453 173.803C38.4539 177.805 36.5256 182.015 35.8031 186.459C35.0324 191.2 35.7966 195.781 37.0464 200.371C38.3187 205.042 42.3587 209.489 43.6749 214.149C44.2815 216.296 42.1994 218.639 43.1571 220.662C43.6354 221.673 44.2378 222.572 44.9235 223.453C45.4519 224.131 47.5125 223.981 47.7791 224.811C48.0485 225.65 46.5577 227.39 46.5355 228.258C46.504 229.501 46.4546 230.743 46.4138 231.985L46.173 239.328C46.0147 244.154 45.8565 248.979 45.6982 253.805C45.6465 255.38 45.5711 256.919 45.9486 258.414C45.8123 258.287 45.6828 258.15 45.5645 257.995C45.2182 257.543 44.4839 257.926 44.7778 258.456C45.2683 259.338 45.9737 259.96 46.8025 260.406C47.7657 261.827 193.63 264.999 194.348 260.846C194.75 258.516 194.017 256.022 193.724 253.706C193.419 251.295 193.057 248.894 192.796 246.477Z" fill="white"/>
<path fill-rule="evenodd" clip-rule="evenodd" d="M44.626 186.468C44.9829 185.445 46.6151 185.888 46.2558 186.917C44.4084 192.21 45.7189 197.971 47.716 203.024C48.1168 204.038 46.4816 204.473 46.0863 203.473C43.9855 198.158 42.6858 192.027 44.626 186.468ZM57.0126 216.704C62.2225 217.437 67.4366 217.889 72.6824 218.255C72.9169 218.272 73.1197 218.236 73.295 218.16C73.1387 220.563 73.0119 222.968 72.9127 225.373C71.4824 225.333 70.0225 225.428 68.6049 225.39C66.7521 225.339 64.9014 225.246 63.0528 225.105C59.4739 224.834 55.9014 224.403 52.3626 223.807C51.0401 223.585 49.3605 223.45 47.8542 223.01C46.4303 222.594 45.1626 221.905 44.4972 220.607C43.931 219.508 43.8274 218.162 43.8274 216.947C43.8274 216.11 43.9711 215.26 44.0577 214.417C44.1655 214.341 44.2626 214.25 44.3408 214.149C45.9126 214.645 47.5436 214.994 49.1408 215.332C51.7415 215.886 54.3803 216.334 57.0126 216.704ZM54.0741 197.162C54.1029 198.777 54.5497 200.244 55.4191 201.604C56.0072 202.525 54.5438 203.372 53.9596 202.458C52.9363 200.856 52.4178 199.059 52.384 197.162C52.3646 196.071 54.0547 196.075 54.0741 197.162ZM187.622 214.784C188.328 214.824 189.038 214.848 189.745 214.886C190.369 215.42 191.233 215.693 192.022 215.523C192.05 215.592 192.074 215.668 192.097 215.757C192.236 216.3 192.306 216.883 192.386 217.437C192.467 217.982 192.528 218.532 192.57 219.081C192.591 219.358 192.724 219.984 192.555 220.225C192.403 220.442 192.067 220.423 191.835 220.451C191.21 220.518 190.576 220.55 189.946 220.603C188.757 220.707 187.567 220.81 186.38 220.914C185.216 221.015 183.938 220.984 182.799 221.29C182.605 219.005 182.427 216.721 182.262 214.434C184.027 214.694 185.871 214.687 187.622 214.784ZM39.7097 210.995C40.4196 212.367 41.0745 213.715 42.4329 214.539C42.6104 214.645 42.809 214.702 43.0118 214.717C42.8597 215.37 42.7646 216.038 42.6801 216.655C42.4942 218.014 42.4541 219.419 42.7942 220.759C43.1259 222.063 43.6752 223.228 44.7527 224.063C45.2534 224.452 45.8006 224.748 46.3752 224.982C46.278 225.255 46.221 225.526 46.2506 225.824C46.1132 226.514 46.0224 227.218 45.9231 227.892C45.7055 229.389 45.4879 230.887 45.3167 232.392C44.9745 235.385 44.7062 238.378 44.4801 241.381C44.2541 244.376 44.0914 247.375 43.9562 250.376C43.8865 251.91 43.8252 253.445 43.7682 254.981C43.7111 256.56 43.4555 258.175 44.1527 259.64C44.7146 260.823 46.6139 260.755 47.197 259.64C47.9365 258.221 47.7189 256.537 47.7379 254.981C47.7569 253.517 47.7822 252.05 47.8139 250.585C47.8773 247.586 47.9703 244.589 48.0442 241.59C48.116 238.663 48.2048 235.738 48.2639 232.811C48.2935 231.278 48.2956 229.746 48.3041 228.214C48.3083 227.364 48.3442 226.458 48.2808 225.572C48.809 225.696 49.3414 225.802 49.8675 225.91C53.8837 226.734 57.9421 227.334 62.0259 227.706C64.0773 227.892 66.1351 228.023 68.1928 228.098C69.7055 228.152 71.2731 228.258 72.809 228.201C72.6886 231.87 72.6337 235.541 72.64 239.213C72.6442 241.861 72.6801 244.509 72.7456 247.157C72.7815 248.55 72.8111 249.943 72.8534 251.335C72.8724 251.961 72.8724 252.593 72.9146 253.216C72.9273 253.411 72.9548 253.599 72.9907 253.785C72.8513 254.18 72.7351 254.571 72.64 254.937C72.1752 256.712 72.1752 258.418 72.3822 260.227C72.5597 261.761 73.8506 263.184 75.5555 262.645C75.8322 262.558 76.109 262.467 76.3837 262.374C78.8935 262.66 81.4182 262.725 83.9639 262.774C87.6844 262.846 91.4069 262.869 95.1294 262.888C102.431 262.926 109.734 262.945 117.038 262.966C131.715 263.008 146.391 263.048 161.068 263.091C165.141 263.104 169.215 263.114 173.288 263.127C175.396 263.133 177.501 263.135 179.607 263.216C180.589 263.254 181.574 263.306 182.556 263.321C183.695 263.34 184.703 263.012 185.791 262.715C186.405 262.543 186.648 261.926 186.517 261.404C187.502 261.639 188.696 261.14 189.032 260.031C189.277 259.225 189.186 258.352 188.82 257.606V257.604C188.115 253.147 187.219 248.71 186.515 244.251C185.744 239.367 185.003 234.472 184.35 229.569C183.86 225.866 183.456 228.491 183.108 224.771C184.627 224.889 186.344 224.426 187.848 224.23C188.928 224.09 190.016 223.978 191.098 223.83C191.017 224.921 191.041 226.033 191.011 227.079C190.954 229.156 190.979 231.225 191.032 233.303C191.134 237.312 191.36 234.979 191.721 238.971C192.086 242.993 192.534 247.001 193.077 251.004C193.356 253.064 193.654 255.123 193.969 257.179C194.115 258.139 194.265 259.096 194.419 260.056C194.603 261.186 194.662 262.258 195.509 263.108C196.153 263.752 197.47 263.697 197.896 262.799C198.437 261.664 198.192 260.692 197.991 259.5C197.829 258.542 197.672 257.585 197.518 256.628C197.189 254.575 196.876 252.521 196.582 250.465C196.016 246.502 195.482 242.533 195.004 238.559C194.522 234.554 194.024 236.894 193.551 232.889C193.312 230.868 193.073 228.852 192.794 226.838C192.653 225.802 192.564 224.699 192.378 223.632C192.437 223.623 192.496 223.613 192.555 223.602C193.84 223.367 194.936 222.642 195.26 221.319C195.568 220.053 195.201 218.597 194.941 217.355C194.719 216.296 194.518 214.945 193.837 214.038C196.237 210.98 197.798 207.132 198.794 203.432C199.879 199.401 200.333 195.194 200.429 191.029C200.54 186.203 200.177 181.406 199.35 176.687C199.331 175.687 199.285 174.688 199.21 173.69C198.484 163.892 195.433 152.295 185.761 147.717C185.723 147.698 185.683 147.681 185.643 147.664C184.884 146.757 183.938 145.941 183.173 145.179C181.819 143.826 180.403 142.532 178.903 141.34C175.933 138.98 172.675 137.094 169.289 135.397C165.864 133.679 162.389 132.066 159.042 130.192C156.127 128.556 153.503 126.586 151.012 124.362C148.213 121.862 146.22 118.491 145.439 114.812C145.398 114.619 145.113 114.672 145.109 114.856C144.904 121.6 149.455 127.56 154.692 131.331C160.954 135.835 168.515 137.967 174.866 142.334C176.444 143.418 177.921 144.642 179.326 145.941C177.173 145.722 174.982 145.861 172.965 146.457C172.17 146.408 171.372 146.394 170.575 146.356C168.754 146.265 166.931 146.18 165.108 146.1C161.391 145.935 157.673 145.785 153.955 145.654C146.66 145.396 139.363 145.202 132.065 145.073C117.401 144.813 102.718 144.762 88.0562 145.187C84.0801 145.301 63.1731 144.509 61.2379 144.732C64.0837 142.268 67.2062 140.256 70.6393 138.601C74.9344 136.536 79.3731 135.158 83.9597 133.899C93.4055 131.305 103.215 128.805 110.774 122.217C112.652 120.579 114.321 118.696 115.688 116.61C116.994 114.619 118.445 112.07 118.481 109.642C118.506 107.918 116.106 107.29 115.253 108.767C114.722 109.682 114.46 110.686 114.027 111.646C113.596 112.597 113.085 113.514 112.517 114.391C111.399 116.116 110.013 117.654 108.505 119.043C105.289 122.006 101.394 124.177 97.3625 125.819C88.2104 129.545 78.2006 131.117 69.528 136.029C65.7337 138.178 62.102 141.144 59.8224 144.927C59.4548 144.984 59.0893 145.052 58.7238 145.128C58.9963 144.783 59.271 144.439 59.5477 144.096C59.7294 143.872 59.4484 143.577 59.2266 143.775C54.9146 147.613 50.9428 151.758 47.3428 156.276C43.8991 160.601 40.6879 165.132 38.4146 170.196C34.3287 179.293 33.4287 189.697 35.5393 199.424C36.1139 202.074 36.9252 204.669 37.9583 207.178C38.4907 208.474 39.0675 209.75 39.7097 210.995Z" fill="black"/>
<path fill-rule="evenodd" clip-rule="evenodd" d="M132.798 21.2808C144.794 21.2808 159.818 34.9701 164.215 40.7955C167.912 45.6932 167.389 70.9244 167.389 85.8915C167.389 89.0219 165.975 94.9463 165.461 97.9406C163.58 108.913 155.382 118.115 139.157 118.115C125.946 118.115 115.779 113.929 105.948 103.222C103.705 100.779 92.751 109.524 90.5108 106.375C84.6594 106.375 79.7667 51.6819 91.2551 35.2772C102.744 18.8726 120.802 21.2808 132.798 21.2808Z" fill="white"/>
<path fill-rule="evenodd" clip-rule="evenodd" d="M96.7433 25.1333C103.675 18.8245 112.91 15.7895 122.226 16.0135C127.052 16.1297 131.86 17.0491 136.417 18.6237C138.697 19.4141 140.905 20.4455 143.015 21.6122C143.776 22.0316 144.477 22.5231 145.152 23.0451L145.32 23.1762H145.322C147.133 23.8271 148.749 24.9959 150.215 26.3633C153.154 26.1287 156.116 26.3929 158.957 27.2996C162.912 28.5635 166.574 30.8778 169.145 34.1643C172.14 37.9904 173.135 42.6314 172.78 47.4224L172.714 48.2363C172.363 52.4685 171.734 57.9121 168.262 60.693C167.998 60.9043 167.706 61.0649 167.404 61.1622C169.641 64.996 171.477 69.2526 172.576 73.5515C176.769 89.9713 173.545 107.095 168.502 122.921C168.088 124.225 166.117 125.091 165.114 123.817C163.322 121.539 160.719 119.801 157.791 119.476C155.985 119.275 154.187 119.639 152.48 118.819C151.81 118.495 151.164 117.967 150.699 117.324C147.817 118.417 144.714 118.933 141.636 118.806C136.584 118.599 131.184 116.849 127.709 113.011C127.151 112.395 127.01 111.703 127.138 111.079C127.574 110.924 128.021 110.808 128.482 110.735C132.89 113.334 137.747 115.07 142.968 115.179C145.985 115.242 148.927 114.82 151.374 112.936C151.903 112.528 152.39 112.076 152.84 111.591C157.954 108.3 161.559 102.71 163.274 96.7218C164.871 91.138 164.674 85.3237 164.125 79.5961L163.835 76.5737C163.413 72.1376 163.021 67.6883 162.911 63.2334L162.944 63.2317C164.024 63.1619 164.032 61.4705 162.944 61.5409C160.13 61.7231 157.338 61.2613 154.533 61.4625C154.509 60.1358 154.414 58.8151 154.024 57.5356C153.801 56.8045 152.529 56.6604 152.394 57.5356C152.214 58.7065 152.148 59.8708 152.128 61.047C147.93 60.9912 143.736 60.6378 139.537 60.783C138.763 59.9566 138.516 58.4913 138.154 57.472C138.101 57.3219 138.048 57.174 137.993 57.0239C137.675 58.4805 137.224 59.9052 136.63 61.2999L135.6 61.3034C129.758 61.3309 123.796 61.5056 118.091 62.7194C117.695 62.4148 117.459 61.8835 117.395 61.401C116.981 58.2612 116.39 55.2049 115.344 52.2128L115.194 51.7907C115.182 51.7556 115.169 51.7184 115.155 51.6793C114.384 52.9248 113.463 54.0857 112.46 55.1668C111.868 55.804 111.248 56.4133 110.611 57.0053C109.993 57.6922 109.354 58.3687 108.734 59.0577C108.759 59.1831 108.78 59.3103 108.797 59.4399C108.987 60.8696 109.006 62.3197 108.867 63.755C108.616 66.3497 107.884 68.85 106.708 71.163L106.671 71.3946C106.492 72.4786 106.238 73.5988 105.644 74.4151C106.385 75.2453 106.956 76.2369 107.286 77.3387C107.581 78.3196 106.224 79.1696 105.521 78.3669C104.962 77.7293 104.341 77.2015 103.659 76.7805C103.616 76.8391 103.538 76.8678 103.451 76.819C101.552 75.7643 98.3257 76.0835 96.4285 77.0768C94.0687 78.3111 93.1476 80.8452 93.4095 83.4131C93.6609 85.8669 94.7342 88.7349 96.8152 89.9924C97.7701 90.5694 98.5138 90.618 99.5278 90.3412C99.8521 90.2531 100.254 89.9829 100.427 89.8486L100.596 89.7125C101.261 89.1868 101.88 88.8269 102.665 88.8131C103.468 88.5627 104.274 88.9101 104.581 89.752L104.6 89.8064C104.744 90.2355 105.006 90.7744 104.949 91.4296C104.89 92.1313 104.569 92.7696 104.089 93.2832C104.007 93.3719 103.918 93.4607 103.827 93.5431C112.088 102.49 113.148 116.43 108.912 127.606C108.729 128.097 108.532 128.581 108.327 129.061C107.619 130.705 104.894 130.195 104.548 128.566C104.444 128.078 104.33 127.592 104.205 127.11C103.976 126.219 103.714 125.337 103.418 124.468L103.305 124.142C103.054 123.424 102.819 122.699 102.566 121.98L102.541 121.898C102.531 121.866 102.52 121.828 102.509 121.786L102.08 122.722L100.776 125.548C100.166 126.867 98.2284 126.15 98.1563 124.879L98.1546 124.836C98.1483 124.601 98.1398 124.369 98.125 124.138C98.0321 122.411 97.7342 120.733 97.2609 119.091L97.0902 119.303C94.5478 122.448 91.564 125.395 87.4708 126.121C86.444 126.302 85.2821 125.229 85.9877 124.191C86.2793 123.762 86.5602 123.322 86.8264 122.876C86.5962 122.769 86.3785 122.657 86.1778 122.542C84.625 121.67 83.3321 120.427 82.2631 119.017C79.9962 116.029 79.1849 112.267 78.9863 108.585C78.775 104.694 79.1173 100.592 80.18 96.8381C80.6405 95.2149 81.2638 93.6573 81.9842 92.1461C81.9335 92.0108 81.8849 91.8756 81.8363 91.7403C81.0588 89.5719 80.4208 87.3548 79.8905 85.1124C78.8215 80.5852 78.2469 75.9144 78.1771 71.2626C78.0504 62.929 79.487 54.4623 82.5145 46.691C85.6412 38.6766 90.344 30.956 96.7433 25.1333ZM92.85 97.9941C92.2758 97.0898 90.8392 97.9047 91.3724 98.8154L91.3922 98.848C92.3028 100.283 92.7296 101.915 93.2535 103.515C93.5894 104.544 95.2225 104.104 94.8824 103.064L94.7698 102.717C94.2484 101.095 93.7728 99.446 92.85 97.9941ZM97.8502 80.731L98.2316 80.5464C99.4348 79.972 100.489 79.5807 101.911 80.0822C103.814 80.7522 105.853 82.8847 104.566 84.9538C104.093 85.7168 103.252 86.0211 102.386 85.8415C100.926 85.5385 100.549 84.223 99.8079 83.1431L99.6804 82.9602C99.2286 82.3068 98.6573 81.4035 97.9051 81.1474C97.734 81.0882 97.6621 80.8219 97.8502 80.731ZM98.9236 36.8001L99.0465 36.6899C99.8641 35.9671 98.6641 34.7751 97.8507 35.4937C94.1282 38.7844 92.8352 43.935 90.9042 48.3248C90.4711 49.3118 91.9268 50.1741 92.3641 49.1786C94.206 44.9898 95.4287 39.9789 98.9236 36.8001ZM143.658 35.3605C142.685 34.9221 141.834 36.3381 142.769 36.8043L142.804 36.821C146.091 38.3068 147.49 41.6715 148.829 44.7952C149.256 45.7928 150.712 44.9326 150.289 43.9435L150.048 43.383C148.65 40.1638 147.02 36.8825 143.658 35.3605ZM148.81 33.3273C147.779 32.9701 147.337 34.6018 148.36 34.9589C151.146 35.929 153.058 38.0214 154.67 40.4139C155.275 41.31 156.739 40.4646 156.128 39.56C154.256 36.7829 152.034 34.4517 148.81 33.3273Z" fill="black"/>
<path fill-rule="evenodd" clip-rule="evenodd" d="M143.152 103.274C141.731 102.695 140.464 101.728 139.538 100.493C139.216 100.064 139.132 99.6102 139.2 99.1955C139.276 98.7292 139.552 98.3066 139.928 98.0232C140.305 97.7388 140.777 97.5986 141.233 97.6701C141.629 97.7322 142.024 97.9493 142.336 98.3996L142.401 98.4897C142.952 99.2351 143.67 99.8467 144.488 100.241C145.276 100.621 146.157 100.798 147.07 100.695C148.807 100.499 150.005 99.5588 151.277 98.2823C151.435 98.1211 151.593 97.9549 151.752 97.786C151.852 97.6329 151.991 97.5345 152.145 97.4829C152.317 97.4256 152.511 97.4288 152.688 97.4908C152.859 97.5506 153.013 97.6639 153.115 97.8147C153.213 97.9581 153.268 98.1351 153.25 98.3388C153.134 99.6617 152.442 100.842 151.46 101.769C150.37 102.799 148.924 103.511 147.563 103.761C146.063 104.036 144.535 103.839 143.152 103.274ZM148.27 82.8665C149.866 83.8366 152.296 86.0987 150.58 88.5037C148.56 90.6243 145.651 88.1929 144.218 87.0933C142.889 86.2411 141.396 88.4329 142.629 89.428C152.986 97.099 157.189 83.1202 149.077 81.7259C148.184 81.5722 147.852 82.5664 148.27 82.8665ZM129.71 73.9431C129.886 71.7543 133.219 71.2573 133.55 73.4232C133.847 75.3634 133.498 77.1457 132.624 78.8925C131.789 80.5613 129.691 79.7828 129.533 78.2631C129.32 76.2262 129.601 75.3047 129.71 73.9431ZM155.076 72.9741C155.54 72.3654 156.211 71.9499 157.015 72.1847C159.526 72.9187 158.786 76.4848 157.904 78.2207C157.425 79.1633 155.876 79.4023 155.176 78.5723C154.035 77.2189 153.489 74.5159 154.939 73.1827C154.978 73.1138 155.022 73.0443 155.076 72.9741ZM132.589 64.3656L132.985 64.2962C134.212 64.0839 135.738 63.8799 136.606 64.8667C137.066 65.39 137.225 66.3627 136.606 66.8636C135.517 67.7449 134.314 67.4033 133.01 67.4779C131.935 67.5397 130.902 67.7176 129.866 68.0137C127.595 68.6632 125.744 69.8489 123.804 71.1508C123.549 71.3216 123.289 70.9959 123.411 70.7577C124.531 68.5632 126.701 66.7606 128.875 65.6618C130.035 65.0753 131.305 64.5888 132.589 64.3656ZM152.787 63.3826L153.09 63.4447C156.394 64.1356 160.686 65.5155 162.251 68.7617C162.31 69.2208 162.247 69.3192 162.196 69.3834L162.179 69.4048C162.137 69.4597 162.103 69.5354 161.904 69.5978C161.849 69.5847 161.793 69.5708 161.737 69.556C161.02 69.368 160.453 69.109 159.903 68.8402L159.308 68.5467C158.617 68.2078 157.92 67.8812 157.181 67.6401C155.604 67.1257 153.983 66.7633 152.336 66.5698C151.979 66.5279 151.636 66.4074 151.364 66.2009C151.107 66.0049 150.91 65.7334 150.821 65.3727C150.705 64.9058 150.738 64.5523 150.988 64.1311C151.177 63.8148 151.446 63.5956 151.755 63.4697C152.071 63.3413 152.43 63.3111 152.787 63.3826Z" fill="black"/>
<path fill-rule="evenodd" clip-rule="evenodd" d="M166.085 84.7579C164.662 86.6696 162.025 87.2785 159.593 87.0682C154.347 86.5631 152.696 80.6028 152.524 75.9702C156.042 76.9601 152.226 69.9488 164.252 69.1778C168.491 68.8244 167.322 71.3856 169.195 73.2569C169.156 77.1842 168.503 81.4516 166.085 84.7579ZM141.098 80.2452C138.001 94.755 121.041 91.3037 119.259 78.2241C120.904 77.0625 120.471 74.1942 122.515 73.155C125.754 71.0846 129.803 71.1732 133.481 71.2218C138.183 71.545 139.523 73.4934 141.938 75.6192C141.822 77.039 141.487 78.7218 141.098 80.2452ZM172.803 66.7748C172.629 66.7458 172.455 66.7185 172.281 66.693C172.145 66.6158 171.986 66.5564 171.8 66.5207C171.377 66.4131 170.956 66.3407 170.536 66.3016C164.508 64.9445 150.563 66.8714 149.988 72.0173C148.068 72.6583 146.407 72.0843 144.182 72.1414C142.489 65.0601 113.211 66.0596 111.803 70.3288C111.797 70.3274 111.792 70.3261 111.786 70.3244C110.434 69.9055 108.439 70.0065 106.89 69.9402C103.584 69.8708 100.273 70.1657 97.0383 70.8633C90.9802 71.8265 82.7122 72.954 86.9255 80.522C86.9264 80.5233 86.927 80.5248 86.9281 80.5261L86.9287 80.5254C87.6548 81.27 88.8872 80.6704 88.933 79.6625C87.5165 76.0771 90.7159 75.6466 93.1776 74.6163C99.3029 72.4149 105.539 72.1097 111.874 72.7906C112.351 73.352 113.074 73.8415 113.838 74.0976C118.074 74.801 115.842 77.9442 118.519 78.4014C118.027 89.3582 131.325 95.339 139.029 88.1364C142.106 85.1276 142.839 80.6704 143.552 76.6529C143.929 76.5681 144.169 76.3618 144.309 76.0888C145.216 75.1829 145.786 74.3464 147.579 74.0976C149.373 73.8491 150.754 74.3481 150.94 74.5009C150.987 74.5958 151.038 74.6909 151.097 74.786C151.179 74.9278 151.29 75.0409 151.417 75.1299C149.646 86.0406 158.113 92.9408 166.66 87.2819C170.375 83.7868 171.159 78.4358 171.315 73.6597C171.818 73.3558 172.137 72.7668 171.962 72.0262C171.722 71.0054 172.285 70.1215 173.183 69.6777C174.348 69.1013 174.142 66.9965 172.803 66.7748Z" fill="black"/>
</g>
<defs>
<clipPath id="clip0">
<rect width="240" height="260" fill="white"/>
</clipPath>
</defs>
</svg>
