<svg width="276" height="736" xmlns="http://www.w3.org/2000/svg">

 <g>
  <title>background</title>
  <rect fill="none" id="canvas_background" height="738" width="278" y="-1" x="-1"/>
 </g>
 <g>
  <title>Layer 1</title>
  <path id="svg_1" fill="white" d="m48.723045,267.072845c8.4448,18.757 18.8848,35.342 31.2488,51.905c-0.867,-39.136 -1.614,-78.483 -2.892,-117.979c-7.829,15.262 -16.172,29.073 -27.3084,44.224c-8.7308,9.323 -4.6599,13.192 -1.0484,21.85zm-27.6841,457.871c-0.9785,-1.384 -0.3993,-3.143 0.9541,-4.04c-2.8819,-6.208 5.8023,-11.001 10.0767,-15.674c9.7155,-10.531 25.0211,-25.626 26.3831,-38.923c4.634,-30.167 7.282,-60.44 14.701,-90.254c4.408,-18.936 16.646,-34.131 22.115,-52.732c9.509,-49.16 -2.776,-98.459 -0.652,-148.109c-26.801,-2.627 -23.33,0.712 -20.459,-21.561c-1.794,-1.244 -3.541,-2.561 -5.174,-3.889c-4.279,2.281 -9.33,7.873 -14.042,7.577c-1.491,-0.348 -2.566,-2.216 -3.589,-3.82c-7.5663,-11.921 -14.5997,-23.573 -21.4855,-35.586c-38.0784,-59.99 -29.4656,-73.574 6.0531,-131.079c14.9583,-22.209 33.3314,-54.527 61.8284,-56.77c3.44,0.003 7.067,-0.18 10.03,-2.342c0.021,-3.442 1.782,-4.553 6.248,-5.182c2.515,-0.258 4.488,-1.723 6.943,-1.125c1.752,-5.843 1.4,-10.542 3.301,-16.323c6.511,-9.866 27.632,-4.944 35.366,-1.85c9.611,3.34 0.468,18.284 6.741,25.109c1.368,0.762 2.791,1.128 4.613,1.127c7.771,-1.728 11.558,7.594 15.232,13.744c10.515,1.295 18.395,2.855 23.232,6.642c4.436,3.346 7.698,8.728 12.033,19.859c9.08,19.851 15.034,39.566 17.663,58.584c2.289,12.888 8.647,24.041 13.751,35.747c12.53,30.478 17.939,50.665 14.94,77.491c-3.181,-0.57 -6.389,-1.725 -9.737,-2.157l-1.354,3.2c-0.086,-0.064 -0.121,-0.136 -0.127,-0.156c-3.929,26.85 6.85,81.525 -28.317,74.331c-3.102,29.548 -12.999,55.816 -24.907,80.524c-4.815,9.295 -9.658,19.12 -9.578,30.035l1.813,0.04c0.308,0.007 0.407,0.07 0.408,0.07c0.345,0.085 -0.055,2.774 -0.442,4.295c-5.689,20.081 -10.609,40.16 -15.026,60.483c-0.932,2.739 -1.335,10.111 -3.493,11.362c0.094,1.006 -2.881,2.979 -3.111,2.915c0.518,3.878 -1.36,5.613 -1.297,9.55c-0.01,-0.093 2.639,0.045 2.523,-0.035c1.582,0 3.374,3.355 3.396,5.629c0.144,2.739 -2.172,5.314 -2.982,8.001c-1.256,5.897 -1.06,11.875 -1.619,17.81c5.273,1.195 4.09,6.795 -0.534,7.071c0,0 -0.842,7.825 -0.676,11.725c3.172,0.38 4.581,3.205 5.629,5.396c3.902,0.044 7.553,1.818 11.176,3.666c8.446,4.135 16.739,8.466 24.262,12.853c6.637,4.409 21.104,9.256 13.593,18.529c0.114,0.24 -1.612,4.543 -3.94,4.151c-11.486,1.115 -55.162,-8.362 -65.266,-10.464c-3.43,-0.815 -18.437,-2.768 -12.205,-7.829c-2.322,-6.481 -2.424,-18.778 4.581,-20.279c0.681,-6.09 5.811,-8.227 10.928,-5.974c-0.033,-4.38 0.241,-8.172 0.286,-12.554c-2.462,-0.325 -5.189,-1.238 -5.901,-3.104c-0.675,-1.03 -0.413,-4.538 2.122,-4.563c0.075,-0.006 1.907,0.082 1.981,0.081c-0.294,-7.09 0.325,-13.107 -0.737,-20.21c-0.57,-2.357 -2.434,-2.742 -3.654,-3.955c-1.145,-3.528 2.376,-6.377 5.389,-6.971c0.768,-3.586 -0.852,-7.385 0,-10.905c-1.964,-0.065 -3.498,-0.165 -4.774,-1.357c-0.554,-0.543 -1.461,-0.378 -2.166,-0.426c-0.683,-7.405 -5.307,-13.729 -6.332,-20.852c-1.445,-8.432 1.278,-17.23 2.253,-25.823c0.79,-7.147 -0.469,-14.46 -1.098,-21.479c-25.891,41.285 -60.854,81.071 -67.113,131.327c-0.667,3.869 -1.071,8.196 2.5,11.985l0.153,0.044c0.908,1.821 1.478,5.292 2.129,7.17c3.372,2.662 0.277,7.772 -2.159,10.076c-0.738,0.841 -1.368,1.817 -2.043,2.698c-12.723,15.183 -14.163,32.338 -38.5868,31.18c-6.0044,-0.375 -20.0547,-0.184 -22.7501,-3.725z" clip-rule="evenodd" fill-rule="evenodd"/>
  <path id="svg_2" fill="black" d="m123.265845,107.801845c2.061,-1.407 -0.873,10.726 -0.879,11.884l-0.052,0.255c-0.514,2.47 -1.418,5.342 -3.501,6.922c0.961,7.855 2.156,15.687 3.627,23.459c13.123,1.71 26.333,4.18 39.68,2.934c6.965,0.06 11.593,-4.659 14.441,-10.539l0.086,-0.178l-0.587,-2.103c-8.926,-5.474 -15.692,-16.569 -11.667,-27.038c0.261,-0.681 1.349,-0.407 1.111,0.304c-1.689,4.726 -0.98,10.054 1.419,14.394c1.499,0.798 3.095,0.742 4.701,0.694c7.747,-1.133 12.196,7.655 15.53,13.135l2.919,0.432c11.166,1.658 21.937,3.62 27.451,15.054l0.503,1.071c7.802,16.596 15.091,33.668 19.34,51.55c2.116,9.413 2.882,19.112 5.986,28.295c6.444,17.046 15.526,33.064 20.451,50.711c3.055,6.236 11.639,54.505 3.171,54.665c-3.05,-0.913 -6.158,-1.65 -9.298,-2.177c0.484,0.368 0.661,0.995 0.569,1.637c-1.096,7.683 -1.179,15.466 -1.173,23.212c0.448,18.601 0.387,57.908 -27.331,52.908c-2.273,22.744 -10.032,44.746 -18.657,65.8c-5.124,13.571 -15.063,25.951 -15.562,40.859c3.434,0.051 2.102,4.416 1.68,6.521c-1.155,5.153 -2.658,10.227 -4.178,15.28c-5.358,18.129 -8.558,36.865 -13.146,55.202c-0.248,0.883 -0.665,1.484 -1.198,1.888c-0.091,1.908 -2.975,3.003 -4.606,2.369c0.229,2.308 0.166,4.645 0.198,6.961l0.007,0.433l0.499,-0.005c2.175,-0.559 4.374,2.96 4.987,4.767c2.065,5.055 -2.722,8.762 -3.079,13.577c-0.324,4.572 -0.755,9.104 -0.952,13.688c5.969,2.329 3.329,10.129 -2.521,10.048c0.274,2.846 0.311,5.709 0.431,8.56c2.543,0.666 4.45,2.809 5.702,5.046c5.14,0.351 9.833,3.388 14.413,5.539c7.083,3.495 14.05,7.225 20.884,11.186c6.655,4.427 21.463,9.453 14.99,19.692c1.629,1.404 0.491,4.154 -0.994,5.301l-0.051,0.039c-1.476,1.154 -3.427,1.154 -5.241,0.967c-21.067,0.527 -43.265,-6.013 -64.214,-10.283l-1.582,-0.282c-4.586,-0.82 -9.28,-1.739 -13.354,-3.975c-1.724,-1.402 -2.146,-4.825 -0.382,-6.207c-1.808,-6.538 -0.177,-18.018 6.978,-20.547c0.849,-4.849 4.773,-8.326 9.764,-6.846c0.025,-3.106 0.277,-6.174 0.333,-9.28c-2.474,-0.466 -4.757,-1.425 -5.95,-3.774c-1.312,-2.341 0.109,-6.264 3.091,-6.138c0.101,-4.836 -0.172,-9.591 -0.212,-14.419l-0.004,-0.291c-0.016,-1.564 0.047,-3.289 -0.616,-4.727c-0.682,-1.481 -2.495,-1.627 -3.3,-3.031c-1.763,-3.782 1.767,-8.224 5.408,-9.242c0.457,-2.532 0.22,-5.213 0.679,-7.77c-1.939,-0.113 -3.591,-0.563 -4.995,-1.663c-0.97,-0.15 -2.687,0.282 -2.797,-1.11c-0.395,-5.69 -3.266,-10.756 -5.074,-16.063c-3.735,-10.322 -0.346,-21.101 0.952,-31.541c0.612,-5.324 -0.033,-10.671 -0.578,-16.008c-24.642,38.573 -56.251,75.871 -63.554,122.406c-0.405,5.238 -2.545,9.547 1.215,14.066c1.261,0.365 2.338,6.287 2.825,7.778c3.85,3.562 0.495,9.918 -2.856,12.672c-1.604,2.769 -3.75,5.194 -5.758,7.674l-0.647,1.084c-4.254,7.109 -8.793,14.238 -14.561,20.195c-9.694,7.187 -25.9618,5.142 -37.3801,3.848l-1.015,-0.165c-2.3783,-0.397 -5.0111,-0.977 -6.3798,-3.093c-1.1888,-1.834 -1.0297,-4.213 0.4483,-5.59c-1.4667,-4.224 1.8752,-8.372 5.0177,-10.966c12.1824,-10.793 22.6833,-23.488 30.8609,-37.558c3.134,-22.752 6.353,-45.502 9.839,-68.202c2.813,-18.785 7.098,-37.591 16.145,-54.445l2.218,-4.214c3.751,-7.139 7.346,-14.261 9.483,-22.13c4.982,-18.541 3.789,-37.957 3.099,-56.937c-0.888,-29.631 -3.001,-59.268 -2.725,-88.921c-5.581,-0.585 -20.71,-0.225 -23.093,-5.956c-0.78,-5.462 1.05,-11.019 1.463,-16.474c-1.178,-0.826 -2.328,-1.691 -3.447,-2.584c-2.075,1.548 -4.217,3.009 -6.417,4.367c-5.263,3.787 -9.333,4.392 -12.5897,-1.832c-9.424,-14.89 -18.5163,-29.994 -27.0957,-45.387c-7.9573,-14.765 -17.8201,-29.506 -19.8398,-46.504c-2.936,-30.598 32.9782,-79.569 50.9592,-104.43c11.05,-13.362 25.345,-27.593 43.603,-28.64l0.555,-0.027c2.449,-0.123 6.007,0.145 8.048,-1.51c0.386,-5.524 6.056,-5.496 10.272,-6.409c0.873,-0.666 2.198,-0.823 3.314,-0.77c1.513,-4.343 1.857,-9.145 3.743,-13.348zm-52.06,568.293c-4.625,-2.405 -10.143,-2.6 -15.008,-0.694c-6.033,11.175 -13.76,21.375 -22.5341,30.538c-3.2057,4.471 -15.2388,10.366 -9.2365,16.4l0.8127,0.149c9.2141,1.677 18.5691,2.997 27.9579,2.241c6.135,-1.697 11.086,-6.242 14.988,-11.15c4.843,-6.278 8.845,-13.185 13.276,-19.759c3.978,-6.739 6.075,-6.83 2.956,-14.834c-0.006,0.156 -0.044,0.314 -0.123,0.476c-1.102,2.221 -4.483,2.016 -6.391,1.179c-2.488,-1.092 -4.296,-3.28 -6.698,-4.546zm-43.6964,48.317l0.1397,0.064l0,0l0.1418,0.064l0.2074,0.003l-0.4889,-0.131l0,0zm175.3624,-40.233c-6.861,-3.067 -19.431,-12.006 -26.44,-10.648c-5.175,1.583 -9.947,4.414 -15.464,4.824l-0.237,0.008c-3.938,0.168 -10.937,1.482 -12.416,-3.148c-1.959,3.741 -2.604,8.375 -2.574,12.608c-0.082,3.608 1.571,6.462 5.407,6.755l3.552,0.893c22.506,5.647 45.222,11.039 68.415,12.71c6.088,-3.801 6.238,-8.797 -0.217,-12.268c-6.519,-4.165 -13.228,-8.046 -20.026,-11.734zm-132.555,-87.16c-4.031,25.212 -6.737,50.567 -10.64,75.791c13.624,-3.404 17.625,8.807 22.697,5.401c-3.548,-4.668 -3.123,-8.184 -2.072,-13.616c2.082,-18.296 8.898,-35.701 17.349,-51.946c0.963,-1.855 1.951,-3.699 2.953,-5.539c-10.867,0.991 -22.564,-2.107 -30.287,-10.091zm83.93,71.894c-0.933,1.448 -1.303,3.193 -1.601,4.866c-0.153,0.865 -0.069,2.139 -0.376,3.109c5.846,0.177 11.725,-1.185 16.993,-3.692l-0.257,-0.017c-4.294,-0.264 -13.166,0.339 -14.759,-4.266zm-3.635,3.731c-0.568,0.404 -1.06,0.872 -1.485,1.391c-0.144,0.806 0.273,1.684 0.95,2.185c0.135,-1.18 0.3,-2.404 0.535,-3.576zm11.42,-16.881c0.018,3.65 0.24,7.246 0.2,10.891c-0.006,1.264 0.369,2.861 -0.405,3.935l1.23,0.13c3.084,0.321 6.229,0.586 9.311,0.236c0.099,-4.746 0.102,-9.515 0.414,-14.256c-3.8,-0.025 -7.009,-0.664 -10.75,-0.936zm11.774,14.532c-0.005,0.145 -0.008,0.299 -0.002,0.442c0.443,-0.082 0.883,-0.181 1.319,-0.297c-0.358,-0.036 -0.723,0.025 -1.076,-0.097c-0.081,-0.012 -0.164,-0.022 -0.241,-0.048zm-13.273,-0.568c-0.389,0.441 -1.148,0.52 -1.628,0.228c-0.098,0.017 -0.195,0.03 -0.297,0.035c-0.029,0.003 -0.06,0 -0.088,0l0.334,0.084c0.696,0.172 1.235,0.283 1.949,0.385c-0.126,-0.228 -0.21,-0.474 -0.27,-0.732zm15.994,-0.018c-0.09,0.166 -0.213,0.304 -0.364,0.419l0.344,-0.115c0.058,-0.02 0.115,-0.04 0.171,-0.061c-0.046,-0.085 -0.097,-0.164 -0.151,-0.243zm-20.151,-1.003c0.064,0.15 0.209,0.381 0.374,0.504c-0.146,-0.151 -0.275,-0.32 -0.374,-0.504zm17.333,-2.349c0.003,0.087 0.005,0.174 0.011,0.264c0.047,-0.05 0.102,-0.095 0.169,-0.126c-0.062,-0.045 -0.123,-0.092 -0.18,-0.138zm-15.673,-19.887c-2.866,0.929 -1.862,4.524 0.307,5.703c2.359,1.555 5.922,1.312 8.63,1.545c2.772,0.059 5.98,1.185 8.476,-0.433c1.301,-0.876 1.313,-2.868 -0.064,-3.635c-0.026,0.062 -0.054,0.12 -0.082,0.179c0.018,0.141 0.005,0.3 -0.057,0.486c-1.572,2.827 -11.437,1.194 -13.939,-0.207l-0.193,-0.084c-1.695,-0.72 -3.283,-1.054 -3.078,-3.554zm3.504,-41.588c0.62,2.78 0.417,5.674 0.809,8.463c0.246,0.809 -0.069,1.346 -0.574,1.622c3.256,0.973 6.537,1.456 9.928,0.699c-0.367,-3.26 0.56,-6.893 1.03,-10.17l-11.193,-0.614l0,0zm12.43,0.683c0.055,0.416 0.048,0.87 0.095,1.302c0.007,-0.01 0.014,-0.019 0.022,-0.028l0.014,-0.013c0.41,-0.355 0.781,-0.811 1.173,-1.205c-0.43,-0.009 -0.87,-0.033 -1.304,-0.056zm-16.974,-84.366c-2.075,4.943 -4.416,9.75 -7.042,14.432l0.107,1.106c0.695,7.249 1.217,14.506 0.04,21.741l-0.11,0.621c-1.814,10.138 -4.076,20.694 0.325,30.506l0.2,0.514c1.572,4.029 3.227,8.026 3.652,12.353c7.152,0.511 14.327,1.225 21.488,1.476c1.852,0.315 2.753,-0.743 2.918,-2.482c5.587,-23.406 10.488,-46.974 16.542,-70.264l0.063,-0.119c0.657,-1.255 1.149,-2.699 -0.071,-3.138c-2.3,-0.401 -4.556,2.058 -6.741,2.686c-11.727,4.623 -20.609,-7.656 -31.371,-9.432zm-0.277,9.533c7.121,10.535 3.246,26.538 2.428,39.05c-0.605,4.607 0.106,9.327 -0.377,13.91c-0.066,0.358 -0.632,0.425 -0.789,0.102c-1.678,-4.221 -0.989,-9.076 -0.842,-13.518c1.047,-13.138 4.014,-26.701 -0.42,-39.544zm20.818,-144.282c-0.027,-0.172 -0.268,-0.11 -0.283,0.038c-0.077,31.6 -2.062,63.107 -5.203,94.549c-0.044,0.681 1.072,0.842 1.203,0.162c2.259,-11.677 3.171,-23.576 3.936,-35.435l0.086,-1.342c0.995,-15.929 1.31,-31.9 0.883,-47.855c-0.093,-3.352 -0.107,-6.798 -0.622,-10.117zm64.577,-46.024c-0.276,0.327 -0.578,0.524 -0.886,0.624c0.002,7.384 -1.488,14.65 -5.573,21.046c-1.794,2.371 -2.758,5.109 -3.618,7.926c0.247,0.765 -0.063,1.644 -0.64,2.085c-3.776,11.474 -4.165,23.762 -2.772,35.681c4.247,-6.227 5.931,-13.662 7.119,-20.99c0.064,-0.368 0.673,-0.363 0.74,0c1.409,7.838 -0.979,15.662 -4.062,22.822c-1.711,1.447 -1.343,4.725 -1.543,6.775c31.301,4.555 20.415,-55.54 24.425,-74.048c0.074,-0.512 0.507,-0.88 0.998,-1.038c-4.695,-0.714 -9.451,-0.768 -14.188,-0.883zm-126.64,-217.186l-0.542,0.137c-5.712,1.426 -7.225,1.459 -7.589,8.173c-1.421,9.473 -6.669,17.746 -9.028,26.908c-0.944,3.236 0.052,9.199 4.528,8.328c1.45,-0.445 2.58,1.507 1.483,2.545c-3.24,3.063 -6.385,6.223 -9.549,9.365c12.703,42.88 29.206,84.647 49.306,124.606c0.797,1.584 -1.593,2.98 -2.384,1.392c-19.986,-40.088 -36.605,-81.842 -49.504,-124.732l-0.39,-1.3c-0.569,-1.578 6.714,-7.237 8.041,-9.085c-13.282,-6.396 5.215,-28.796 5.756,-39.562c-3.847,1.504 -8.111,0.989 -12.126,1.645c-7.716,1.349 -14.487,5.813 -20.506,10.62c-24.4473,21.592 -40.0734,51.485 -55.7024,79.659c-10.6445,18.389 -15.7747,40.858 -5.094,60.414c12.3925,25.071 26.7732,49.239 41.9704,72.7c1.672,2.168 4.237,-0.324 5.996,-1.239c10.11,-6.074 18.876,-14.34 25.618,-24.006c-17.678,-22.163 -34.123,-46.38 -43.2873,-73.347c-0.7321,-6.561 8.4634,-14.16 11.8193,-19.862c7.41,-10.223 14.332,-20.793 20.943,-31.543c-0.208,-1.063 0.231,-2.228 1.357,-2.198l0.655,-1.091c5.048,-8.392 5.61,-8.717 0.598,1.549c2.543,37.87 2.12,76.471 3.22,114.582c2.974,3.935 6.035,7.806 9.167,11.616c10.163,-7.002 22.117,-11.571 34.394,-12.985l0.63,-0.063c5.196,-0.531 13.984,-1.639 14.675,5.204c-0.927,8.376 -18.031,3.621 -23.561,8.373c9.02,3.633 19.359,4.661 27.641,10.142c2.657,1.546 7.864,6.491 2.776,8.379c-2.22,0.192 -4.512,-0.676 -6.731,-0.862c2.496,0.839 4.793,2.267 6.255,4.501c1.053,1.532 1.821,4.709 -0.694,5.367c-5.735,0.156 -11.445,-1.703 -17.093,-2.64l0.502,0.204c4.119,1.689 10.516,4.712 4.972,9.181c-5.552,2.871 -12.273,-2.016 -17.802,-3.323c-14.901,-3.459 -25.909,6.033 -41.182,-4.248c-0.428,4.528 -1.799,9.187 -1.378,13.721c3.674,3.434 15.106,3.32 20.221,3.774l-0.006,-0.175c-0.074,-2.783 0.667,-2.499 0.807,0.208c12.948,0.397 25.925,0.156 38.846,-0.773c5.545,-0.409 11.08,-0.961 16.594,-1.678l1.034,-0.136c2.833,-0.378 5.794,-0.629 8.576,-1.305c2.846,-0.381 2.849,-3.419 2.548,-5.649c-3.907,-82.46 -37.402,-159.996 -46.78,-241.491zm52.646,6.811c0.658,0.977 1.388,1.911 2.177,2.794c1.214,-1.879 4.17,-2.943 5.011,-0.138c0.947,2.882 2.3,5.843 2.34,8.898c19.36,63.153 19.852,130.307 19.475,195.814c0.579,10.392 -2.641,20.561 -2.343,30.897c10.604,1.525 21.363,1.655 32.011,0.527c0.315,-0.827 0.671,-1.643 1.074,-2.441c15.938,-19.442 7.489,-43.812 -0.188,-64.873c-4.641,0.192 -9.31,-0.097 -13.955,-0.044c1.434,4.446 1.806,9.148 2.569,13.744c0.52,3.276 1.184,6.526 1.947,9.753l0.204,0.86c0.288,1.19 0.669,2.474 0.252,3.654c-0.41,1.164 -1.824,1.635 -2.762,0.729c-1.689,-1.928 -1.508,-4.801 -2.054,-7.195l-0.101,-0.752c-0.93,-6.861 -2.155,-13.99 -0.455,-20.793c-1.67,-0.363 -6.231,0.959 -6.471,-1.287c0.071,-3.706 -2.617,-11.743 0.375,-14.186c1.78,-1.359 4.841,-0.929 6.929,-1.013c2.413,-0.098 4.823,-0.187 7.233,-0.172c-19.371,-46.839 -13.983,-61.262 -12.018,-107.879l0.059,-1.422c-0.005,-0.305 0.489,-0.382 0.543,-0.072c2.962,19.094 -0.986,38.429 0.884,57.581c3.322,36.398 26.368,67.644 30.223,103.865c8.311,-0.962 16.716,0.217 24.772,2.308c0.169,-1.471 0.299,-2.948 0.392,-4.427c1.528,-27.032 -7.951,-53.293 -19.014,-77.537c-6.629,-12.877 -10.727,-26.609 -12.441,-40.974c-3.331,-18.707 -10.803,-36.332 -18.252,-53.707c-4.707,-12.998 -14.887,-16.061 -27.51,-17.571c4.258,7.062 8.489,14.139 12.713,21.221c0.944,2.14 -1.945,3.673 -3.207,4.989c15.506,8.466 6.452,34.589 6.773,49.235c-1.151,13.45 -1.585,26.987 -3.614,40.345c-0.149,0.924 -1.568,0.655 -1.581,-0.215c0.187,-20.018 2.573,-39.959 3.619,-59.943l0.128,-1.457c0.816,-9.462 1.613,-23.113 -9.756,-25.711c-1.534,-0.248 -1.652,-2.531 -0.42,-3.216c1.639,-0.914 3.076,-2.032 4.362,-3.357c-6.487,-10.427 -12.145,-21.404 -18.971,-31.6l-0.285,-0.363c-4.556,-5.772 -4.239,-3.685 -10.667,-4.869zm-31.334,191.111c-1.261,-3.696 -13.425,-1.286 -16.678,-0.887c-11.983,2.267 -24.043,7.573 -33.169,15.745c-0.564,0.504 -1.229,0.496 -1.755,0.222c-4.091,5.225 -8.807,9.96 -13.986,14.123c0.948,0.745 1.922,1.471 2.923,2.162c0.479,0.051 0.912,0.3 1.107,0.747c14.244,10.324 24.725,2.27 39.521,4.133c5.525,1.112 10.613,4.629 16.306,4.776c4.178,-0.95 0.499,-2.698 -1.452,-3.375c-5.597,-2.673 -11.332,-5.045 -17.049,-7.447c-1.775,-0.745 -1.165,-3.429 0.817,-2.961c3.471,0.819 6.952,1.599 10.435,2.362c6.699,1.371 13.558,3.125 20.329,3.787c-1.504,-4.183 -17.475,-8.708 -22.114,-10.367c-1.755,-0.834 -6.755,-0.67 -6.183,-3.393c0.461,-2.527 5.785,0.367 7.556,0.576c7.243,1.834 14.634,2.954 22.013,4.07c-7.927,-7.954 -20.212,-8.645 -30.335,-12.368l-0.335,-0.077c-1.774,-0.421 -4.144,-1.2 -2.791,-3.181l0.045,-0.065c5.206,-7.677 25.662,-3.785 24.795,-8.582zm-14.978,-42.721c3.69,-3.04 5.671,3.197 5.435,6.089c0.175,2.4 0.362,4.803 0.518,7.205c-0.229,1.881 1.772,8.727 -0.904,8.788c-11.697,-0.589 -23.374,-0.448 -35.075,-1.146c-0.015,2.359 -0.131,4.718 -0.01,7.085c-0.063,2.954 0.963,5.911 0.364,8.829c-0.366,1.346 -2.193,1.525 -2.906,0.379c-2.138,-5.031 -0.667,-11.52 0.846,-16.61c-8.838,-2.247 -4.579,-9.368 -4.577,-15.589c-0.013,-0.164 0.151,-0.248 0.284,-0.217c2.191,3.061 -0.662,7.147 0.589,10.477c1.294,3.639 6.784,3.305 9.887,3.365l0.093,0.002c9.661,0.167 19.315,0.565 28.976,0.752c-0.413,-3.255 -0.525,-6.588 -0.774,-9.843c-0.313,-2.335 0.139,-5.108 -1.05,-7.202c-5.372,1.744 -10.965,2.442 -16.612,2.331c-6.731,0.182 -13.81,0.79 -20.389,-0.016c9.435,-1.456 19.858,-1.245 29.472,-3.093c1.911,-0.495 3.861,-1.497 5.833,-1.586zm-46.439,-70.256c-5.821,11.109 -12.511,21.686 -19.639,31.981c-1.527,2.2 -3.094,4.37 -4.6875,6.524l-0.2948,0.377c-3.1829,4.045 -6.4888,7.401 -3.4811,12.769c7.8824,19.15 18.4314,37.136 30.6554,53.828l-0.209,-9.59c-0.693,-31.966 -1.349,-63.933 -2.344,-95.889zm146.235,77.205c-14.61,3.068 -14.889,-2.676 -12.449,13.568c5.862,0.039 11.72,-0.093 17.583,0.002c-1.676,-4.536 -3.412,-9.052 -5.134,-13.57zm-43.868,-138.911c-3.296,5.667 -8.77,9.306 -15.363,9.359c-11.568,0.664 -23.29,-0.098 -34.563,-2.84c-1.657,-0.417 -3.637,-0.775 -5.164,-1.681c8.692,47.135 22.763,93.055 32.66,139.919l0.325,1.545l0.269,-0.053c6.737,-1.196 14.066,-0.699 20.994,-1.124c5.557,-0.08 11.171,0.515 16.69,-0.312l-0.172,-5.825c-1.392,-46.625 -3.334,-93.808 -15.676,-138.988zm-4.833,-13.473c-0.612,-0.009 -1.548,0.356 -2.172,0.312c1.271,1.359 2.677,2.584 4.157,3.651c-0.677,-1.269 -1.206,-2.791 -1.985,-3.963z" clip-rule="evenodd" fill-rule="evenodd"/>
  <path id="svg_3" fill="white" d="m192.813845,69.616845c-0.102,-5.731 -0.215,-11.577 -1.068,-17.253c-0.834,-5.5491 -3.128,-10.5647 -7.071,-14.5941c-8.374,-8.5589 -20.513,-10.6495 -31.812,-12.5653l-19.319,-3.2756c-5.894,-0.9991 -12.181,-2.5961 -18.136,-1.1792c-2.934,0.6982 -5.426,2.3203 -7.704,4.2394c-2.195,1.8498 -4.555,3.8362 -6.042,6.3248c-1.49,2.4923 -2.003,5.4056 -2.487,8.2243c-0.547,3.1779 -0.971,6.3806 -1.273,9.591c-0.604,6.4317 -0.686,12.9127 -0.248,19.3577c0.212,3.126 0.55,6.244 0.981,9.347c0.214,1.539 0.456,3.074 0.729,4.604c0.081,0.451 0.142,0.95 0.224,1.455c-0.609,1.731 -0.955,3.524 -0.927,5.309c0.082,5.258 4.525,8.568 9.005,10.346c2.597,1.03 5.313,1.731 7.865,2.882c2.684,1.211 4.512,3.174 6.347,5.413c3.501,4.272 7.452,8.11 11.963,11.313c9.564,6.791 21.678,10.002 33.282,7.564c2.784,-0.584 5.593,-1.493 8.096,-2.861c2.643,-1.445 4.63,-3.539 6.298,-6.014c3.098,-4.595 5.32,-9.77 7.001,-15.035c1.714,-5.372 2.931,-10.753 3.595,-16.354c0.661,-5.582 0.801,-11.222 0.701,-16.839l0,0z" clip-rule="evenodd" fill-rule="evenodd"/>
  <path id="svg_4" fill="black" d="m131.165845,1.963145c7.994,-1.0984 19.028,2.4715 23.01,9.6695c19.008,-4.4758 42.981,-4.6224 58.648,10.2775c16.347,17.6746 -4.186,40.9787 -17.801,46.2327c0.991,4.812 -0.554,35.638 -11.491,49.388c-8.679,11.65 -28.891,17.027 -38.244,3.112l-0.073,-0.115c-1.002,-1.607 -0.139,-1.556 0.89,-0.36c9.158,8.044 21.61,8.181 31.206,-0.308c17.984,-15.517 16.129,-53.565 7.572,-75.5757c-24.368,-2.6731 -50.457,4.7038 -67.288,23.0247l1.138,6.844c0.194,1.166 0.415,2.33 0.583,3.5c0.107,0.75 0.119,1.496 -0.401,2.103c-1.717,2.003 -4.61,-1.008 -6.991,-2.205c-0.703,-0.099 -1.407,-0.137 -2.098,-0.088c-11.439,1.472 -9.185,23.636 3.387,19.751c1.057,-0.658 1.964,-0.457 2.374,0.497c2.997,2.741 4.973,7.631 9.951,12.341c1.757,1.767 3.356,3.245 5.332,4.662c1.16,1.172 4.662,2.367 3.552,4.373c-2.099,4.565 -14.479,-9.774 -16.668,-13.739c-6.858,2.705 -14.458,1.786 -21.565,1.125c-37.492,-1.947 -32.487,-41.422 -1.755,-66.3447c5.784,-4.2537 12.167,-7.7238 18.801,-10.3941c0.906,-0.3646 0.51,-1.8501 -0.408,-1.4804c-4.39,1.7672 -8.669,3.8705 -12.749,6.3049l-0.006,-1.4554c-0.006,-2.4514 0.032,-5.0035 0.459,-7.2432c0.213,-1.552 0.571,-3.2096 1.123,-4.4566c0.682,-3.8232 11.367,-16.9462 29.512,-19.4402zm-21.84,80.5877c0.578,-0.549 1.659,0.106 2.174,0.09c1.318,0.18 2.57,0.736 3.547,1.422c0.645,0.361 1.096,0.699 1.474,1.011l0.01,-0.003c-0.003,0 -0.006,0.003 -0.009,0.004l0.035,0.024c0.55,0.39 2.563,2.587 1.291,1.997c-0.095,-0.124 -0.192,-0.242 -0.29,-0.358c-0.01,0.016 -0.025,0.032 -0.042,0.047l0.071,0.106c1.081,1.624 -0.785,-0.087 -1.072,-0.542c-0.013,0.011 -0.029,0.019 -0.044,0.027l0.374,0.454c0.052,0.065 0.093,0.116 0.127,0.16l0.079,0.076c1.25,1.227 1.289,2.331 -0.163,0.517c0.057,0.085 0.103,0.176 0.109,0.256l0.086,0.11c1.14,1.467 0.213,0.946 -0.353,0.319l-0.048,-0.054l0.01,0.015c0.527,0.811 -0.518,0.242 -0.703,-0.192l-0.008,-0.019c-0.201,-0.164 -0.325,-0.349 -0.368,-0.395l-0.007,-0.008c-0.981,-1.003 -2.401,-1.851 -3.608,-2.237c-0.175,-0.033 -0.352,-0.06 -0.531,-0.079c-0.725,-0.162 -1.459,-0.272 -2.2,-0.332c-0.091,-0.011 -0.183,-0.077 -0.251,-0.163c-1.121,-0.038 -0.775,-0.497 -0.31,-0.582l0.008,-0.002l-0.092,-0.007c-0.72,-0.071 -1.211,-0.328 -0.484,-0.487l0.092,-0.018c-0.011,-0.018 -0.021,-0.035 -0.031,-0.053c-0.622,-0.068 -0.216,-0.673 0.13,-0.527c-0.146,-0.475 0.519,-0.238 0.602,-0.308c0.064,-0.07 0.142,-0.132 0.188,-0.136c0.2,-0.141 0.103,-0.128 0.207,-0.133zm3.812,-7.692l-0.146,0.085c-0.118,0.069 -0.24,0.115 -0.362,0.142c0.172,0.073 0.342,0.152 0.511,0.236c-0.003,-0.103 -0.005,-0.206 -0.005,-0.309l0.002,-0.154z" clip-rule="evenodd" fill-rule="evenodd"/>
  <path id="svg_5" fill="black" d="m173.003845,102.562845l0.177,-0.04c1.415,-0.334 2.777,-0.787 4.095,0.089c1.256,0.834 1.43,2.377 0.452,3.503c-1.006,1.158 -2.342,1.093 -3.752,1.109l-0.088,0.001c-1.171,0.016 -2.361,-0.001 -3.528,-0.105c-1.087,-0.097 -2.181,-0.251 -3.256,-0.454l-0.636,-0.125c-0.649,-0.131 -1.289,-0.302 -1.623,-0.929c-0.584,-1.095 3.753,-1.953 4.28,-2.103c1.279,-0.365 2.582,-0.652 3.879,-0.946zm2.406,-13.194c-0.692,0.716 -1.605,1.206 -2.63,1.51c-2.577,0.765 -5.864,0.358 -7.968,-0.422c-0.437,-0.162 -0.845,-0.492 -1.079,-0.904c-0.214,-0.376 -0.287,-0.819 -0.124,-1.271c0.047,-0.128 0.103,-0.254 0.16,-0.378c0.154,-0.338 0.469,-0.6 0.838,-0.751c0.384,-0.155 0.82,-0.187 1.17,-0.077c0.047,0.014 0.096,0.03 0.145,0.045c1.333,0.42 3.52,1.115 5.332,0.98c1.087,-0.08 2.043,-0.464 2.538,-1.458c0.26,-0.524 0.188,-1.042 -0.043,-1.516c-0.349,-0.716 -1.047,-1.338 -1.635,-1.767c-0.829,-0.605 -1.713,-0.846 -2.628,-1.101c-0.345,-0.096 -0.694,-0.193 -1.046,-0.31c-0.116,-0.038 -0.218,-0.113 -0.294,-0.211c-0.075,-0.097 -0.125,-0.215 -0.14,-0.333c-0.016,-0.123 0.003,-0.245 0.06,-0.35c0.053,-0.098 0.137,-0.184 0.263,-0.24c1.79,-0.801 4.104,-0.272 5.851,0.988c0.873,0.63 1.602,1.439 2.05,2.343c0.417,0.838 0.594,1.759 0.431,2.697c-0.183,1.051 -0.628,1.881 -1.251,2.526zm-29.329,-17.868c0.503,-0.222 0.916,0.814 1.019,1.097l0.214,0.586c0.35,0.945 0.75,1.905 1.484,2.607c0.615,0.587 1.6,1.084 2.312,0.397c0.677,-0.651 0.347,-1.385 0.447,-2.185c0.18,-1.446 2.154,-2.891 3.341,-1.382c2.681,3.409 -1.468,8.151 -5.289,7.319c-1.943,-0.423 -3.508,-1.98 -4.15,-3.83l-0.033,-0.098c-0.385,-1.173 -0.774,-3.882 0.655,-4.511zm34.601,2.374l-0.018,-0.043c-1.277,-2.902 3.278,-4.149 3.665,-1.543l0.024,0.176c0.376,2.892 -0.416,6.781 -3.962,7.069c-3.981,0.324 -5.639,-4.112 -5.284,-7.368c0.064,-0.583 0.772,-0.663 0.991,-0.134l0.046,0.116c0.643,1.636 1.254,4.783 3.518,4.779c1.514,-0.002 1.441,-2.042 1.02,-3.052l0,0zm2.889,-8.399c2.288,-0.081 2.285,3.496 0,3.55c-7.634,0.179 -15.274,0.417 -22.91,0.458l-1.388,0.009c-7.172,0.048 -14.37,0.146 -21.521,-0.456c-0.611,-0.051 -0.497,-0.907 0.013,-0.872c7.498,-1.066 15.087,-1.378 22.642,-1.783c7.714,-0.414 15.443,-0.633 23.164,-0.906z" clip-rule="evenodd" fill-rule="evenodd"/>
 </g>
</svg>