<svg width="347" height="518" xmlns="http://www.w3.org/2000/svg">

 <g>
  <title>background</title>
  <rect fill="none" id="canvas_background" height="520" width="349" y="-1" x="-1"/>
 </g>
 <g>
  <title>Layer 1</title>
  <g id="svg_13">
   <path id="svg_1" fill="white" d="m190.154554,329.958828c0.587,6.116 -0.613,11.956 -3.47,16.893l-0.93,1.606l1.769,0.619c3.221,1.125 6.803,1.672 10.95,1.672c4.269,0 8.707,-0.594 12.274,-1.071l2.283,-0.306l-1.121,-1.981c-0.902,-1.592 -1.069,-3.522 -1.246,-5.565c-0.048,-0.549 -0.097,-1.116 -0.161,-1.678c-3.38,-30.174 -7.651,-60.742 -11.782,-90.304c-1.088,-7.779 -2.212,-15.823 -3.302,-23.735l-3.128,0.12c-0.842,14.646 -1.658,29.539 -2.448,43.942c-0.347,6.334 -0.695,12.667 -1.045,19c-1.248,16.011 -0.817,28.975 1.357,40.788m1.276,180.944c-4.594,0 -9.196,-0.478 -13.679,-1.42c-14.03,-2.942 -26.776,-9.883 -37.621,-16.157c-0.554,-0.314 -1.116,-0.628 -1.693,-0.95c-4.246,-2.373 -9.53,-5.326 -12.841,-8.928c-3.633,-3.951 -4.258,-7.889 -1.968,-12.391l0.363,-0.713l-0.379,-0.704c-2.372,-4.41 -2.195,-9.867 0.429,-13.269l2.206,-2.858l-3.627,0.384c-3.656,0.388 -7.341,0.913 -10.906,1.421c-3.954,0.563 -8.043,1.146 -12.071,1.536l-1.119,0.108l-0.258,1.078c-0.143,0.599 -0.32,0.964 -1.562,0.964c-1.078,0 -2.526,-0.316 -4.058,-0.649c-1.902,-0.414 -4.058,-0.883 -6.136,-0.883c-0.915,0 -1.737,0.087 -2.515,0.266l-0.452,0.104l-0.323,0.33c-0.206,0.211 -0.556,0.341 -0.914,0.341c-0.271,0 -0.523,-0.075 -0.691,-0.206l-0.508,-0.397l-0.644,0.071c-11.2279,1.231 -20.9095,3.393 -29.5971,6.606l-0.0393,0.015l-0.1884,0.081c-3.1415,1.355 -6.3893,2.755 -9.3473,2.755c-2.1623,0 -3.9182,-0.735 -5.5262,-2.312l-0.4545,-0.446l-0.641,-0.006c-6.504,-0.06 -9.4759,-7.636 -9.8868,-12.714l-0.0516,-0.639l-0.4959,-0.416c-11.335,-9.502 -18.0267,-22.553 -20.4582,-39.897c-2.2145,-15.799 -0.5141,-32.457 1.4412,-46.668c4.523,-36.828 9.2405,-69.843 21.2323,-101.155l0.5603,-1.464l-1.493,-0.536c-5.1793,-1.859 -9.1376,-4.077 -12.1013,-6.781l-0.2052,-0.187l-0.2584,-0.106c-4.2476,-1.744 -6.328,-8.179 -6.8644,-10.109l-0.043,-0.156l-0.0749,-0.144c-0.8667,-1.66 -1.0667,-3.97 -0.5483,-6.338l0.0556,-0.255l-0.0323,-0.259c-0.2799,-2.248 0.6492,-4.598 1.6327,-7.086c0.4495,-1.137 0.9139,-2.311 1.2532,-3.482c1.1668,-3.344 2.3322,-6.747 3.4596,-10.039c2.5295,-7.385 5.1447,-15.022 7.9308,-22.451l0.381,-1.015l-0.8394,-0.701c-1.433,-1.195 -0.9545,-2.603 1.112,-5.968c0.4882,-0.795 0.95,-1.547 1.3011,-2.288c2.6488,-4.572 5.4875,-8.961 8.4389,-13.047l0.0608,-0.084l0.0485,-0.09c15.1448,-28.255 42.0087,-43.816 75.6425,-43.816l0.686,0.002l0.379,-0.228c6.304,-3.787 10.804,-10.284 13.757,-19.863l0.094,-0.306l-0.036,-0.317c-0.101,-0.883 -0.212,-2.04 -0.174,-3.164c0.096,-2.844 1.212,-5.383 3.062,-6.964c3.509,-3.001 8.837,-3.252 13.993,-3.252l0.741,0.001c6.592,0.019 11.246,1.162 14.647,3.599c3.951,2.831 6.134,7.401 6.675,13.97c0.162,1.966 0.156,4.003 0.152,5.972l-0.002,0.55l0.067,0.218c0.473,1.561 1.028,3.062 1.649,4.46l0.638,1.438l1.452,-0.649c0.939,-0.419 2.13,-0.634 3.64,-0.659c0.436,-0.01 0.86,-0.014 1.289,-0.014c3.507,0 7.259,0.32 10.888,0.629c2.734,0.233 5.561,0.474 8.297,0.581l0.038,0.002c0,0 0.378,-0.003 0.547,-0.003c6.651,0 11.473,1.045 15.174,3.289c3.984,2.415 6.85,6.292 9.016,12.2c11.621,33.866 16.398,70.343 20.612,102.525c2.391,16.83 3.118,34.083 3.821,50.768c0.742,17.611 1.51,35.822 4.227,53.624l0.215,1.407l1.443,-0.093c6.35,-0.409 13.212,-1.291 20.477,-2.225c11.038,-1.418 22.453,-2.885 33.487,-2.885c15.428,0 27.126,3.033 35.756,9.27c6.016,5.663 9.129,13.331 9.001,22.181c-0.181,12.504 -6.801,26.328 -16.867,35.218l-0.038,0.035c-12.722,12.006 -35.946,22.42 -69.025,30.952c-30.419,7.845 -61.883,12.109 -77.931,13.952l-3.972,0.456l3.224,2.328c1.305,0.943 2.496,1.773 3.64,2.537l0.738,0.493l0.809,-0.37c2.306,-1.056 3.771,-1.278 4.594,-1.278c0.73,0 1.612,0.158 1.66,0.913c0.032,0.495 -0.32,1.229 -1.064,1.322l-3.948,0.492l3.224,2.296c2.153,1.534 5.365,3.383 9.085,5.524c12.171,7.005 30.563,17.591 27.399,26.887l-0.207,0.611l0.294,0.576c0.85,1.664 0.922,3.209 0.221,4.723c-1.502,3.244 -6.199,5.706 -10.189,6.708l-0.068,0.017l-0.067,0.024c-6.942,2.416 -14.228,3.64 -21.657,3.64" clip-rule="evenodd" fill-rule="evenodd"/>
   <path id="svg_2" fill="black" d="m178.075554,451.182828c0.479,-0.488 0.681,-1.127 0.233,-1.877c-1.732,-2.211 -5.326,-0.699 -7.561,-0.189c-0.844,-0.701 -1.682,-1.405 -2.489,-2.148c0.28,-1.738 -1.811,-2.893 -2.671,-4.234c-0.844,-0.988 -1.638,-2.109 -2.65,-2.937c-2.465,-1.922 -5.883,-0.622 -8.745,-0.709c-2.204,-2.801 -4.473,-5.514 -6.57,-8.407c2.417,-4.056 2.587,-8.809 1.785,-13.33c37.064,-14.049 69.147,-40.649 109.233,-46.796c1.379,-0.23 2.152,-1.904 1.808,-3.131c-2.796,-6.666 -42.979,10.534 -48.986,13.649c-17.716,8.474 -34.31,19.037 -51.528,28.356c-3.59,1.906 -7.539,2.93 -11.465,3.92c-6.033,-19.779 -16.238,-37.91 -24.063,-56.98c0.508,-0.879 0.94,-1.803 1.307,-2.752c-0.259,10.488 9.951,10.341 11.361,0.392c-0.582,5.186 3.344,16.293 9.01,9.005c1.329,-1.831 1.8,-4.175 2.025,-6.539c0.292,1.635 0.622,3.262 0.989,4.884c1.454,3.213 5.425,-0.694 6.347,-2.37c0.532,-0.096 1.03,-0.338 1.394,-0.634c10.019,1.389 21.82,1.31 29.171,-6.592c12.469,4.779 26.27,0.498 38.881,-1.41c25.662,-2.948 51.426,-7.44 77.318,-7.097c11.56,0.67 25.198,2.535 32.51,12.388c9.379,14.204 4.078,33.387 -6.269,45.683c-24.889,31.479 -110.321,45.167 -150.375,49.855m0.699,11.339c0.453,-0.121 0.91,-0.232 1.363,-0.338c7.265,6.042 41.478,21.731 38.875,31.102c-0.919,1.166 -3.121,1.431 -4.513,1.808c-2.424,0.655 -4.872,1.223 -7.343,1.671c-7.988,1.452 -16.261,1.705 -24.239,0.049c-2.935,-0.446 -5.584,-1.697 -8.257,-2.906c-8.638,-3.796 -18.151,-7.989 -26.747,-11.754c-10.921,-4.325 -30.075,-12.848 -22.197,-27.229c7.463,8.386 16.937,7.653 21.71,-2.77c1.645,-3.164 3.081,-7.429 6.947,-8.708c2.039,-1.377 4.646,-1.663 6.35,-0.129c0.123,-0.191 0.233,-0.459 0.293,-0.696c1.921,2.731 3.578,5.606 5.829,8.102c-0.773,0.041 -8.819,5.99 -6.444,5.993c2.856,-1.47 5.694,-2.695 8.779,-3.487c2.235,2.246 4.694,4.336 7.241,6.267c-2.474,1.632 -4.696,3.631 -6.484,5.799c-0.154,0.191 0.034,0.439 0.265,0.336c2.775,-1.236 5.629,-2.321 8.572,-3.11m36.827,40.522c-27.788,12.469 -57.205,-1.415 -80.902,-16.217c-5.469,-3.051 -12.663,-7.375 -11.557,-14.557c4.028,5.887 10.669,9.239 17.043,12.146c10.708,4.835 21.487,9.515 32.221,14.291c1.014,3.36 5.862,3.489 8.793,4.235c13.043,2.527 27.064,1.271 39.339,-3.768c-0.711,2.102 -3.035,3.066 -4.937,3.87m-110.866,-48.55c-0.686,0.088 -1.373,0.168 -2.059,0.245c0.071,-0.907 -0.477,-1.815 -1.358,-2.096c0.396,-1.924 0.543,-3.912 0.331,-5.864c1.147,2.963 4.853,2.063 7.206,1.209c3.363,-0.913 6.704,-1.895 10.027,-2.943c1.311,2.433 2.7,4.828 4.406,7.03c-6.212,0.552 -12.365,1.648 -18.553,2.419m-2.734,-9.32c-0.165,0.349 -0.401,0.717 -0.406,1.135c-0.168,-1.441 -0.495,-2.865 -0.993,-4.229c0.466,1.032 0.933,2.063 1.399,3.094m-3.92,-7.728c-3.056,-3.979 -8.703,-7.231 -13.924,-6.122c-0.335,0.072 -0.343,0.611 0,0.678c7.013,0.952 13.172,6.509 13.415,13.694c0.554,3.251 -1.711,6.444 -0.948,9.564c-0.152,0.01 -0.304,0.018 -0.453,0.029c-0.055,0.208 -0.105,0.394 -0.171,0.557c0.758,0.126 0.98,1.343 0.087,1.56c-0.53,0.129 -1.083,0.196 -1.646,0.224c-2.859,-0.771 -5.876,-0.949 -8.609,-2.089c-2.705,-1.194 -2.028,-4.549 -2.982,-6.872c-0.7,-2.68 -1.505,-5.349 -2.519,-7.92c-0.073,-0.206 -0.354,-0.159 -0.377,0.049c-0.716,5.13 -0.692,10.346 -0.519,15.517c-0.938,0.095 -1.871,0.201 -2.807,0.317c0.06,-1.444 -4.2768,-19.039 -6.5621,-14.524c1.1505,4.965 1.2894,10.15 1.4126,15.259c-6.785,1.117 -13.4704,2.78 -19.975,5.044c-4.5836,1.387 -10.0349,5.493 -14.4846,1.782c-3.4462,-2.847 -4.6071,-7.814 -4.2822,-12.04c4.4814,-25.006 39.8765,-27.928 60.7713,-26.079c1.973,4.549 3.983,9.082 6.02,13.605c-0.422,-0.779 -0.904,-1.526 -1.447,-2.233m-71.2638,14.22c-0.3826,-5.679 0.5739,-12.748 4.7854,-16.979c9.6389,-8.141 23.1355,-10.702 35.1802,-13.649c5.6107,-1.107 11.2982,-1.842 17.0082,-2.208c2.026,-0.16 4.599,0.299 6.03,-1.356c0.737,1.743 1.483,3.484 2.231,5.224c-23.9798,-3.138 -74.0089,7.765 -59.9986,40.579c-2.9669,-3.21 -4.9324,-7.119 -5.2362,-11.611m119.1328,-18.771c1.104,2.754 2.453,5.376 4.217,7.774c-2.005,1.311 -3.64,3.247 -4.793,5.328c-7.39,19.315 -15.294,8.969 -25.114,-1.395c8.31,-3.133 19.317,-5.48 25.69,-11.707m-123.0125,14.84c-19.2176,-18.964 -22.9469,-50.556 -15.8474,-75.39c0.6316,-9.208 3.8551,-17.984 6.7431,-26.703c9.196,-26.447 21.2905,-51.892 35.796,-75.916c17.9963,4.939 35.9608,10.008 53.9998,14.784c2.484,0.539 4.971,1.604 7.521,1.759c0.912,0.58 1.827,1.22 2.775,1.782c-1.381,6.759 -0.107,13.66 0.215,20.46c0.294,5.353 -0.285,10.596 -0.996,15.893c-0.794,7.705 -4.062,32.768 2.487,37.356c2.22,1.07 4.204,-2.1 5.161,-1.228c0.862,-0.601 1.666,-1.382 2.322,-2.243c2.528,8.169 6.661,15.748 9.214,23.925c3.396,12.017 14.55,31.469 12.073,42.931c-1.915,7.079 -10.296,8.605 -16.345,10.919c-6.989,2.429 -14.057,4.659 -21.241,6.47c-3.506,-7.435 -6.858,-14.939 -10.147,-22.472c-15.032,-34.753 -28.3454,-70.232 -40.2433,-106.133c-0.2228,-0.797 -2.9588,-9.431 -3.4593,-7.022c-0.042,-0.248 -0.3538,-0.887 -0.4718,-0.341c2.018,8.43 4.0645,16.858 6.2792,25.241c-5.4405,-0.76 -11.2899,-1.057 -16.2692,1.607c-0.2569,0.137 -0.0682,0.474 0.1858,0.433c5.8965,-1.021 11.5837,0.908 17.247,2.293c7.9538,27.046 18.2166,53.405 29.0796,79.436c-3.36,-1.071 -7.26,0.113 -10.766,0.198c-11.0438,1.14 -21.9616,3.554 -32.3946,7.308c-13.1139,4.248 -22.3859,9.787 -22.9179,24.653m-10.5802,-197.365c-3.2284,-3.474 -5.7655,-7.909 -5.2751,-12.615c1.9393,-2.584 2.5813,-5.955 3.7109,-8.941c4.4158,-12.497 8.5146,-25.089 13.3209,-37.451c10.2234,3.141 20.2813,6.908 29.7685,11.857c1.7454,0.89 3.4724,1.813 5.1785,2.77c1.7873,1 3.7371,2.738 5.8809,2.241c-2.3429,3.313 -7.1676,6.761 -7.9827,10.59c-0.1756,1.213 0.684,2.337 2.0048,2.066c20.675,14.671 42.026,29.032 61.568,45.373c14.634,11.574 25.869,20.96 30.888,39.739c3.383,12.164 3.393,24.877 2.895,37.384c-0.097,2.432 -0.099,4.921 -0.296,7.368c0.294,1.831 -0.264,5.557 -2.324,5.624c0.047,0.444 0.194,0.854 0.427,1.215c-0.066,0.087 -0.134,0.17 -0.205,0.255c-0.102,-0.5 -0.201,-0.998 -0.296,-1.498c-1.604,-7.097 -1.818,-15.331 -1.551,-22.887c0.112,-2.166 -3.213,-2.114 -3.399,0c-0.501,5.712 -1.001,11.424 -1.502,17.133c-0.6,3.701 0.346,8.541 -2.615,11.355c-3.011,-2.78 -2.016,-8.263 -1.869,-11.85c0.236,-5.851 0.49,-11.699 0.708,-17.551c0.068,-1.854 -3.006,-2.331 -3.355,-0.446c-0.988,5.374 -2.057,10.733 -3.208,16.076c-0.694,2.066 -1.171,11.334 -4.641,9.725c-2.067,-1.411 -0.576,-9.681 -0.849,-12.42c0.129,-5.42 0.204,-10.833 0.603,-16.241c0.162,-2.181 -3.394,-2.645 -3.881,-0.515c-0.792,3.447 -1.549,6.895 -2.236,10.366c-1.507,5.851 -0.959,13.784 -6.399,17.672c-2.131,-15.199 0.935,-30.292 1.365,-45.437c-0.257,-4.908 -1.101,-9.766 -1.845,-14.614c-0.823,-5.361 -1.303,-11.197 0.624,-16.367c-0.527,-2.316 -2.597,3.948 -2.791,4.469c-1.56,-3.069 -5.357,-3.306 -8.36,-4.263c-6.675,-2.159 -13.513,-3.786 -20.266,-5.704c-17.9103,-4.97 -35.8411,-9.862 -53.7769,-14.743c-7.165,-1.981 -14.7073,-4.325 -20.0198,-9.735m179.3477,80.847c-2.472,-13.382 -2.403,-26.94 -1.347,-40.469c1.161,-20.98 2.288,-41.966 3.493,-62.944c5.234,37.969 10.813,75.895 15.079,113.986c0.304,2.651 0.257,5.456 1.597,7.821c-7.401,0.99 -15.29,1.988 -22.486,-0.526c3.158,-5.454 4.272,-11.664 3.664,-17.868m37.395,-94.251c5.595,35.986 2.403,72.604 7.83,108.55c-7.529,0.843 -15.001,2.091 -22.451,3.463c0.815,-4.441 -0.731,-9.026 -0.999,-13.497c-4.046,-31.895 -8.514,-63.768 -14.434,-95.383c-1.453,-7.566 -2.92,-15.101 -4.602,-22.626c0.254,-4.557 0.477,-9.114 0.623,-13.673c8.216,-5.16 17.48,-8.5 27.062,-10.183c2.589,14.41 5.176,28.809 6.971,43.349m-64.771,-113.084c-0.327,-0.56 -0.639,-1.132 -0.938,-1.712c1.012,0.038 1.997,0.074 2.993,0.239c-0.045,1.602 0.045,3.216 0.063,4.83c-0.498,-1.181 -1.473,-2.259 -2.118,-3.357m168.988,225.515c-23.898,-17.36 -63.151,-6.3 -90.836,-4.515c-5.278,-34.574 -3.124,-69.712 -8.043,-104.342c-4.531,-34.597 -9.308,-69.676 -20.687,-102.823c-4.697,-12.817 -12.821,-16.623 -26.197,-16.52c-6.787,-0.265 -13.965,-1.351 -20.562,-1.196c-1.446,0.023 -2.959,0.214 -4.264,0.797c-1.834,-4.131 -2.83,-8.567 -3.333,-13.036c-0.032,-0.283 -0.393,-0.335 -0.501,-0.064c-1.551,3.891 -1.716,8.138 -0.873,12.213c0.611,2.919 4.246,14.407 8.468,9.912c0.335,9.426 -1.738,20.682 -10.981,25.574c-16.151,7.035 -38.477,0.629 -47.833,-14.302c-1.808,-2.983 -3.367,-6.158 -5.369,-9.023c13.95,-3.945 21.78,-20.643 18.494,-33.359c-2.031,9.89 -5.734,20.94 -14.956,26.479c-33.5823,-0.075 -61.5029,15.204 -77.2795,44.633c-3.0872,4.273 -5.9411,8.714 -8.5566,13.232c-1.4075,3.022 -5.5296,7.225 -2.031,10.145c-4.0411,10.774 -7.6262,21.697 -11.4157,32.556c-1.0407,3.618 -3.4203,7.414 -2.9457,11.218c-0.5137,2.344 -0.4901,5.116 0.6866,7.37c1.1164,4.018 3.6216,9.423 7.7756,11.127c3.5249,3.216 7.9827,5.431 12.6318,7.1c-12.3988,32.368 -17.1184,67.277 -21.3194,101.477c-4.1174,29.918 -6.2425,66.312 19.5556,87.935c0.5006,6.187 4.1745,14.07 11.4394,14.137c5.0315,4.935 11.1641,2.228 16.7646,-0.186c9.4528,-3.497 19.3669,-5.436 29.2183,-6.517c1.056,0.826 2.775,0.689 3.716,-0.273c5.967,-1.374 14.238,4.191 15.444,-0.851c7.694,-0.745 15.305,-2.143 22.991,-2.958c-3.239,4.199 -3.006,10.39 -0.566,14.926c-6.214,12.211 8.26,19.282 17.111,24.292c11.947,6.911 24.424,13.469 38.088,16.334c12.014,2.525 24.599,1.759 36.19,-2.274c6.09,-1.53 14.597,-6.55 10.983,-13.624c4.581,-13.461 -27.59,-27.409 -37.054,-34.151c3.868,-0.482 4.01,-8.502 -6.051,-3.893c-1.216,-0.813 -2.411,-1.651 -3.593,-2.504c40.694,-4.673 118.411,-17.528 147.862,-45.317c16.18,-14.289 25.515,-43.191 7.828,-59.729" clip-rule="evenodd" fill-rule="evenodd"/>
   <path id="svg_3" fill="white" d="m157.083554,118.203828c-5.687,0.033 -10.521,-1.579 -14.209,-4.246c-4.602,-1.64 -10.153,-4.169 -13.525,-6.824c-1.315,0.335 -2.889,-1.061 -3.895,-1.797c-6.258,-4.67 -11.17,-11.504 -12.626,-18.3502c-2.247,2.8342 -5.444,2.9512 -8.507,1.5432c-6.421,-3.6384 -6.181,-11.2993 -3.869,-17.023c-4.86,-10.8947 -8.228,-39.6557 -0.81,-51.2632c1.517,-1.7367 3.744,-2.7755 5.347,-4.5566c1.427,-1.5554 2.784,-3.1465 4.444,-4.3774c5.064,-3.8513 13.787,-5.9019 19.248,-6.8662c22.799,-4.925 40.316,3.9271 60.967,11.3939c-1.188,2.9697 -2.833,5.6779 -4.717,8.2031c5.127,1.9121 2.772,6.2112 -1.205,8.3905l-2.368,-1.1499c3.691,13.1959 12.186,46.011 8.521,56.5488c-2.923,16.441 -15.751,30.493 -32.796,30.374" clip-rule="evenodd" fill-rule="evenodd"/>
   <path id="svg_4" fill="black" d="m160.377554,119.619828c-7.384,0.757 -16.157,-0.987 -21.079,-6.981c-0.147,-0.179 -0.212,-0.382 -0.216,-0.578c-0.004,-0.218 0.069,-0.429 0.196,-0.593c0.133,-0.172 0.322,-0.293 0.54,-0.331c0.182,-0.033 0.391,-0.012 0.606,0.108l0.452,0.252c3.362,1.855 6.854,3.438 10.664,4.115c3.923,0.697 7.917,0.619 11.805,-0.266c7.082,-1.613 12.813,-5.725 17.032,-11.149c4.708,-6.051 7.535,-13.733 8.255,-21.416c0.874,-9.3106 -1.152,-18.5644 -3.248,-27.5793c-2.202,-9.4724 -4.609,-18.8965 -7.405,-28.2112c-0.084,-0.2804 -0.106,-0.5428 -0.082,-0.7845c-0.825,-0.3229 -1.703,-0.2332 -2.576,0.0615c-1.596,0.5384 -3.186,1.7526 -4.512,2.7549c-0.481,0.363 -0.927,0.7005 -1.329,0.975c-1.644,1.1243 -3.442,1.9332 -5.452,2.0604c-2.09,0.132 -4.14,-0.5171 -6.038,-1.3295c-0.965,-0.4128 -1.914,-0.8409 -2.859,-1.2674c-2.692,-1.2142 -5.352,-2.4165 -8.258,-3.1979c-3.895,-1.0473 -7.916,-1.5631 -11.949,-1.5261c-7.199,0.0657 -14.419,1.9171 -18.831,8.0002c-1.788,2.4642 -2.953,5.2964 -2.044,8.3376c0.494,1.6544 1.427,3.1563 2.445,4.5376l0.35,0.4704c0.558,0.7583 1.044,1.5135 1.19,2.3175c0.122,0.6735 0.027,1.3861 -0.455,2.1671c-0.303,0.4916 -0.688,0.9325 -1.076,1.3719c-0.28,0.3169 -0.56,0.6333 -0.801,0.974c-0.487,0.6868 -0.917,1.4265 -1.255,2.1979c-0.661,1.5101 -0.942,3.1346 -1,4.773c-0.071,1.9766 0.207,3.9101 0.483,5.8465c0.195,1.373 0.391,2.7474 0.469,4.1384c0.014,0.2428 -0.06,0.4236 -0.164,0.5575c-0.127,0.1637 -0.313,0.267 -0.525,0.2956c-0.064,0.0087 -0.13,0.01 -0.197,0.0041c0.033,0.1339 0.062,0.2683 0.087,0.4032c-0.134,-0.1717 -0.276,-0.3383 -0.426,-0.4993c-0.01,-0.0048 -0.019,-0.0098 -0.029,-0.015c-0.154,-0.0849 -0.285,-0.2143 -0.368,-0.3809c-0.212,-0.1973 -0.437,-0.3845 -0.674,-0.5605c-1.228,-0.9157 -2.662,-1.4584 -4.101,-1.4764c-1.387,-0.0174 -2.777,0.4545 -3.847,1.4512c-2.124,1.9807 -2.747,5.2142 -2.769,7.9905c-0.023,2.834 0.634,6.2351 3.107,7.9947c0.992,0.7058 2.203,1.1298 3.424,1.1421c1.012,0.0102 1.98,-0.3475 2.933,-0.6882c0.294,-0.1051 0.587,-0.2096 0.878,-0.3046c0.332,-0.1078 0.634,-0.1009 0.898,-0.0221c0.296,0.0889 0.548,0.2723 0.737,0.517c0.187,0.2438 0.31,0.549 0.348,0.8685c0.037,0.3094 -0.005,0.6307 -0.137,0.9206c-0.032,0.073 -0.067,0.144 -0.103,0.213l0.544,0.893c2.082,3.413 4.201,6.764 6.98,9.697c1.595,1.684 3.286,3.273 5.141,4.664l0.267,0.198c0.16,0.118 0.338,0.262 0.527,0.417c0.541,0.442 1.189,1.035 1.794,1.058c0.18,0.007 0.337,-0.015 0.479,-0.034c0.345,-0.045 0.634,-0.058 0.918,0.058c0.229,0.093 0.466,0.267 0.71,0.626c0.164,0.243 0.249,0.548 0.249,0.857c0,0.311 -0.086,0.622 -0.238,0.868c-0.315,0.509 -0.696,0.824 -1.11,1.003c-0.461,0.199 -0.97,0.23 -1.5,0.131c-1.305,-0.243 -2.749,-1.323 -3.668,-2.028l-0.178,-0.136c-2.037,-1.552 -3.967,-3.269 -5.664,-5.19c-2.889,-3.271 -5.484,-7.125 -6.817,-11.337c-0.94,0.617 -2.101,0.91 -3.314,0.956c-1.769,0.067 -3.64,-0.388 -5.019,-1.041c-3.039,-1.44 -4.885,-4.1637 -5.75,-7.2958c-1.005,-3.6373 -0.678,-7.8191 0.593,-11.0866c0.037,-0.095 0.076,-0.1896 0.115,-0.2857c-3.915,-9.9117 -5.119,-20.918 -4.784,-31.4956c0.157,-4.9512 0.495,-10.1459 1.664,-14.9747c0.524,-2.1643 1.434,-4.2254 2.888,-5.9293c0.829,-0.9717 1.845,-1.7281 2.867,-2.4824c0.885,-0.6534 1.773,-1.3053 2.52,-2.1211l0.354,-0.3873c0.076,-0.0843 0.153,-0.1684 0.229,-0.2524c1.29,-1.4213 2.547,-2.8004 4.113,-3.966c1.816,-1.3514 3.821,-2.4092 5.903,-3.2877c4.487,-1.8919 9.316,-3.0263 14.093,-3.9039c10.334,-1.8983 20.943,-1.992 31.151,0.6764c4.746,1.2404 9.352,2.9384 13.951,4.6343c0.426,0.1575 0.853,0.3149 1.28,0.4719c3.574,1.3147 7.149,2.6237 10.724,3.9327c1.662,0.6084 3.323,1.2167 4.985,1.8257c0.36,0.1322 0.713,0.4169 0.914,0.7706c0.196,0.3451 0.255,0.7476 0.096,1.1483c-1.019,2.5809 -2.305,5.0022 -3.871,7.2633c0.544,0.3697 1.007,0.8615 1.357,1.4371c0.443,0.728 0.706,1.5898 0.724,2.5041c0.059,3.0621 -2.73,5.1379 -5.043,6.6392c-0.216,0.14 -0.43,0.2227 -0.636,0.2606c2.242,8.5652 4.388,17.1594 6.212,25.8217l0.125,0.6004c1.879,9.0656 3.091,18.3171 1.314,27.5032c-1.53,7.91 -5.083,15.544 -10.637,21.437c-5.442,5.775 -12.745,9.411 -20.646,10.222zm-48.622,-52.1512c-0.967,-3.0658 -1.48,-6.4015 -1.11,-9.5092c0.233,-1.9535 0.821,-3.8341 1.778,-5.556c0.548,-0.9861 1.216,-1.899 1.945,-2.7589l0.252,-0.2887c0.127,-0.1475 0.254,-0.2831 0.293,-0.453c0.023,-0.0988 0,-0.2068 -0.06,-0.3358c-0.133,-0.2858 -0.381,-0.5613 -0.612,-0.8301c-0.147,-0.1709 -0.291,-0.3386 -0.412,-0.5018c-2.119,-2.8661 -3.699,-6.2784 -3.186,-9.9129c0.501,-3.5461 2.827,-6.8515 5.304,-9.3426c5.452,-5.4851 13.905,-6.7456 21.311,-6.4431c4.31,0.176 8.614,0.9351 12.719,2.2612c2.025,0.654 4.004,1.4505 5.927,2.3634l0.426,0.2043c0.23,0.1112 0.46,0.2237 0.689,0.3363c1.504,0.7367 3.013,1.4806 4.645,1.8811c3.187,0.782 5.35,-0.865 7.622,-2.5261c0.779,-0.5692 1.57,-1.1464 2.41,-1.6529l0.173,-0.1022c1.516,-0.8782 3.33,-1.4692 5.072,-1.4427c1.513,0.023 2.973,0.5058 4.162,1.6467c0.244,0.2345 0.385,0.4902 0.45,0.7447c0.132,0.1843 0.238,0.4039 0.307,0.6635c0.426,1.5963 0.85,3.1939 1.272,4.7919l0.346,-0.2224c1.023,-0.6642 2.136,-1.4231 2.638,-2.5342c0.194,-0.4276 0.166,-1.14 -0.078,-1.6638c-0.085,-0.1831 -0.197,-0.3458 -0.353,-0.4474c-0.113,-0.0738 -0.25,-0.1085 -0.408,-0.0958c-0.386,0.0496 -0.74,-0.0067 -1.04,-0.1335c-0.347,-0.1462 -0.623,-0.3868 -0.802,-0.6768c-0.183,-0.2969 -0.267,-0.646 -0.222,-1.008c0.038,-0.3112 0.172,-0.6363 0.438,-0.9417c1.745,-2.0106 3.216,-4.2284 4.333,-6.6357l-7.391,-2.7323c-2.635,-0.9736 -5.271,-1.9461 -7.908,-2.9148l-1.444,-0.53c-4.794,-1.7573 -9.617,-3.4746 -14.603,-4.6059c-9.91,-2.2482 -20.244,-1.7198 -30.126,0.3964l-0.597,0.1289c-4.147,0.9035 -8.35,1.9967 -12.157,3.8968c-1.868,0.9327 -3.644,2.0667 -5.169,3.4996c-0.673,0.6327 -1.282,1.3255 -1.892,2.0174c-0.853,0.9695 -1.708,1.9365 -2.723,2.7532l-0.942,0.7538c-1.402,1.1285 -2.666,2.2279 -3.457,3.9779c-0.827,1.8296 -1.221,3.8509 -1.543,5.8202c-0.812,4.9609 -1.133,10.0013 -1.103,15.0264c0.052,8.4374 1.335,16.7029 2.956,24.9393c1.3,-1.8594 3.127,-3.3009 5.471,-3.6083c1.529,-0.2003 3.044,0.0844 4.358,0.7597c0.76,0.3903 1.452,0.911 2.041,1.5439l0,0zm-2.457,10.0188c-1.712,-0.6627 -3.509,-0.8797 -5.32,-0.5628c-0.19,0.033 -0.371,-0.0065 -0.523,-0.0948c-0.155,-0.0895 -0.276,-0.2311 -0.342,-0.3875c-0.076,-0.1807 -0.08,-0.3764 -0.013,-0.5501c0.059,-0.1508 0.17,-0.2972 0.374,-0.3949c1.962,-0.9352 4.142,-1.3479 6.306,-1.0543l0.213,0.0304c1.107,0.1639 2.662,0.5089 3.829,1.188c0.916,0.5335 1.587,1.2689 1.754,2.2297c0.087,0.5006 -0.038,1.0233 -0.326,1.4022c-0.28,0.3663 -0.706,0.6104 -1.259,0.5948c-0.975,-0.0278 -1.552,-0.4393 -2.246,-0.9723c-0.084,-0.0647 -0.171,-0.131 -0.26,-0.1981c-0.671,-0.5016 -1.404,-0.9276 -2.187,-1.2303z" clip-rule="evenodd" fill-rule="evenodd"/>
   <path id="svg_5" fill="black" d="m161.740554,97.072828c-1.722,-0.702 -3.259,-1.873 -4.382,-3.369c-0.391,-0.52 -0.492,-1.07 -0.41,-1.572c0.092,-0.565 0.426,-1.077 0.882,-1.42c0.458,-0.344 1.03,-0.514 1.583,-0.428c0.481,0.076 0.96,0.339 1.338,0.884l0.079,0.109c0.668,0.903 1.539,1.644 2.531,2.121c0.955,0.461 2.025,0.675 3.131,0.551c2.107,-0.238 3.559,-1.377 5.103,-2.923c0.191,-0.195 0.383,-0.397 0.575,-0.601c0.122,-0.186 0.29,-0.305 0.477,-0.367c0.208,-0.07 0.443,-0.066 0.659,0.009c0.207,0.073 0.393,0.21 0.518,0.393c0.118,0.173 0.185,0.388 0.163,0.634c-0.141,1.603 -0.979,3.033 -2.17,4.156c-1.323,1.247 -3.076,2.11 -4.727,2.412c-1.819,0.333 -3.672,0.095 -5.35,-0.589l0,0zm6.208,-24.7198c1.934,1.175 4.882,3.9151 2.801,6.8282c-2.45,2.5686 -5.977,-0.3765 -7.716,-1.7084c-1.611,-1.0323 -3.422,1.6226 -1.927,2.828c12.561,9.292 17.658,-7.6406 7.82,-9.3294c-1.083,-0.1861 -1.485,1.018 -0.978,1.3816zm-22.509,-10.8088c0.214,-2.6513 4.255,-3.2533 4.657,-0.6298c0.36,2.3501 -0.064,4.509 -1.123,6.6249c-1.013,2.0214 -3.557,1.0783 -3.75,-0.7624c-0.257,-2.4673 0.083,-3.5835 0.216,-5.2327zm30.762,-1.1738c0.564,-0.7373 1.377,-1.2406 2.352,-0.9562c3.045,0.8891 2.147,5.2086 1.078,7.3112c-0.581,1.1418 -2.46,1.4313 -3.308,0.426c-1.384,-1.6395 -2.047,-4.9135 -0.288,-6.5284c0.048,-0.0834 0.101,-0.1676 0.166,-0.2526zm-27.271,-10.4274l0.481,-0.0841c1.488,-0.2572 3.338,-0.5043 4.391,0.6911c0.558,0.6338 0.75,1.812 0,2.4187c-1.32,1.0675 -2.78,0.6538 -4.362,0.7442c-1.303,0.0747 -2.556,0.2903 -3.812,0.649c-2.755,0.7867 -4.999,2.2228 -7.352,3.7998c-0.309,0.2069 -0.624,-0.1876 -0.477,-0.4762c1.358,-2.658 3.991,-4.8415 6.627,-6.1725c1.407,-0.7104 2.947,-1.2997 4.504,-1.57zm24.495,-1.1906l0.368,0.0753c4.007,0.8367 9.212,2.5083 11.11,6.4403c0.072,0.556 -0.004,0.6752 -0.067,0.7531l-0.02,0.0259c-0.051,0.0664 -0.092,0.1581 -0.333,0.2338c-0.067,-0.016 -0.135,-0.0328 -0.203,-0.0507c-0.87,-0.2277 -1.558,-0.5415 -2.224,-0.867l-0.722,-0.3555c-0.838,-0.4106 -1.684,-0.8061 -2.58,-1.0982c-1.912,-0.6231 -3.878,-1.062 -5.875,-1.2964c-0.433,-0.0508 -0.85,-0.1967 -1.179,-0.4469c-0.312,-0.2374 -0.55,-0.5662 -0.659,-1.0032c-0.141,-0.5655 -0.1,-0.9937 0.203,-1.5038c0.229,-0.3832 0.555,-0.6488 0.931,-0.8013c0.382,-0.1554 0.817,-0.1921 1.25,-0.1054z" clip-rule="evenodd" fill-rule="evenodd"/>
   <path id="svg_6" fill="black" d="m197.700554,52.861928c-0.211,-0.035 -0.422,-0.068 -0.633,-0.099c-0.165,-0.0935 -0.358,-0.1654 -0.583,-0.2087c-0.514,-0.1303 -1.024,-0.2181 -1.534,-0.2654c-7.31,-1.6438 -24.222,0.6901 -24.92,6.9233c-2.328,0.7765 -4.342,0.0812 -7.04,0.1503c-2.054,-8.5774 -37.561,-7.3668 -39.269,-2.1955c-0.006,-0.0018 -0.013,-0.0033 -0.019,-0.0054c-1.641,-0.5074 -4.06,-0.385 -5.938,-0.4654c-4.01,-0.084 -8.025,0.2732 -11.948,1.1182c-7.347,1.1666 -17.374,2.5324 -12.265,11.6994c0.001,0.0015 0.002,0.0033 0.003,0.0049l0.001,-0.0008c0.881,0.9019 2.375,0.1756 2.431,-1.0453c-1.718,-4.3428 2.162,-4.8643 5.148,-6.1123c7.428,-2.6665 14.991,-3.0362 22.674,-2.2114c0.578,0.68 1.455,1.2729 2.382,1.5832c5.137,0.8519 2.43,4.6592 5.677,5.213c-0.597,13.2717 15.53,20.5161 24.874,11.7917c3.73,-3.6444 4.62,-9.0433 5.485,-13.9097c0.457,-0.1026 0.748,-0.3525 0.918,-0.6832c1.1,-1.0973 1.791,-2.1105 3.966,-2.4118c2.175,-0.3011 3.849,0.3033 4.075,0.4884c0.058,0.115 0.119,0.2302 0.19,0.3454c0.099,0.1717 0.235,0.3087 0.388,0.4165c-2.147,13.2159 8.121,21.5739 18.487,14.7194c4.504,-4.2335 5.456,-10.715 5.644,-16.5002c0.611,-0.3681 0.998,-1.0816 0.786,-1.9786c-0.291,-1.2365 0.392,-2.3071 1.48,-2.8447c1.413,-0.6982 1.163,-3.2477 -0.46,-3.5163m-44.543,6.2699c-1.287,-0.2827 -1.836,1.6994 -0.545,1.983c0.914,0.2008 1.688,0.6613 2.212,1.4416l0.055,0.0848c0.702,1.1167 2.478,0.0859 1.771,-1.038c-0.796,-1.2647 -2.032,-2.1506 -3.493,-2.4714zm37.686,-1.2291c-0.453,-0.3192 -1.14,-0.0822 -1.403,0.3689c-0.29,0.4968 -0.1,1.0499 0.325,1.3749l0.043,0.0317c0.39,0.2744 0.769,0.7663 0.817,1.2703l0.004,0.0631c0.051,1.319 2.103,1.3257 2.051,0c-0.05,-1.2969 -0.801,-2.3804 -1.837,-3.1089z" clip-rule="evenodd" fill-rule="evenodd"/>
  </g>
 </g>
</svg>