<svg width="403" height="611" viewBox="0 0 403 611" fill="none" xmlns="http://www.w3.org/2000/svg">
<path fill-rule="evenodd" clip-rule="evenodd" d="M215.71 342.181C216.297 348.297 215.097 354.137 212.24 359.074L211.31 360.68L213.079 361.299C216.3 362.424 219.882 362.971 224.029 362.971C228.298 362.971 232.736 362.377 236.303 361.9L238.586 361.595L237.465 359.613C236.563 358.021 236.396 356.091 236.219 354.048C236.171 353.499 236.122 352.932 236.058 352.37C232.678 322.196 228.407 291.628 224.276 262.066C223.188 254.287 222.064 246.243 220.974 238.331L217.846 238.452C217.004 253.097 216.188 267.99 215.398 282.393C215.051 288.727 214.703 295.06 214.353 301.393C213.105 317.404 213.536 330.368 215.71 342.181M216.986 523.125C212.392 523.125 207.79 522.648 203.307 521.705C189.277 518.763 176.531 511.822 165.686 505.548C165.132 505.234 164.57 504.921 163.993 504.598C159.747 502.225 154.463 499.272 151.152 495.67C147.519 491.719 146.894 487.781 149.184 483.279L149.547 482.567L149.168 481.862C146.796 477.452 146.973 471.995 149.597 468.594L151.803 465.735L148.176 466.119C144.52 466.507 140.835 467.032 137.27 467.54C133.316 468.103 129.227 468.686 125.199 469.076L124.08 469.184L123.822 470.262C123.679 470.861 123.502 471.226 122.26 471.226C121.182 471.226 119.734 470.91 118.202 470.577C116.3 470.163 114.144 469.694 112.066 469.694C111.151 469.694 110.329 469.781 109.551 469.96L109.099 470.064L108.776 470.394C108.57 470.605 108.22 470.736 107.862 470.736C107.591 470.736 107.339 470.66 107.171 470.529L106.663 470.132L106.019 470.203C94.7911 471.434 85.1095 473.596 76.4219 476.81L76.3826 476.824L76.1942 476.905C73.0527 478.26 69.8049 479.66 66.8469 479.66C64.6846 479.66 62.9287 478.925 61.3207 477.348L60.8662 476.902L60.2252 476.896C53.7212 476.836 50.7493 469.26 50.3384 464.182L50.2868 463.543L49.7909 463.127C38.4559 453.625 31.7642 440.574 29.3327 423.23C27.1182 407.431 28.8186 390.773 30.7739 376.562C35.2969 339.734 40.0144 306.719 52.0062 275.407L52.5665 273.943L51.0735 273.408C45.8942 271.548 41.9359 269.33 38.9722 266.626L38.767 266.439L38.5086 266.333C34.261 264.589 32.1806 258.154 31.6442 256.224L31.6012 256.068L31.5263 255.925C30.6596 254.264 30.4596 251.954 30.978 249.586L31.0336 249.331L31.0013 249.072C30.7214 246.824 31.6505 244.474 32.634 241.986C33.0835 240.849 33.5479 239.675 33.8872 238.505C35.054 235.16 36.2194 231.757 37.3468 228.465C39.8763 221.08 42.4915 213.443 45.2776 206.015L45.6586 204.999L44.8192 204.298C43.3862 203.103 43.8647 201.695 45.9312 198.33C46.4194 197.535 46.8812 196.783 47.2323 196.042C49.8811 191.47 52.7198 187.081 55.6712 182.995L55.732 182.912L55.7805 182.821C70.9253 154.566 97.7892 139.005 131.423 139.005L132.109 139.007L132.488 138.779C138.792 134.992 143.292 128.495 146.245 118.916L146.339 118.61L146.303 118.293C146.202 117.41 146.091 116.253 146.129 115.129C146.225 112.285 147.341 109.746 149.191 108.165C152.7 105.164 158.028 104.913 163.184 104.913L163.925 104.914C170.517 104.933 175.171 106.076 178.572 108.513C182.523 111.344 184.706 115.914 185.247 122.483C185.409 124.449 185.403 126.486 185.399 128.455L185.397 129.005L185.464 129.223C185.937 130.784 186.492 132.285 187.113 133.683L187.751 135.121L189.203 134.472C190.142 134.053 191.333 133.838 192.843 133.813C193.279 133.803 193.703 133.799 194.132 133.799C197.639 133.799 201.391 134.119 205.02 134.428C207.754 134.661 210.581 134.902 213.317 135.009L213.355 135.011C213.355 135.011 213.733 135.008 213.902 135.008C220.553 135.008 225.375 136.053 229.076 138.297C233.06 140.712 235.926 144.589 238.092 150.497C249.713 184.363 254.49 220.84 258.704 253.022C261.095 269.852 261.822 287.105 262.525 303.79C263.267 321.401 264.035 339.612 266.752 357.414L266.967 358.821L268.41 358.728C274.76 358.319 281.622 357.437 288.887 356.503C299.925 355.085 311.34 353.618 322.374 353.618C337.802 353.618 349.5 356.651 358.13 362.888C364.146 368.551 367.259 376.219 367.131 385.069C366.95 397.573 360.33 411.397 350.264 420.287L350.226 420.322C337.504 432.328 314.28 442.742 281.201 451.274C250.782 459.119 219.318 463.383 203.27 465.226L199.298 465.682L202.522 468.01C203.827 468.953 205.018 469.783 206.162 470.548L206.9 471.04L207.709 470.67C210.015 469.614 211.48 469.392 212.303 469.392C213.033 469.392 213.915 469.55 213.963 470.305C213.995 470.8 213.643 471.534 212.899 471.627L208.951 472.119L212.175 474.415C214.328 475.949 217.54 477.798 221.26 479.939C233.431 486.944 251.823 497.53 248.659 506.826L248.452 507.437L248.746 508.013C249.596 509.677 249.668 511.222 248.967 512.736C247.465 515.98 242.768 518.442 238.778 519.444L238.71 519.461L238.643 519.485C231.701 521.901 224.415 523.125 216.986 523.125" fill="white"/>
<path fill-rule="evenodd" clip-rule="evenodd" d="M203.631 463.405C204.11 462.917 204.312 462.278 203.864 461.528C202.132 459.317 198.538 460.829 196.303 461.339C195.459 460.638 194.621 459.934 193.814 459.191C194.094 457.453 192.003 456.298 191.143 454.957C190.299 453.969 189.505 452.848 188.493 452.02C186.028 450.098 182.61 451.398 179.748 451.311C177.544 448.51 175.275 445.797 173.178 442.904C175.595 438.848 175.765 434.095 174.963 429.574C212.027 415.525 244.11 388.925 284.196 382.778C285.575 382.548 286.348 380.874 286.004 379.647C283.208 372.981 243.025 390.181 237.018 393.296C219.302 401.77 202.708 412.333 185.49 421.652C181.9 423.558 177.951 424.582 174.025 425.572C167.992 405.793 157.787 387.662 149.962 368.592C150.47 367.713 150.902 366.789 151.269 365.84C151.01 376.328 161.22 376.181 162.63 366.232C162.048 371.418 165.974 382.525 171.64 375.237C172.969 373.406 173.44 371.062 173.665 368.698C173.957 370.333 174.287 371.96 174.654 373.582C176.108 376.795 180.079 372.888 181.001 371.212C181.533 371.116 182.031 370.874 182.395 370.578C192.414 371.967 204.215 371.888 211.566 363.986C224.035 368.765 237.836 364.484 250.447 362.576C276.109 359.628 301.873 355.136 327.765 355.479C339.325 356.149 352.963 358.014 360.275 367.867C369.654 382.071 364.353 401.254 354.006 413.55C329.117 445.029 243.685 458.717 203.631 463.405M204.33 474.744C204.783 474.623 205.24 474.512 205.693 474.406C212.958 480.448 247.171 496.137 244.568 505.508C243.649 506.674 241.447 506.939 240.055 507.316C237.631 507.971 235.183 508.539 232.712 508.987C224.724 510.439 216.451 510.692 208.473 509.036C205.538 508.59 202.889 507.339 200.216 506.13C191.578 502.334 182.065 498.141 173.469 494.376C162.548 490.051 143.394 481.528 151.272 467.147C158.735 475.533 168.209 474.8 172.982 464.377C174.627 461.213 176.063 456.948 179.929 455.669C181.968 454.292 184.575 454.006 186.279 455.54C186.402 455.349 186.512 455.081 186.572 454.844C188.493 457.575 190.15 460.45 192.401 462.946C191.628 462.987 183.582 468.936 185.957 468.939C188.813 467.469 191.651 466.244 194.736 465.452C196.971 467.698 199.43 469.788 201.977 471.719C199.503 473.351 197.281 475.35 195.493 477.518C195.339 477.709 195.527 477.957 195.758 477.854C198.533 476.618 201.387 475.533 204.33 474.744M241.157 515.266C213.369 527.735 183.952 513.851 160.255 499.049C154.786 495.998 147.592 491.674 148.698 484.492C152.726 490.379 159.367 493.731 165.741 496.638C176.449 501.473 187.228 506.153 197.962 510.929C198.976 514.289 203.824 514.418 206.755 515.164C219.798 517.691 233.819 516.435 246.094 511.396C245.383 513.498 243.059 514.462 241.157 515.266M130.291 466.716C129.605 466.804 128.918 466.884 128.232 466.961C128.303 466.054 127.755 465.146 126.874 464.865C127.27 462.941 127.417 460.953 127.205 459.001C128.352 461.964 132.058 461.064 134.411 460.21C137.774 459.297 141.115 458.315 144.438 457.267C145.749 459.7 147.138 462.095 148.844 464.297C142.632 464.849 136.479 465.945 130.291 466.716M127.557 457.396C127.392 457.745 127.156 458.113 127.151 458.531C126.983 457.09 126.656 455.666 126.158 454.302C126.624 455.334 127.091 456.365 127.557 457.396M123.637 449.668C120.581 445.689 114.934 442.437 109.713 443.546C109.378 443.618 109.37 444.157 109.713 444.224C116.726 445.176 122.885 450.733 123.128 457.918C123.682 461.169 121.417 464.362 122.18 467.482C122.028 467.492 121.876 467.5 121.727 467.511C121.672 467.719 121.622 467.905 121.556 468.068C122.314 468.194 122.536 469.411 121.643 469.628C121.113 469.757 120.56 469.824 119.997 469.852C117.138 469.081 114.121 468.903 111.388 467.763C108.683 466.569 109.36 463.214 108.406 460.891C107.706 458.211 106.901 455.542 105.887 452.971C105.814 452.765 105.533 452.812 105.51 453.02C104.794 458.15 104.818 463.366 104.991 468.537C104.053 468.632 103.12 468.738 102.184 468.854C102.244 467.41 97.9072 449.815 95.6219 454.33C96.7724 459.295 96.9113 464.48 97.0345 469.589C90.2495 470.706 83.5641 472.369 77.0595 474.633C72.4759 476.02 67.0246 480.126 62.5749 476.415C59.1287 473.568 57.9678 468.601 58.2927 464.375C62.7741 439.369 98.1692 436.447 119.064 438.296C121.037 442.845 123.047 447.378 125.084 451.901C124.662 451.122 124.18 450.375 123.637 449.668M52.3732 463.888C51.9906 458.209 52.9471 451.14 57.1586 446.909C66.7975 438.768 80.2941 436.207 92.3388 433.26C97.9495 432.153 103.637 431.418 109.347 431.052C111.373 430.892 113.946 431.351 115.377 429.696C116.114 431.439 116.86 433.18 117.608 434.92C93.6282 431.782 43.5991 442.685 57.6094 475.499C54.6425 472.289 52.677 468.38 52.3732 463.888M171.506 445.117C172.61 447.871 173.959 450.493 175.723 452.891C173.718 454.202 172.083 456.138 170.93 458.219C163.54 477.534 155.636 467.188 145.816 456.824C154.126 453.691 165.133 451.344 171.506 445.117M48.4935 459.957C29.2759 440.993 25.5466 409.401 32.6461 384.567C33.2777 375.359 36.5012 366.583 39.3892 357.864C48.5852 331.417 60.6797 305.972 75.1852 281.948C93.1815 286.887 111.146 291.956 129.185 296.732C131.669 297.271 134.156 298.336 136.706 298.491C137.618 299.071 138.533 299.711 139.481 300.273C138.1 307.032 139.374 313.933 139.696 320.733C139.99 326.086 139.411 331.329 138.7 336.626C137.906 344.331 134.638 369.394 141.187 373.982C143.407 375.052 145.391 371.882 146.348 372.754C147.21 372.153 148.014 371.372 148.67 370.511C151.198 378.68 155.331 386.259 157.884 394.436C161.28 406.453 172.434 425.905 169.957 437.367C168.042 444.446 159.661 445.972 153.612 448.286C146.623 450.715 139.555 452.945 132.371 454.756C128.865 447.321 125.513 439.817 122.224 432.284C107.192 397.531 93.8786 362.052 81.9807 326.151C81.7579 325.354 79.0219 316.72 78.5214 319.129C78.4794 318.881 78.1676 318.242 78.0496 318.788C80.0676 327.218 82.1141 335.646 84.3288 344.029C78.8883 343.269 73.0389 342.972 68.0596 345.636C67.8027 345.773 67.9914 346.11 68.2454 346.069C74.1419 345.048 79.8291 346.977 85.4924 348.362C93.4462 375.408 103.709 401.767 114.572 427.798C111.212 426.727 107.312 427.911 103.806 427.996C92.7622 429.136 81.8444 431.55 71.4114 435.304C58.2975 439.552 49.0255 445.091 48.4935 459.957M37.9133 262.592C34.6849 259.118 32.1478 254.683 32.6382 249.977C34.5775 247.393 35.2195 244.022 36.3491 241.036C40.7649 228.539 44.8637 215.947 49.67 203.585C59.8934 206.726 69.9513 210.493 79.4385 215.442C81.1839 216.332 82.9109 217.255 84.617 218.212C86.4043 219.212 88.3541 220.95 90.4979 220.453C88.155 223.766 83.3303 227.214 82.5152 231.043C82.3396 232.256 83.1992 233.38 84.52 233.109C105.195 247.78 126.546 262.141 146.088 278.482C160.722 290.056 171.957 299.442 176.976 318.221C180.359 330.385 180.369 343.098 179.871 355.605C179.774 358.037 179.772 360.526 179.575 362.973C179.869 364.804 179.311 368.53 177.251 368.597C177.298 369.041 177.445 369.451 177.678 369.812C177.612 369.899 177.544 369.982 177.473 370.067C177.371 369.567 177.272 369.069 177.177 368.569C175.573 361.472 175.359 353.238 175.626 345.682C175.738 343.516 172.413 343.568 172.227 345.682C171.726 351.394 171.226 357.106 170.725 362.815C170.125 366.516 171.071 371.356 168.11 374.17C165.099 371.39 166.094 365.907 166.241 362.32C166.477 356.469 166.731 350.621 166.949 344.769C167.017 342.915 163.943 342.438 163.594 344.323C162.606 349.697 161.537 355.056 160.386 360.399C159.692 362.465 159.215 371.733 155.745 370.124C153.678 368.713 155.169 360.443 154.896 357.704C155.025 352.284 155.1 346.871 155.499 341.463C155.661 339.282 152.105 338.818 151.618 340.948C150.826 344.395 150.069 347.843 149.382 351.314C147.875 357.165 148.423 365.098 142.983 368.986C140.852 353.787 143.918 338.694 144.348 323.549C144.091 318.641 143.247 313.783 142.503 308.935C141.68 303.574 141.2 297.738 143.127 292.568C142.6 290.252 140.53 296.516 140.336 297.037C138.776 293.968 134.979 293.731 131.976 292.774C125.301 290.615 118.463 288.988 111.71 287.07C93.7997 282.1 75.8689 277.208 57.9331 272.327C50.7681 270.346 43.2258 268.002 37.9133 262.592M217.261 343.439C214.789 330.057 214.858 316.499 215.914 302.97C217.075 281.99 218.202 261.004 219.407 240.026C224.641 277.995 230.22 315.921 234.486 354.012C234.79 356.663 234.743 359.468 236.083 361.833C228.682 362.823 220.793 363.821 213.597 361.307C216.755 355.853 217.869 349.643 217.261 343.439M254.656 249.188C260.251 285.174 257.059 321.792 262.486 357.738C254.957 358.581 247.485 359.829 240.035 361.201C240.85 356.76 239.304 352.175 239.036 347.704C234.99 315.809 230.522 283.936 224.602 252.321C223.149 244.755 221.682 237.22 220 229.695C220.254 225.138 220.477 220.581 220.623 216.022C228.839 210.862 238.103 207.522 247.685 205.839C250.274 220.249 252.861 234.648 254.656 249.188M189.885 136.104C189.558 135.544 189.246 134.972 188.947 134.392C189.959 134.43 190.944 134.466 191.94 134.631C191.895 136.233 191.985 137.847 192.003 139.461C191.505 138.28 190.53 137.202 189.885 136.104M358.873 361.619C334.975 344.259 295.722 355.319 268.037 357.104C262.759 322.53 264.913 287.392 259.994 252.762C255.463 218.165 250.686 183.086 239.307 149.939C234.61 137.122 226.486 133.316 213.11 133.419C206.323 133.154 199.145 132.068 192.548 132.223C191.102 132.246 189.589 132.437 188.284 133.02C186.45 128.889 185.454 124.453 184.951 119.984C184.919 119.701 184.558 119.649 184.45 119.92C182.899 123.811 182.734 128.058 183.577 132.133C184.188 135.052 187.823 146.54 192.045 142.045C192.38 151.471 190.307 162.727 181.064 167.619C164.913 174.654 142.587 168.248 133.231 153.317C131.423 150.334 129.864 147.159 127.862 144.294C141.812 140.349 149.642 123.651 146.356 110.935C144.325 120.825 140.622 131.875 131.4 137.414C97.8177 137.339 69.8971 152.618 54.1205 182.047C51.0333 186.32 48.1794 190.761 45.5639 195.279C44.1564 198.301 40.0343 202.504 43.5329 205.424C39.4918 216.198 35.9067 227.121 32.1172 237.98C31.0765 241.598 28.6969 245.394 29.1715 249.198C28.6578 251.542 28.6814 254.314 29.8581 256.568C30.9745 260.586 33.4797 265.991 37.6337 267.695C41.1586 270.911 45.6164 273.126 50.2655 274.795C37.8667 307.163 33.1471 342.072 28.9461 376.272C24.8287 406.19 22.7036 442.584 48.5017 464.207C49.0023 470.394 52.6762 478.277 59.9411 478.344C64.9726 483.279 71.1052 480.572 76.7057 478.158C86.1585 474.661 96.0726 472.722 105.924 471.641C106.98 472.467 108.699 472.33 109.64 471.368C115.607 469.994 123.878 475.559 125.084 470.517C132.778 469.772 140.389 468.374 148.075 467.559C144.836 471.758 145.069 477.949 147.509 482.485C141.295 494.696 155.769 501.767 164.62 506.777C176.567 513.688 189.044 520.246 202.708 523.111C214.722 525.636 227.307 524.87 238.898 520.837C244.988 519.307 253.495 514.287 249.881 507.213C254.462 493.752 222.291 479.804 212.827 473.062C216.695 472.58 216.837 464.56 206.776 469.169C205.56 468.356 204.365 467.518 203.183 466.665C243.877 461.992 321.594 449.137 351.045 421.348C367.225 407.059 376.56 378.157 358.873 361.619" fill="black"/>
<path fill-rule="evenodd" clip-rule="evenodd" d="M182.639 130.426C176.952 130.459 172.118 128.847 168.43 126.18C163.828 124.54 158.277 122.011 154.905 119.356C153.59 119.691 152.016 118.295 151.01 117.559C144.752 112.889 139.84 106.055 138.384 99.2088C136.137 102.043 132.94 102.161 129.877 100.752C123.456 97.1137 123.696 89.4528 126.008 83.7291C121.148 72.8343 117.78 44.0734 125.198 32.4659C126.715 30.7292 128.942 29.6903 130.545 27.9093C131.972 26.3538 133.329 24.7628 134.989 23.5319C140.053 19.6806 148.776 17.63 154.237 16.6656C177.036 11.7406 194.553 20.5927 215.204 28.0596C214.016 31.0292 212.371 33.7375 210.487 36.2627C215.614 38.1748 213.259 42.4739 209.282 44.6532L206.914 43.5032C210.605 56.6992 219.1 89.5142 215.435 100.052C212.512 116.493 199.684 130.545 182.639 130.426" fill="white"/>
<path fill-rule="evenodd" clip-rule="evenodd" d="M185.933 131.842C178.549 132.599 169.776 130.855 164.854 124.861C164.707 124.682 164.642 124.479 164.638 124.283C164.634 124.065 164.707 123.854 164.834 123.69C164.967 123.518 165.156 123.397 165.374 123.358C165.556 123.326 165.765 123.347 165.98 123.467L166.432 123.719C169.794 125.574 173.286 127.157 177.096 127.834C181.019 128.531 185.013 128.453 188.901 127.567C195.983 125.955 201.714 121.842 205.933 116.419C210.641 110.368 213.468 102.686 214.188 95.0029C215.062 85.6924 213.036 76.4386 210.94 67.4237C208.738 57.9513 206.331 48.5272 203.535 39.2125C203.451 38.9321 203.429 38.6697 203.453 38.4279C202.628 38.1051 201.75 38.1947 200.877 38.4894C199.281 39.0279 197.691 40.2421 196.365 41.2444C195.884 41.6074 195.438 41.9448 195.036 42.2194C193.392 43.3436 191.594 44.1526 189.584 44.2798C187.494 44.4118 185.444 43.7626 183.546 42.9502C182.581 42.5375 181.632 42.1093 180.687 41.6829C177.995 40.4686 175.335 39.2663 172.429 38.485C168.534 37.4377 164.513 36.9219 160.48 36.9588C153.281 37.0246 146.061 38.876 141.649 44.9591C139.861 47.4233 138.696 50.2555 139.605 53.2967C140.099 54.9511 141.032 56.453 142.05 57.8343L142.4 58.3047C142.958 59.0629 143.444 59.8181 143.59 60.6222C143.712 61.2957 143.617 62.0083 143.135 62.7892C142.832 63.2809 142.447 63.7217 142.059 64.1612C141.779 64.4781 141.499 64.7945 141.258 65.1352C140.771 65.8219 140.341 66.5616 140.003 67.3331C139.342 68.8432 139.061 70.4677 139.003 72.106C138.932 74.0826 139.21 76.0162 139.486 77.9526C139.681 79.3256 139.877 80.7 139.955 82.091C139.969 82.3337 139.895 82.5146 139.791 82.6484C139.664 82.8122 139.478 82.9155 139.266 82.944C139.202 82.9527 139.136 82.9541 139.069 82.9482C139.102 83.082 139.131 83.2164 139.156 83.3513C139.022 83.1797 138.88 83.0131 138.73 82.8521C138.72 82.8473 138.711 82.8423 138.701 82.8371C138.547 82.7522 138.416 82.6228 138.333 82.4561C138.121 82.2588 137.896 82.0717 137.659 81.8957C136.431 80.98 134.997 80.4372 133.558 80.4192C132.171 80.4019 130.781 80.8738 129.711 81.8704C127.587 83.8512 126.964 87.0847 126.942 89.861C126.919 92.6949 127.576 96.0961 130.049 97.8557C131.041 98.5614 132.252 98.9855 133.473 98.9978C134.485 99.0079 135.453 98.6503 136.406 98.3095C136.7 98.2044 136.993 98.1 137.284 98.005C137.616 97.8972 137.918 97.9041 138.182 97.9829C138.478 98.0717 138.73 98.2552 138.919 98.4999C139.106 98.7437 139.229 99.0488 139.267 99.3684C139.304 99.6778 139.262 99.9991 139.13 100.289C139.098 100.362 139.063 100.433 139.027 100.502L139.571 101.395C141.653 104.808 143.772 108.159 146.551 111.092C148.146 112.776 149.837 114.365 151.692 115.756L151.959 115.954C152.119 116.071 152.297 116.216 152.486 116.371C153.027 116.813 153.675 117.406 154.28 117.429C154.46 117.436 154.617 117.414 154.759 117.395C155.104 117.35 155.393 117.337 155.677 117.453C155.906 117.546 156.143 117.72 156.387 118.079C156.551 118.322 156.636 118.627 156.636 118.936C156.636 119.247 156.55 119.558 156.398 119.804C156.083 120.313 155.702 120.628 155.288 120.807C154.827 121.006 154.318 121.037 153.788 120.938C152.483 120.695 151.039 119.615 150.12 118.91L149.942 118.774C147.905 117.222 145.975 115.505 144.278 113.584C141.389 110.313 138.794 106.459 137.461 102.247C136.521 102.864 135.36 103.157 134.147 103.203C132.378 103.27 130.507 102.815 129.128 102.162C126.089 100.722 124.243 97.9983 123.378 94.8662C122.373 91.2288 122.7 87.0471 123.971 83.7796C124.008 83.6846 124.047 83.59 124.086 83.4939C120.171 73.5822 118.967 62.5759 119.302 51.9982C119.459 47.047 119.797 41.8524 120.966 37.0236C121.49 34.8593 122.4 32.7982 123.854 31.0943C124.683 30.1226 125.699 29.3662 126.721 28.6118C127.606 27.9585 128.494 27.3065 129.241 26.4908L129.595 26.1034C129.671 26.0192 129.748 25.935 129.824 25.851C131.114 24.4298 132.371 23.0507 133.937 21.8851C135.753 20.5337 137.758 19.4759 139.84 18.5973C144.327 16.7055 149.156 15.5711 153.933 14.6934C164.267 12.7951 174.876 12.7015 185.084 15.3698C189.83 16.6103 194.436 18.3082 199.035 20.0042C199.461 20.1616 199.888 20.3191 200.315 20.4761C203.889 21.7907 207.464 23.0998 211.039 24.4088C212.701 25.0171 214.362 25.6255 216.024 26.2345C216.384 26.3666 216.737 26.6513 216.938 27.0051C217.134 27.3502 217.193 27.7526 217.034 28.1534C216.015 30.7342 214.729 33.1555 213.163 35.4166C213.707 35.7864 214.17 36.2782 214.52 36.8538C214.963 37.5817 215.226 38.4436 215.244 39.3579C215.303 42.42 212.514 44.4957 210.201 45.997C209.985 46.1371 209.771 46.2198 209.565 46.2577C211.807 54.8229 213.953 63.4171 215.777 72.0793L215.902 72.6798C217.781 81.7454 218.993 90.9969 217.216 100.183C215.686 108.093 212.133 115.727 206.579 121.62C201.137 127.395 193.834 131.031 185.933 131.842ZM137.311 79.6907C136.344 76.625 135.831 73.2893 136.201 70.1816C136.434 68.2281 137.022 66.3474 137.979 64.6256C138.527 63.6395 139.195 62.7266 139.924 61.8667L140.176 61.5779C140.303 61.4304 140.43 61.2949 140.469 61.1249C140.492 61.0262 140.469 60.9182 140.409 60.7891C140.276 60.5033 140.028 60.2279 139.797 59.959C139.65 59.7882 139.506 59.6205 139.385 59.4573C137.266 56.5911 135.686 53.1789 136.199 49.5443C136.7 45.9982 139.026 42.6928 141.503 40.2018C146.955 34.7166 155.408 33.4562 162.814 33.7587C167.124 33.9347 171.428 34.6938 175.533 36.0198C177.558 36.6739 179.537 37.4704 181.46 38.3833L181.886 38.5876C182.116 38.6988 182.346 38.8113 182.575 38.9239C184.079 39.6606 185.588 40.4044 187.22 40.805C190.407 41.587 192.57 39.9399 194.842 38.2789C195.621 37.7096 196.412 37.1325 197.252 36.626L197.425 36.5238C198.941 35.6456 200.755 35.0546 202.497 35.0811C204.01 35.1041 205.47 35.5869 206.659 36.7278C206.903 36.9622 207.044 37.218 207.109 37.4725C207.241 37.6567 207.347 37.8764 207.416 38.1359C207.842 39.7323 208.266 41.3298 208.688 42.9278L209.034 42.7054C210.057 42.0413 211.17 41.2824 211.672 40.1713C211.866 39.7437 211.838 39.0312 211.594 38.5074C211.509 38.3244 211.397 38.1617 211.241 38.0601C211.128 37.9862 210.991 37.9515 210.833 37.9643C210.447 38.0139 210.093 37.9576 209.793 37.8308C209.446 37.6845 209.17 37.4439 208.991 37.154C208.808 36.8571 208.724 36.508 208.769 36.146C208.807 35.8348 208.941 35.5097 209.207 35.2043C210.952 33.1937 212.423 30.9759 213.54 28.5685L206.149 25.8363C203.514 24.8626 200.878 23.8902 198.241 22.9215L196.797 22.3914C192.003 20.6342 187.18 18.9169 182.194 17.7856C172.284 15.5374 161.95 16.0657 152.068 18.182L151.471 18.3109C147.324 19.2144 143.121 20.3075 139.314 22.2077C137.446 23.1403 135.67 24.2744 134.145 25.7073C133.472 26.34 132.863 27.0328 132.253 27.7246C131.4 28.6942 130.545 29.6612 129.53 30.4779L128.588 31.2317C127.186 32.3601 125.922 33.4596 125.131 35.2096C124.304 37.0392 123.91 39.0605 123.588 41.0298C122.776 45.9907 122.455 51.0311 122.485 56.0561C122.537 64.4935 123.82 72.7591 125.441 80.9955C126.741 79.136 128.568 77.6945 130.912 77.3872C132.441 77.1868 133.956 77.4715 135.27 78.1468C136.03 78.5371 136.722 79.0579 137.311 79.6907V79.6907ZM134.854 89.7096C133.142 89.0469 131.345 88.8299 129.534 89.1468C129.344 89.1798 129.163 89.1403 129.011 89.052C128.856 88.9625 128.735 88.8209 128.669 88.6645C128.593 88.4837 128.589 88.2881 128.656 88.1144C128.715 87.9636 128.826 87.8172 129.03 87.7194C130.992 86.7843 133.172 86.3716 135.336 86.6652L135.549 86.6956C136.656 86.8595 138.211 87.2045 139.378 87.8835C140.294 88.417 140.965 89.1525 141.132 90.1133C141.219 90.6139 141.094 91.1366 140.806 91.5154C140.526 91.8817 140.1 92.1259 139.547 92.1102C138.572 92.0825 137.995 91.671 137.301 91.138C137.217 91.0733 137.13 91.007 137.041 90.9398C136.37 90.4383 135.637 90.0123 134.854 89.7096Z" fill="black"/>
<path fill-rule="evenodd" clip-rule="evenodd" d="M187.296 109.295C185.574 108.593 184.037 107.422 182.914 105.926C182.523 105.406 182.422 104.856 182.504 104.354C182.596 103.789 182.93 103.278 183.386 102.934C183.844 102.59 184.416 102.42 184.969 102.506C185.45 102.582 185.929 102.845 186.307 103.39L186.386 103.499C187.054 104.402 187.925 105.143 188.917 105.62C189.872 106.081 190.942 106.296 192.048 106.171C194.155 105.933 195.607 104.794 197.151 103.248C197.342 103.053 197.534 102.852 197.726 102.647C197.848 102.461 198.016 102.342 198.203 102.28C198.411 102.21 198.646 102.214 198.862 102.289C199.069 102.362 199.255 102.499 199.38 102.682C199.498 102.855 199.565 103.07 199.543 103.317C199.402 104.919 198.564 106.349 197.373 107.472C196.05 108.719 194.297 109.582 192.646 109.884C190.827 110.218 188.974 109.979 187.296 109.295V109.295ZM193.504 84.5753C195.438 85.7503 198.386 88.4904 196.305 91.4035C193.855 93.9721 190.328 91.027 188.589 89.6951C186.978 88.6628 185.167 91.3177 186.662 92.5231C199.223 101.815 204.32 84.8825 194.482 83.1937C193.399 83.0076 192.997 84.2118 193.504 84.5753ZM170.995 73.7665C171.209 71.1153 175.25 70.5132 175.652 73.1367C176.012 75.4869 175.588 77.6457 174.529 79.7616C173.516 81.783 170.972 80.8399 170.779 78.9993C170.522 76.5319 170.862 75.4157 170.995 73.7665ZM201.757 72.5927C202.321 71.8554 203.134 71.3521 204.109 71.6365C207.154 72.5256 206.256 76.8452 205.187 78.9477C204.606 80.0895 202.727 80.379 201.879 79.3737C200.495 77.7343 199.832 74.4602 201.591 72.8454C201.639 72.7619 201.692 72.6777 201.757 72.5927ZM174.486 62.1653L174.967 62.0812C176.455 61.824 178.305 61.5769 179.358 62.7723C179.916 63.4061 180.108 64.5843 179.358 65.191C178.038 66.2585 176.578 65.8448 174.996 65.9352C173.693 66.01 172.44 66.2255 171.184 66.5842C168.429 67.3709 166.185 68.8071 163.832 70.384C163.523 70.5909 163.208 70.1964 163.355 69.9079C164.713 67.2498 167.346 65.0663 169.982 63.7354C171.389 63.025 172.929 62.4356 174.486 62.1653ZM198.981 60.9747L199.349 61.05C203.356 61.8867 208.561 63.5583 210.459 67.4904C210.531 68.0464 210.455 68.1655 210.392 68.2434L210.372 68.2693C210.321 68.3358 210.28 68.4274 210.039 68.5031C209.972 68.4872 209.904 68.4703 209.836 68.4524C208.966 68.2247 208.278 67.911 207.612 67.5854L206.89 67.2299C206.052 66.8194 205.206 66.4238 204.31 66.1317C202.398 65.5086 200.432 65.0697 198.435 64.8353C198.002 64.7846 197.585 64.6386 197.256 64.3884C196.944 64.151 196.706 63.8222 196.597 63.3853C196.456 62.8197 196.497 62.3916 196.8 61.8814C197.029 61.4982 197.355 61.2327 197.731 61.0802C198.113 60.9247 198.548 60.8881 198.981 60.9747Z" fill="black"/>
<path fill-rule="evenodd" clip-rule="evenodd" d="M223.256 65.0841C223.045 65.049 222.834 65.016 222.623 64.985C222.458 64.8916 222.265 64.8196 222.04 64.7764C221.526 64.6461 221.016 64.5583 220.506 64.5109C213.196 62.8671 196.284 65.2011 195.586 71.4343C193.258 72.2107 191.244 71.5154 188.546 71.5845C186.492 63.0071 150.985 64.2178 149.277 69.389C149.271 69.3872 149.264 69.3857 149.258 69.3837C147.617 68.8763 145.198 68.9986 143.32 68.9183C139.31 68.8343 135.295 69.1914 131.372 70.0365C124.025 71.2031 113.998 72.5689 119.107 81.7358C119.108 81.7374 119.109 81.7392 119.11 81.7407L119.111 81.7399C119.992 82.6418 121.486 81.9155 121.542 80.6947C119.824 76.3518 123.704 75.8303 126.69 74.5823C134.118 71.9158 141.681 71.5461 149.364 72.371C149.942 73.0509 150.819 73.6438 151.746 73.9541C156.883 74.8061 154.176 78.6134 157.423 79.1671C156.826 92.4388 172.953 99.6832 182.297 90.9589C186.027 87.3144 186.917 81.9155 187.782 77.0492C188.239 76.9465 188.53 76.6967 188.7 76.3659C189.8 75.2687 190.491 74.2554 192.666 73.9541C194.841 73.653 196.515 74.2575 196.741 74.4425C196.799 74.5575 196.86 74.6727 196.931 74.7879C197.03 74.9597 197.166 75.0966 197.319 75.2044C195.172 88.4203 205.44 96.7783 215.806 89.9238C220.31 85.6903 221.262 79.2088 221.45 73.4237C222.061 73.0555 222.448 72.342 222.236 71.445C221.945 70.2085 222.628 69.1379 223.716 68.6003C225.129 67.9022 224.879 65.3526 223.256 65.0841M178.713 71.354C177.426 71.0712 176.877 73.0534 178.168 73.3369C179.082 73.5377 179.856 73.9983 180.38 74.7785L180.435 74.8633C181.137 75.98 182.913 74.9492 182.206 73.8253C181.41 72.5606 180.174 71.6748 178.713 71.354ZM216.399 70.1249C215.946 69.8056 215.259 70.0426 214.996 70.4937C214.706 70.9905 214.896 71.5436 215.321 71.8686L215.364 71.9004C215.754 72.1748 216.133 72.6667 216.181 73.1707L216.185 73.2337C216.236 74.5527 218.288 74.5594 218.236 73.2337C218.186 71.9369 217.435 70.8534 216.399 70.1249Z" fill="black"/>
<mask id="mask0" mask-type="alpha" maskUnits="userSpaceOnUse" x="21" y="0" width="347" height="534">
<rect x="21" width="347" height="534" fill="#C4C4C4"/>
</mask>
<g mask="url(#mask0)">
</g>
</svg>
