<svg width="24" height="24" viewBox="0 0 24 24" fill="none" xmlns="http://www.w3.org/2000/svg">
<path fill-rule="evenodd" clip-rule="evenodd" d="M12 8C9.79086 8 8 9.79086 8 12C8 14.2091 9.79086 16 12 16C14.2091 16 16 14.2091 16 12C16 9.79086 14.2091 8 12 8ZM6 12C6 8.68629 8.68629 6 12 6C15.3137 6 18 8.68629 18 12C18 15.3137 15.3137 18 12 18C8.68629 18 6 15.3137 6 12Z" fill="#18191F"/>
<path fill-rule="evenodd" clip-rule="evenodd" d="M12 0C12.5523 0 13 0.447715 13 1V3C13 3.55228 12.5523 4 12 4C11.4477 4 11 3.55228 11 3V1C11 0.447715 11.4477 0 12 0Z" fill="#18191F"/>
<path fill-rule="evenodd" clip-rule="evenodd" d="M12 20C12.5523 20 13 20.4477 13 21V23C13 23.5523 12.5523 24 12 24C11.4477 24 11 23.5523 11 23V21C11 20.4477 11.4477 20 12 20Z" fill="#18191F"/>
<path fill-rule="evenodd" clip-rule="evenodd" d="M3.5136 3.51286C3.90412 3.12234 4.53729 3.12234 4.92781 3.51286L6.34781 4.93286C6.73833 5.32339 6.73833 5.95655 6.34781 6.34708C5.95729 6.7376 5.32412 6.7376 4.9336 6.34708L3.5136 4.92708C3.12307 4.53655 3.12307 3.90339 3.5136 3.51286Z" fill="#18191F"/>
<path fill-rule="evenodd" clip-rule="evenodd" d="M17.6523 17.653C18.0428 17.2625 18.676 17.2625 19.0665 17.653L20.4865 19.073C20.877 19.4635 20.877 20.0967 20.4865 20.4872C20.096 20.8777 19.4628 20.8777 19.0723 20.4872L17.6523 19.0672C17.2617 18.6767 17.2617 18.0435 17.6523 17.653Z" fill="#18191F"/>
<path fill-rule="evenodd" clip-rule="evenodd" d="M0 12C0 11.4477 0.447715 11 1 11H3C3.55228 11 4 11.4477 4 12C4 12.5523 3.55228 13 3 13H1C0.447715 13 0 12.5523 0 12Z" fill="#18191F"/>
<path fill-rule="evenodd" clip-rule="evenodd" d="M20 12C20 11.4477 20.4477 11 21 11H23C23.5523 11 24 11.4477 24 12C24 12.5523 23.5523 13 23 13H21C20.4477 13 20 12.5523 20 12Z" fill="#18191F"/>
<path fill-rule="evenodd" clip-rule="evenodd" d="M6.34781 17.653C6.73833 18.0435 6.73833 18.6767 6.34781 19.0672L4.92781 20.4872C4.53729 20.8777 3.90412 20.8777 3.5136 20.4872C3.12307 20.0967 3.12307 19.4635 3.5136 19.073L4.9336 17.653C5.32412 17.2625 5.95729 17.2625 6.34781 17.653Z" fill="#18191F"/>
<path fill-rule="evenodd" clip-rule="evenodd" d="M20.4865 3.51286C20.877 3.90339 20.877 4.53655 20.4865 4.92708L19.0665 6.34708C18.676 6.7376 18.0428 6.7376 17.6523 6.34708C17.2617 5.95655 17.2617 5.32339 17.6523 4.93286L19.0723 3.51286C19.4628 3.12234 20.096 3.12234 20.4865 3.51286Z" fill="#18191F"/>
</svg>
