<svg width="225" height="260" viewBox="0 0 225 260" fill="none" xmlns="http://www.w3.org/2000/svg">
<g clip-path="url(#clip0)">
<path fill-rule="evenodd" clip-rule="evenodd" d="M215.496 162.325C212.48 162.621 209.463 162.917 206.446 163.213C191.998 164.317 177.555 166.624 163.218 168.008C162.861 167.427 162.162 167.522 161.738 167.926C160.307 167.801 158.704 166.707 157.408 167.845C157.366 167.839 157.324 167.832 157.281 167.828C154.974 163.397 153.379 158.672 151.831 153.94C150.843 151.031 149.513 148.215 147.057 146.261C142.864 143.35 133.258 137.446 128.336 137.694C128.254 136.813 127.843 135.904 127.168 135.317C128.655 132.781 122.71 131.126 122.291 131.42C122.559 122.947 118.576 115.589 109.791 113.902C101.921 112.262 90.7277 111.986 86.4951 120.214C86.0299 120.161 81.274 120.137 80.8138 120.188C80.0984 119.282 72.2414 127.871 75.4616 130.862C46.6717 143.602 30.3016 142.082 22.333 177.9C21.2558 181.264 21.1773 184.946 20.0397 188.236C15.9926 197.69 12.71 207.757 11.8931 218.043C9.91995 218.549 9.69304 222.029 11.9785 222.533C12.8515 222.725 13.5815 222.988 14.2181 223.487C13.7205 231.917 15.7585 251.174 17.0426 251.114C19.661 259.451 31.3402 261.803 39.6087 258.874C38.1833 261.557 39.6087 263.243 39.6087 264.677C69.3609 265.803 101.892 265.154 131.636 266.699C135.44 266.644 139.442 267.633 143.195 267.064C145.484 266.515 145.488 262.915 143.166 262.47L153.31 260.266C153.083 260.181 157.491 257.248 160.822 251.767C163.923 245.635 161.813 238.234 163.218 231.565C174.192 230.667 185.348 230.283 196.202 228.424C197.682 232.854 204.088 227.556 206.124 225.425C206.122 225.422 206.119 225.418 206.117 225.415C207.102 225.145 207.893 224.221 207.919 223.127C208.61 222.14 208.755 220.747 208.092 219.793C211.13 202.257 215.761 184.353 217.435 166.653C218.027 166.522 218.584 166.263 219.056 165.863L219.018 165.824C219.819 164.932 219.974 163.391 218.64 162.632C217.563 162.02 216.665 162.21 215.496 162.325Z" fill="white"/>
<path fill-rule="evenodd" clip-rule="evenodd" d="M87.0437 118.303C87.9401 116.049 90.9703 116.925 90.6325 119.293C90.4303 120.711 89.6539 122.209 88.9565 123.452C88.3886 124.463 87.7409 125.451 86.8627 126.209C88.426 127.668 90.0488 129.074 91.7127 130.409C93.5284 131.866 95.4376 133.208 97.411 134.442C99.1415 135.524 100.95 136.483 102.581 137.717C104.098 138.865 105.48 140.246 106.183 142.048C106.932 143.967 106.606 145.949 106.055 147.867L105.991 148.084C105.428 149.984 104.453 152.274 105.805 154.064C106.494 154.976 107.495 155.621 108.359 156.35C109.127 156.997 109.848 157.701 110.509 158.458C111.951 160.107 113.124 161.962 113.864 164.03L113.93 164.218C114.565 166.048 115.028 168.29 114.171 170.087C113.925 170.602 113.132 170.434 112.994 169.933C112.683 168.797 112.699 167.607 112.438 166.454C112.166 165.256 111.714 164.119 111.124 163.042C109.981 160.96 108.434 159.182 106.606 157.678L106.059 157.233C104.633 156.062 103.322 154.82 103.033 152.883C102.723 150.81 103.553 148.835 104.087 146.873C104.459 145.505 104.581 144.194 104.179 142.959C103.688 143.761 103.017 144.522 102.487 145.201C101.432 146.554 100.366 147.898 99.3032 149.246C98.2134 150.627 97.1505 152.03 96.1384 153.47C95.6856 154.114 95.2377 154.761 94.7913 155.41C94.4556 155.897 93.9875 156.384 93.6215 156.881C93.7105 157.147 93.7037 157.454 93.5425 157.671C91.602 160.294 88.8414 154.821 88.1214 153.439C86.6552 150.623 85.564 147.631 84.0929 144.816C82.5686 141.898 80.8329 139.057 78.8983 136.393C77.7281 134.782 76.4165 133.268 75.346 131.605C72.8241 133.893 69.5055 135.426 66.4574 136.817C63.1083 138.345 59.6289 139.593 56.1951 140.918L55.1808 141.312C49.2643 143.622 43.2032 146.16 38.2855 150.263C32.5067 155.085 29.0879 161.805 26.5428 168.764C23.6129 176.775 21.1891 185.002 18.9296 193.224C17.7733 197.431 16.6762 201.657 15.6448 205.897C14.7359 209.632 13.9825 213.404 12.9304 217.1C15.0642 217.025 17.4978 217.851 19.3196 218.09C27.6222 219.177 35.813 220.91 43.6517 223.911C44.6199 224.281 44.9001 225.249 44.6892 226.033C45.2476 225.875 45.8055 225.715 46.3639 225.559C45.7522 224.621 46.0442 222.944 46.0923 221.905L46.0952 221.834C46.1446 220.449 46.2948 219.062 46.3922 217.68C46.5777 215.044 46.8191 212.428 47.1402 209.808L47.2221 209.153C47.5859 206.302 47.8548 203.435 48.2518 200.589L48.2987 200.263C48.1084 199.535 47.8867 198.816 47.6541 198.1C47.0343 196.193 46.1594 194.397 45.3927 192.55C45.3023 192.332 45.612 192.207 45.7567 192.338C47.0552 193.506 48.0866 194.989 48.9152 196.539C48.9296 196.466 48.9422 196.393 48.9572 196.32L49.0518 195.854C49.2849 194.719 49.5686 193.524 50.2648 192.603C50.3389 192.505 50.4855 192.485 50.5557 192.603C51.222 193.731 51.2966 195.16 51.3991 196.443C51.5151 197.895 51.5296 199.366 51.5091 200.822C51.4692 203.667 51.2687 206.52 51.109 209.361C50.9523 212.153 50.6446 214.909 50.248 217.673L50.1727 218.191C49.9788 219.507 49.8201 220.839 49.5644 222.146L49.4922 222.501C49.3555 223.149 49.2714 224.063 48.9993 224.822C56.0003 222.869 63.012 220.96 70.0371 219.084C75.1145 217.729 80.1972 216.393 85.2777 215.05C85.5458 214.566 85.8796 214.115 86.2963 213.711C87.6689 212.382 89.4879 211.788 91.1563 212.812C91.2919 212.895 91.3033 213.108 91.1563 213.189C90.8366 213.363 90.5163 213.543 90.2017 213.729L93.2525 212.903C95.5327 212.285 97.8401 211.512 100.174 211.081C104.473 208.959 109.096 207.423 113.624 205.905L114.158 205.724C116.477 204.933 118.875 204.048 121.27 203.61C123.024 203.289 125.083 203.676 125.788 205.473C126.681 206.062 127.521 206.754 128.331 207.434C128.917 207.926 129.479 208.448 130.05 208.957L130.156 209.05C130.623 209.455 130.993 209.727 131.107 210.372C131.167 210.705 130.955 211.156 130.544 211.112C129.287 210.977 128.264 209.519 127.412 208.649C126.753 207.976 126.089 207.28 125.488 206.54C125.137 206.731 124.657 206.697 124.434 206.274C123.277 204.083 120.108 205.601 118.354 206.121L115.842 206.865C114.586 207.237 113.331 207.611 112.077 207.992C108.633 209.039 105.205 210.21 101.73 211.171C102.041 211.513 101.998 212.121 101.407 212.352C98.6863 213.42 95.7015 213.973 92.8749 214.705C91.0903 215.168 89.3068 215.634 87.5239 216.103C87.2182 216.598 86.9983 217.159 86.9058 217.811C86.5655 220.21 87.2217 222.978 87.8609 225.298L87.9572 225.644C88.4826 227.51 89.2557 229.797 90.8645 230.975C91.2572 231.262 91.7573 231.462 92.2614 231.507C95.4108 229.885 98.5599 228.264 101.711 226.645C102.295 226.345 102.834 226.751 102.965 227.234C104.076 227.052 105.185 226.764 106.194 226.421C107.891 225.845 109.215 224.746 110.806 223.986C113.883 222.515 117.026 224.321 119.781 225.695L120.416 226.007C121.652 226.607 124.222 227.759 124.815 226.119C125.388 224.532 123.575 222.836 122.405 222.122C121.009 221.27 119.384 220.814 117.807 220.435C116.906 220.218 115.994 220.041 115.077 219.912C114.037 219.766 112.962 219.788 111.961 219.45C111.463 219.283 111.387 218.492 111.961 218.361C113.503 218.01 115.343 218.393 116.952 218.784L117.793 218.992C119.414 219.39 121.051 219.889 122.527 220.683C123.601 221.26 124.734 222.137 125.474 223.211C126.117 222.614 126.917 222.634 127.751 222.855L128.203 222.981C128.95 223.188 129.556 223.331 130.283 223.187C130.38 222.658 130.478 222.129 130.584 221.6C131.619 216.398 132.755 211.215 134.009 206.061C136.171 197.17 138.673 188.376 141.493 179.673L141.776 178.803C142.427 176.812 142.95 174.643 143.999 172.815C144.991 171.085 146.58 170.089 148.468 169.562C150.611 168.963 152.862 168.65 155.048 168.246C155.536 168.156 156.025 168.07 156.513 167.981C156.1 167.236 155.792 166.391 155.515 165.742L155.467 165.629C154.871 164.271 154.336 162.888 153.819 161.497L153.432 160.452C152.499 157.934 151.536 155.458 150.224 153.104C148.844 150.626 147.012 148.6 144.728 146.923C140.072 143.505 134.46 141.761 129.944 138.107C129.759 137.958 129.997 137.702 130.184 137.796C133.234 139.329 136.525 140.371 139.697 141.619L140.323 141.866C142.829 142.86 145.375 143.942 147.545 145.552C149.964 147.347 151.869 149.575 153.301 152.226C154.712 154.839 155.615 157.763 156.611 160.554L156.877 161.297C157.279 162.412 157.693 163.524 158.169 164.609C158.546 165.471 159.25 166.454 159.57 167.438C160.446 167.286 161.322 167.134 162.198 166.987C181.184 163.816 200.382 161.953 219.623 161.408C220.376 161.387 220.765 162.105 220.654 162.762C218.808 173.685 217.167 184.645 215.366 195.576C214.58 200.347 213.779 205.114 212.959 209.879C212.543 212.293 212.063 214.698 211.669 217.115C211.351 219.068 211.121 221.036 210.575 222.943C210.086 224.653 209.335 226.302 208.102 227.606C206.772 229.013 204.917 229.694 203.049 230.015C198.308 230.831 193.445 231.165 188.666 231.709L163.219 234.605C163.591 237.986 163.619 241.315 163.448 244.735L163.351 246.603C163.272 248.105 163.177 249.609 162.961 251.095C162.691 252.96 161.838 254.539 160.582 255.932C159.429 257.211 158.028 258.303 156.665 259.348C155.25 260.434 153.788 261.482 152.125 262.154L151.909 262.239C150.45 262.809 147.713 263.692 145.718 263.369C145.979 264.676 146.483 266.081 146.036 267.374C145.829 267.975 145.044 268.274 144.563 267.763C143.61 266.751 143.536 265.413 143.31 264.092C143.075 262.718 142.873 261.338 142.693 259.956C142.346 257.282 142.075 254.583 141.992 251.887C141.907 249.118 141.94 246.345 142.089 243.579C142.166 242.158 142.261 240.739 142.441 239.327C142.518 238.725 142.597 238.123 142.687 237.523C142.719 237.304 142.756 237.086 142.795 236.868L140.511 237.126C137.009 237.517 133.505 237.87 129.978 237.925C129.56 237.932 129.239 237.741 129.029 237.464C128.805 237.829 128.416 238.09 127.858 238.088C122.932 238.069 118.346 236.458 113.866 234.559C111.608 233.602 109.385 232.565 107.124 231.616C105.013 230.73 102.756 230.098 100.696 229.1L95.2838 231.94C95.2441 232.08 95.1932 232.212 95.1391 232.323C94.7867 233.042 94.0918 233.433 93.3822 233.727C92.701 234.009 91.9956 234.097 91.3084 234.026C87.2034 236.178 83.0975 238.328 78.9888 240.473L74.8791 242.616C66.6913 246.881 58.5357 251.215 50.2963 255.38L49.6897 255.685C46.8437 257.113 43.7878 258.56 40.6295 259.64C40.5733 260.44 40.6088 261.217 40.6758 262.064L40.6919 262.248C40.786 263.249 40.988 264.502 40.1858 265.214C39.7686 265.584 39.0232 265.586 38.7395 265.027C38.2246 264.015 38.6869 262.419 38.85 261.319C38.9079 260.927 38.9784 260.525 39.0828 260.135C35.4621 261.213 31.7317 261.736 28.0472 261.131C24.4599 260.542 21.6815 258.281 19.4417 255.515C17.0778 252.597 15.398 249.197 14.4967 245.551C13.471 241.403 13.4041 237.118 13.4282 232.869C13.4537 228.344 13.621 223.797 14.1712 219.303C13.5684 219.161 12.9 219.039 12.2909 219.081C11.9892 219.564 11.404 219.767 10.8752 219.704C9.72527 220.973 12.642 222.27 13.5741 222.594C13.8978 222.707 13.8632 223.233 13.4898 223.217L13.2547 223.206C11.8144 223.129 10.3264 222.883 9.47956 221.544C8.80097 220.471 9.00484 219.2 9.81379 218.324C10.3481 213.271 11.6254 208.349 12.8142 203.419C13.9808 198.58 15.2782 193.773 16.6534 188.989L17.2698 186.848C19.435 179.348 21.6981 171.787 24.6847 164.584C26.176 160.988 27.8941 157.458 30.2229 154.322C32.3936 151.399 34.9565 148.897 37.9024 146.761C43.3944 142.778 49.8385 140.371 56.1702 138.078L56.4536 137.976C59.7348 136.788 63.008 135.587 66.2518 134.3C69.1206 133.163 71.869 131.72 74.7243 130.565C74.6315 130.397 74.542 130.227 74.4558 130.054L74.403 130.099C74.394 130.106 74.3847 130.113 74.3751 130.119C74.0879 130.319 73.6652 130.221 73.4286 129.997C72.7605 129.367 72.9867 128.667 73.4326 128.012L73.4907 127.929C74.0362 127.165 74.5227 126.357 75.0262 125.564L75.3414 125.069C76.1865 123.746 77.0746 122.413 78.2013 121.32C78.7232 120.813 79.2944 120.434 79.8997 120.151C79.8479 120.042 80.3017 119.818 80.4304 119.93C82.3481 119.228 84.5544 119.375 86.6451 119.569M161.988 234.745L159.322 235.048C156.389 235.382 153.454 235.705 150.52 236.024L144.145 236.717C144.129 237.081 144.085 237.436 144.077 237.711C144.035 239.126 144.004 240.542 143.975 241.958C143.916 244.796 143.98 247.637 144.167 250.47C144.348 253.214 144.587 255.959 144.957 258.685L145.033 259.23L145.077 259.517C145.379 259.546 145.676 259.69 145.923 259.985C146.462 260.629 148.415 260.003 149.177 259.732C150.431 259.285 151.612 258.531 152.701 257.775C153.765 257.036 154.723 256.175 155.644 255.268L156.397 254.523C157.147 253.778 157.897 252.985 158.356 252.048C158.978 250.777 159.059 249.217 159.242 247.833C159.466 246.131 159.734 244.429 160.017 242.735M84.5891 216.877L84.3125 216.949C74.2665 219.62 64.2356 222.369 54.1587 224.921C49.172 226.185 44.1615 227.356 39.1687 228.596L38.3603 228.798C34.4214 229.794 30.4353 230.992 27.419 233.85C27.3077 233.956 27.1461 233.794 27.2508 233.682C30.5016 230.22 35.125 228.755 39.5641 227.484C40.3847 227.25 41.2063 227.02 42.0271 226.787C35.9899 224.634 29.8575 222.76 23.5834 221.424C21.9679 221.08 20.3335 220.828 18.7192 220.482C17.5934 220.241 16.4939 219.893 15.38 219.604L14.5038 219.384L14.4922 222.154C14.4776 226.078 14.4845 229.998 14.6846 233.921L14.7225 234.648C14.956 239.014 15.3204 243.471 16.8692 247.587C18.1277 250.933 20.1337 254.084 22.757 256.521C24.0844 257.753 25.5115 258.713 27.2756 259.187C28.9135 259.627 30.6296 259.678 32.3134 259.561C40.39 258.997 47.5794 254.608 54.5952 250.974C66.0706 245.031 77.5473 239.09 89.0344 233.169C88.7238 232.956 88.4314 232.712 88.1654 232.437C86.6251 230.845 85.8125 228.667 85.2789 226.557C84.7108 224.311 84.371 221.904 84.3315 219.585M99.2055 235.463C99.3069 235.409 99.4243 235.477 99.429 235.591C99.4645 236.469 98.9796 237.335 98.6174 238.125L98.5791 238.21C98.139 239.189 97.6571 240.156 97.1587 241.107C96.1626 243.007 95.1274 244.887 94.0469 246.74C91.8743 250.469 89.4599 254.04 86.6061 257.286C85.9615 258.02 84.9014 257.079 85.3151 256.29C87.3094 252.483 89.6344 248.889 92.0277 245.327C93.2257 243.543 94.423 241.757 95.6329 239.982C96.1377 239.241 96.6489 238.502 97.1739 237.775L97.4906 237.34M218.351 163.588C208.27 163.893 198.2 164.55 188.167 165.581C178.836 166.539 169.54 167.815 160.296 169.406C158.365 169.738 156.436 170.084 154.51 170.443L153.355 170.661C151.429 171.026 149.075 171.177 147.36 172.206C145.552 173.291 145.063 175.56 144.462 177.43C143.754 179.63 143.065 181.836 142.394 184.047C139.731 192.827 137.297 201.684 135.127 210.598C134.049 215.023 133.093 219.473 132.086 223.914C131.191 227.86 130.204 231.762 129.172 235.668C129.299 235.569 129.455 235.494 129.643 235.454C134.766 234.363 139.995 233.889 145.195 233.287L145.698 233.228C151.076 232.596 156.455 231.967 161.837 231.362L197.469 227.353C199.571 227.117 201.822 227.085 203.867 226.521C207.344 225.561 208.159 221.673 208.742 218.576L208.76 218.482C210.519 209.125 211.919 199.686 213.559 190.306M130.001 224.791C128.618 224.699 126.724 223.432 125.675 223.523C126.226 224.448 126.475 225.502 126.157 226.629C125.273 229.764 121.277 228.142 119.352 227.184C117.773 226.398 116.249 225.437 114.502 225.069C112.522 224.653 111.181 225.44 109.509 226.348C108.135 227.094 106.639 227.629 105.101 227.906C104.283 228.054 103.506 228.069 102.73 228.012C102.683 228.05 102.631 228.085 102.571 228.117L102.16 228.332C104.016 228.417 105.905 228.99 107.632 229.514C109.421 230.057 111.177 230.712 112.924 231.381L114.642 232.042C118.882 233.666 123.27 235.208 127.857 235.195C128.187 235.194 128.457 235.285 128.67 235.434M122.261 214.968C123.628 214.801 124.889 214.98 125.982 215.87C127.299 216.944 128.183 218.724 130.077 218.84C130.629 218.874 130.757 219.651 130.208 219.813C128.799 220.231 127.658 219.468 126.698 218.478L126.052 217.803C125.103 216.82 124.228 216.06 122.618 216.119C120.894 216.182 119.166 216.58 117.453 216.783C115.512 217.012 113.572 217.208 111.625 217.377C111.535 217.385 111.519 217.242 111.604 217.221L113.785 216.679M120.942 209.379L121.168 209.356C123.152 209.164 124.967 209.156 126.74 210.224L127.08 210.43C128.678 211.401 130.417 212.546 131.416 214.119C131.58 214.377 131.31 214.68 131.036 214.614C129.115 214.153 127.711 212.743 126.096 211.688C124.284 210.504 122.411 210.7 120.344 210.884C118.343 211.062 116.343 211.306 114.362 211.64C112.5 211.953 110.632 212.448 108.751 212.606L108.752 212.602C108.537 212.601 108.414 212.279 108.633 212.169C110.542 211.216 112.752 210.765 114.828 210.329M52.9853 155.393C52.9828 155.236 53.2036 155.177 53.2807 155.313C54.5719 157.586 55.2469 160.372 55.9348 162.875C56.6553 165.498 57.2369 168.148 57.7594 170.817C58.8176 176.221 59.3815 181.595 59.4197 187.103C59.425 187.889 58.1443 188.098 58.019 187.293C57.1872 181.935 56.3903 176.571 55.5522 171.215C55.1305 168.521 54.6398 165.837 54.1701 163.151M65.7689 159.352C65.6738 159.038 66.1298 158.933 66.2464 159.22C68.8378 165.583 69.7154 172.795 68.0516 179.509C67.7971 180.536 66.2935 180.091 66.4855 179.077M99.195 153.697C99.1819 153.463 99.4864 153.426 99.6011 153.587C100.829 155.318 101.338 157.636 103.493 158.53C104.568 158.977 105.779 158.899 106.729 159.653C107.364 160.158 107.851 160.954 107.374 161.718C107.221 161.965 106.79 162.089 106.581 161.82C106.277 161.43 106.116 160.962 105.702 160.669C105.118 160.256 104.331 160.23 103.661 160.036C102.796 159.785 102.033 159.345 101.408 158.692M119.709 124.83C119.835 124.766 119.957 124.807 120.038 124.916C120.153 125.072 120.139 125.224 119.997 125.331C120.187 125.718 120.41 126.686 120.442 126.827C120.571 127.398 120.709 127.967 120.852 128.534C121.143 129.679 121.397 130.833 121.688 131.978C121.996 133.192 122.363 134.393 122.771 135.577C122.797 135.654 122.826 135.732 122.857 135.811L122.903 135.931L122.915 135.913C122.998 135.782 123.171 135.874 123.15 136.012C123.131 136.139 123.105 136.264 123.084 136.391L123.127 136.504C123.394 137.223 123.577 137.981 123.087 138.615C122.903 138.853 122.701 138.993 122.45 139.035C122.047 140.365 121.541 141.669 121 142.922L120.841 143.288C120.045 145.116 119.195 146.92 117.927 148.477C116.542 150.176 114.638 151.336 113.431 153.198C112.87 154.064 112.48 154.975 112.163 155.953L112.044 156.325C111.819 157.016 111.559 157.687 110.911 158.093C110.704 158.222 110.393 158.181 110.227 158.004C108.896 156.597 110.289 153.968 111.091 152.605C112.206 150.71 113.82 149.497 115.436 148.067C117.178 146.526 118.289 144.464 119.364 142.432C120.022 141.188 120.657 139.917 121.327 138.667C120.628 138.049 120.404 136.821 120.167 135.968L120.145 135.891C119.754 134.525 119.443 133.122 119.246 131.714C119.057 130.36 118.978 129.026 119.028 127.664L119.043 127.317M122.308 131.275C122.153 131.063 122.409 130.823 122.621 130.867C123.909 131.134 125.169 131.914 126.325 132.545L126.449 132.612C127.372 133.109 128.3 133.719 128.785 134.687C129.312 135.738 129.269 136.949 129.197 138.092L129.19 138.199C129.102 139.569 129.088 140.992 128.798 142.338C128.65 143.026 128.026 143.22 127.493 143.058C126.859 145.061 125.077 146.537 123.776 148.118C122.117 150.134 122.429 152.855 122.602 155.282C122.673 156.265 121.451 156.544 120.821 156.02L119.371 154.815C119.129 154.614 118.888 154.412 118.647 154.21C118.441 154.036 118.237 153.861 118.035 153.684L117.732 153.417C117.598 153.297 117.006 152.636 116.833 152.608C116.414 152.542 115.418 153.647 115.078 153.993L115.035 154.037C114.393 154.666 113.814 155.343 113.274 156.061C113.175 156.193 112.98 156.083 113.051 155.931C113.535 154.894 114.097 153.903 114.765 152.976L114.9 152.791C115.344 152.192 115.941 151.134 116.725 150.958C117.683 150.742 118.639 151.702 119.336 152.236L119.38 152.269C119.711 152.518 120.039 152.771 120.366 153.026C120.332 151.219 120.56 149.393 121.493 147.835C122.15 146.737 123.136 145.923 123.979 144.979C124.917 143.928 125.408 142.637 126.257 141.542C126.367 141.401 126.518 141.325 126.681 141.301C126.714 140.421 126.843 139.532 126.943 138.662L126.972 138.401C127.073 137.456 127.313 136.3 126.85 135.415C126.412 134.578 125.409 133.987 124.666 133.42L124.06 132.949M80.4949 121.274C80.107 121.498 79.7445 121.777 79.4156 122.126C78.3801 123.225 77.6398 124.593 76.9194 125.908C76.5315 126.616 76.1576 127.333 75.7665 128.039C75.5965 128.347 75.4215 128.651 75.2447 128.955C75.1629 129.095 74.92 129.373 74.7996 129.544C74.9334 129.732 75.0717 129.917 75.2128 130.099C75.2667 130.169 78.9809 134.217 80.2756 135.801C82.2582 138.227 84.0303 140.79 85.5453 143.534C87.0288 146.22 88.1582 149.064 89.5325 151.803C90.2204 153.174 90.9886 154.535 91.9678 155.722C92.0056 155.768 92.0456 155.812 92.0842 155.857C92.4579 154.847 93.4156 153.766 93.8859 153.145L93.9299 153.086C94.9965 151.648 96.123 150.253 97.274 148.881C98.3253 147.629 99.4032 146.404 100.507 145.199L100.923 144.748C101.692 143.917 102.669 142.673 103.795 142.079C103.674 141.864 103.535 141.651 103.374 141.441C102.319 140.062 100.828 139.061 99.356 138.157L98.4016 137.577C94.8042 135.384 91.2628 133.089 88.1396 130.239C86.4873 128.731 84.8578 127.152 83.4689 125.393L82.9777 124.772M86.4974 120.188C84.8128 120.329 82.9936 120.296 81.4367 120.845C82.8207 122.154 84.1363 123.567 85.4878 124.898C85.608 123.998 85.8539 123.109 86.0622 122.231" fill="black"/>
<path fill-rule="evenodd" clip-rule="evenodd" d="M143.838 78.1187C143.038 64.9723 138.773 50.0677 126.223 43.6131C98.5558 32.5049 62.1789 60.4784 60.253 89.0555C59.5815 98.8376 65.0107 109.527 74.932 112.246C77.1379 115.17 80.4738 116.955 83.7664 118.505C122.983 138.86 148.316 122.314 143.838 78.1187V78.1187Z" fill="white"/>
<path fill-rule="evenodd" clip-rule="evenodd" d="M152.773 69.941C151.387 66.0902 149.923 62.269 148.383 58.4774C146.883 54.7872 145.528 51.0172 143.665 47.5019C132.54 26.5064 112.309 26.5064 101.851 29.2497C96.4277 26.9122 86.2698 27.5715 80.6228 29.6809C71.4808 33.0957 60.3367 46.5287 56.5264 52.564C48.114 65.8894 42.864 83.6253 48.452 99.0234C49.1824 101.036 50.1138 102.9 51.1626 104.696C50.5019 105.592 49.7416 106.44 48.8993 107.274C46.3962 109.751 43.8931 112.147 41.7307 114.941C39.5819 117.718 37.8005 120.671 36.4744 123.927C33.9738 130.067 33.8534 137.02 37.1593 142.879C40.0355 147.976 45.1307 151.772 50.871 152.134C51.1657 152.175 51.4609 152.213 51.7573 152.243C52.5178 153.496 53.4453 154.65 54.5038 155.656C57.7467 158.742 65.477 160.325 69.8862 160.426C70.1122 160.608 70.3404 160.79 70.5686 160.97C73.2664 163.094 76.0974 165.237 79.1946 166.748C81.2925 167.773 84.0432 168.629 86.2319 167.889C87.2249 168.553 88.8538 168.413 89.8383 167.87C91.4566 166.978 92.7728 165.372 93.5735 163.728C95.515 159.735 95.0481 155.367 94.5495 151.102C94.0002 146.391 93.4721 141.678 92.9354 136.967C92.515 133.283 92.0756 129.538 90.9559 125.989C90.377 124.15 89.6185 122.383 88.6383 120.722C88.6636 120.583 88.6594 120.443 88.6193 120.312C88.2981 119.268 87.6347 118.721 86.8488 118.011C86.7474 117.92 86.646 117.827 86.5467 117.732C86.1538 117.283 85.7333 116.867 85.2833 116.514C85.1101 116.339 84.939 116.161 84.7678 115.984C83.346 114.494 82.0024 112.928 80.8087 111.249C79.6509 109.622 78.6052 107.923 77.6101 106.192C76.5981 104.431 75.9284 102.489 74.9185 100.741C74.8319 100.591 74.6122 100.561 74.4897 100.686C74.177 101.009 73.9763 101.369 74.0143 101.747L73.858 101.77C73.7988 101.2 73.2728 100.735 72.5587 100.859C71.4897 101.045 70.6108 101.115 69.6855 100.76C69.8481 99.6801 69.9981 98.598 70.146 97.5138C70.4164 95.5186 70.6678 93.5171 70.8833 91.5156C71.4052 91.6403 71.9228 91.82 72.4298 92.0482C73.1524 92.3716 73.8347 92.807 74.4178 93.3417C74.9925 93.8701 75.3897 94.5823 76.0911 94.9501C76.8981 95.3707 77.8721 94.6753 77.6354 93.7623C77.1559 91.9172 74.4411 90.8604 72.7615 90.5117C72.1847 90.3912 71.5953 90.3405 71.0059 90.3532C71.139 89.0682 71.2573 87.7832 71.3545 86.4961C71.4009 85.8874 71.4432 85.2787 71.4833 84.6679C72.789 84.2727 74.1876 84.1543 75.546 84.3403C75.9939 84.6975 76.4418 85.0504 76.8749 85.4076C78.2502 86.5447 79.6193 87.6881 80.9714 88.8526C81.0939 88.9562 81.2143 89.0597 81.3369 89.1654C82.1397 89.8565 83.1411 89.1718 83.0059 88.1932C81.9031 80.1746 86.8129 73.796 92.5615 68.8547C98.9249 63.3828 110.494 62.7456 118.061 53.2676C121.547 53.9772 129.328 56.0849 132.54 61.2038C137.035 68.377 136.448 74.8042 136.79 82.9412C137.133 91.0845 138.003 99.5786 136.154 107.608C134.45 115.011 129.833 121.337 122.671 124.245C122.494 124.317 122.314 124.387 122.135 124.455C118.431 125.852 114.39 126.247 110.494 125.511C106.182 124.696 102.582 122.722 98.9946 120.293C98.7876 120.156 98.4854 120.439 98.6418 120.646C103.37 126.915 112.657 129.009 120.024 127.354C120.369 127.276 120.711 127.192 121.051 127.099C119.403 131.839 119.735 137.043 121.881 141.658C123.172 144.436 125.141 146.839 127.539 148.735C130.182 150.823 133.461 152.509 135.295 155.441C136.974 158.127 136.476 161.145 133.6 162.696C132.876 163.089 132.597 164.36 133.315 164.918C133.59 165.129 133.864 165.345 134.145 165.556C135.755 166.771 140.177 169.054 140.893 169.138C147.252 169.893 151.528 165.222 154.269 159.712C157.486 153.245 156.65 145.363 153.104 139.205C150.261 134.263 144.66 129.394 146.887 123.14C147.681 120.906 149.306 119.002 150.884 117.281C152.684 115.322 154.619 113.488 156.345 111.459C158.061 109.444 159.582 107.253 160.431 104.725C161.671 101.031 161.054 97.0361 160.123 93.348C158.126 85.4309 155.534 77.6194 152.773 69.941Z" fill="black"/>
</g>
<path fill-rule="evenodd" clip-rule="evenodd" d="M176.333 203.75C176.701 203.75 177 204.067 177 204.458V205.875C177 206.266 176.701 206.583 176.333 206.583C175.965 206.583 175.667 206.266 175.667 205.875V204.458C175.667 204.067 175.965 203.75 176.333 203.75Z" fill="#18191F"/>
<path fill-rule="evenodd" clip-rule="evenodd" d="M176.333 199.5C176.701 199.5 177 199.817 177 200.208V201.625C177 202.016 176.701 202.333 176.333 202.333C175.965 202.333 175.667 202.016 175.667 201.625V200.208C175.667 199.817 175.965 199.5 176.333 199.5Z" fill="#18191F"/>
<path fill-rule="evenodd" clip-rule="evenodd" d="M181.667 203.75C182.035 203.75 182.333 204.067 182.333 204.458V205.875C182.333 206.266 182.035 206.583 181.667 206.583C181.298 206.583 181 206.266 181 205.875V204.458C181 204.067 181.298 203.75 181.667 203.75Z" fill="#18191F"/>
<path fill-rule="evenodd" clip-rule="evenodd" d="M181.667 199.5C182.035 199.5 182.333 199.817 182.333 200.208V201.625C182.333 202.016 182.035 202.333 181.667 202.333C181.298 202.333 181 202.016 181 201.625V200.208C181 199.817 181.298 199.5 181.667 199.5Z" fill="#18191F"/>
<path fill-rule="evenodd" clip-rule="evenodd" d="M179 205.167C179.368 205.167 179.667 205.484 179.667 205.875V207.292C179.667 207.683 179.368 208 179 208C178.632 208 178.333 207.683 178.333 207.292V205.875C178.333 205.484 178.632 205.167 179 205.167Z" fill="#18191F"/>
<path fill-rule="evenodd" clip-rule="evenodd" d="M179 200.917C179.368 200.917 179.667 201.234 179.667 201.625V203.042C179.667 203.433 179.368 203.75 179 203.75C178.632 203.75 178.333 203.433 178.333 203.042V201.625C178.333 201.234 178.632 200.917 179 200.917Z" fill="#18191F"/>
<path fill-rule="evenodd" clip-rule="evenodd" d="M176.388 191.033C177.334 190.931 178.289 191.069 179.175 191.436C180.061 191.802 180.852 192.388 181.483 193.143C181.999 193.76 182.395 194.476 182.653 195.25H183.001C183.919 195.251 184.809 195.588 185.521 196.204C186.233 196.819 186.724 197.677 186.912 198.631C187.099 199.586 186.972 200.581 186.551 201.448C186.13 202.315 185.442 203.002 184.601 203.393C184.264 203.55 183.87 203.387 183.723 203.028C183.575 202.67 183.729 202.252 184.066 202.095C184.627 201.834 185.086 201.377 185.366 200.799C185.647 200.221 185.732 199.558 185.606 198.921C185.481 198.284 185.154 197.713 184.679 197.302C184.205 196.892 183.611 196.668 182.999 196.667C182.999 196.667 183 196.667 182.999 196.667H182.16C181.856 196.667 181.591 196.448 181.515 196.135C181.33 195.375 180.977 194.671 180.486 194.084C179.995 193.496 179.38 193.041 178.691 192.755C178.002 192.47 177.259 192.363 176.523 192.442C175.788 192.522 175.08 192.786 174.46 193.213C173.839 193.64 173.322 194.218 172.953 194.899C172.584 195.58 172.372 196.344 172.335 197.129C172.298 197.913 172.438 198.696 172.742 199.413C173.045 200.129 173.505 200.758 174.083 201.249C174.37 201.493 174.417 201.939 174.187 202.244C173.958 202.55 173.538 202.6 173.251 202.355C172.508 201.725 171.917 200.916 171.526 199.995C171.135 199.074 170.956 198.067 171.004 197.058C171.051 196.049 171.323 195.067 171.798 194.191C172.273 193.316 172.937 192.573 173.735 192.024C174.533 191.475 175.442 191.135 176.388 191.033Z" fill="#18191F"/>
<path fill-rule="evenodd" clip-rule="evenodd" d="M98.0886 108.033C98.1107 105.704 100.128 105.303 102.044 105.613C105.288 106.138 108.544 106.507 111.832 106.574L112.399 106.584V106.584C112.49 106.451 112.643 106.35 112.85 106.328C114.672 106.131 116.534 106.163 118.367 106.108C119.965 106.061 121.608 105.901 123.207 106.027L123.334 106.038C125.287 106.227 127.349 107.225 127.113 109.519C126.896 111.642 124.867 113.523 123.246 114.703C122.918 114.939 122.583 115.161 122.239 115.363C122.13 115.501 121.973 115.597 121.79 115.617C120.194 116.479 118.433 116.989 116.611 117.159C112.746 117.519 108.253 117.13 104.542 115.454C103.335 114.91 102.209 114.23 101.214 113.394C99.6798 112.106 98.0714 110.152 98.0886 108.033ZM113.315 112.65C111.766 112.603 110.219 112.82 108.743 113.298C107.743 113.621 106.832 114.242 105.874 114.673C109.103 115.905 112.854 116.174 116.167 115.95C117.62 115.851 119.029 115.516 120.342 114.939C120.137 114.792 119.93 114.641 119.714 114.51C119.059 114.114 118.374 113.776 117.66 113.508C116.268 112.985 114.8 112.697 113.315 112.65ZM113.834 92.2865C113.416 91.9864 113.747 90.9923 114.641 91.1459C122.753 92.5402 118.549 106.519 108.192 98.848C106.959 97.8529 108.453 95.6611 109.782 96.5133L110.253 96.8773C111.788 98.0537 114.325 99.8323 116.144 97.9238C117.86 95.5187 115.429 93.2566 113.834 92.2865ZM119.326 81.7068C121.05 80.2349 123.213 81.3197 124.483 82.8104L124.706 83.077C124.96 83.3811 125.241 83.7353 125.41 84.1141C126.817 82.9157 128.725 82.0724 130.551 82.6198C132.321 83.1527 133.331 84.8435 133.027 86.6587C132.682 88.723 131.12 90.1105 129.443 91.1834L128.967 91.4856C126.951 92.7713 125.065 94.0665 123.406 95.8337C123.135 96.1209 122.55 96.0829 122.372 95.7005L122.23 95.3928V95.3928L122.085 95.0853C120.908 92.5746 119.647 90.0805 118.612 87.5107C117.845 85.6062 117.596 83.182 119.326 81.7068ZM99.6688 83.0401L99.9315 82.7362C101.195 81.2652 103.335 80.2803 105.023 81.7069C106.821 83.2265 106.468 85.7395 105.667 87.6775C104.703 90.0151 103.577 92.3011 102.495 94.5939L102.264 95.0854C102.167 95.2904 102.072 95.4954 101.977 95.7004C101.799 96.0829 101.212 96.121 100.943 95.8336C99.3359 94.1216 97.5171 92.8549 95.5745 91.6099L94.9881 91.2367C93.2829 90.1546 91.671 88.7575 91.3203 86.6588C91.0203 84.8476 92.0238 83.1462 93.7963 82.6197C95.6259 82.0768 97.5294 82.9137 98.9386 84.1142C99.1065 83.7258 99.3957 83.3601 99.6688 83.0401V83.0401ZM101.98 72.4869C102.598 73.2883 101.939 74.5981 101.038 74.8052C99.9217 75.062 98.7944 74.9058 97.6987 75.2243C96.6948 75.5162 95.7331 76.101 94.8726 76.6839C93.8913 77.3484 92.9875 78.0902 92.157 78.9354C91.663 79.4382 91.0406 80.6294 90.2788 80.6516C89.5214 80.6738 90.538 78.3043 90.6221 78.0993C91.2194 76.6399 92.0583 75.297 93.1077 74.1206C95.1783 71.7994 99.5636 69.35 101.98 72.4869ZM125.104 71.8454L125.621 71.9891C126.9 72.3448 128.266 72.7819 129.363 73.5488L129.449 73.6099L129.582 73.7071C130.96 74.7345 132.908 76.7846 131.932 78.5731C131.865 78.6963 131.722 78.7085 131.607 78.6582C130.309 78.0895 129.347 76.9537 127.966 76.4786L127.712 76.3918C126.375 75.9412 124.72 75.4675 123.281 75.5106C122.269 75.8396 120.902 75.5671 120.639 74.3348L120.627 74.2744L120.604 74.1468C120.453 73.3047 120.678 72.2313 121.548 71.8255C122.741 71.2696 123.904 71.5169 125.104 71.8454Z" fill="black"/>
<defs>
<clipPath id="clip0">
<rect width="225" height="260" fill="white"/>
</clipPath>
</defs>
</svg>
