<svg width="24" height="24" viewBox="0 0 24 24" fill="none" xmlns="http://www.w3.org/2000/svg">
<g clip-path="url(#clip0)">
<path fill-rule="evenodd" clip-rule="evenodd" d="M7.51829 0.122513C10.481 -0.370064 13.5571 0.681897 15.5978 2.88549C16.4342 3.78874 17.0746 4.85189 17.4822 6.00776C18.9802 6.04673 20.6168 6.27378 22.0268 7.54721C23.131 8.54452 23.8253 9.91656 23.9748 11.397C24.2812 14.4307 22.1873 17.2732 19.1992 17.88C18.6579 17.9899 18.1301 17.6402 18.0202 17.099C17.9103 16.5577 18.2599 16.0299 18.8012 15.92C20.7824 15.5177 22.1881 13.6094 21.9849 11.598C21.8852 10.611 21.4224 9.69634 20.6862 9.03146C19.6614 8.10587 18.4374 7.99996 16.7402 7.99996C16.2842 7.99996 15.886 7.69153 15.7719 7.25005C15.482 6.1277 14.918 5.09492 14.1303 4.24441C12.5468 2.53444 10.1453 1.71319 7.8463 2.09543C5.54728 2.47767 3.54073 4.03179 2.59569 6.16217C1.14689 9.42816 2.49932 13.4063 5.60444 15.125C6.08764 15.3925 6.26254 16.001 5.99508 16.4842C5.72762 16.9674 5.11909 17.1423 4.63589 16.8749C0.627854 14.6564 -1.10337 9.56862 0.767499 5.35118C1.98535 2.60583 4.5556 0.615091 7.51829 0.122513Z" fill="#9FA4B4"/>
<path fill-rule="evenodd" clip-rule="evenodd" d="M13.5547 10.1679C14.0142 10.4743 14.1384 11.0952 13.8321 11.5547L10.8685 16H15C15.3688 16 15.7077 16.203 15.8817 16.5281C16.0557 16.8533 16.0366 17.2478 15.8321 17.5547L11.8321 23.5547C11.5257 24.0142 10.9048 24.1384 10.4453 23.832C9.98577 23.5257 9.8616 22.9048 10.168 22.4453L13.1315 18H9C8.63121 18 8.29235 17.797 8.11833 17.4718C7.94431 17.1467 7.96338 16.7521 8.16795 16.4453L12.168 10.4453C12.4743 9.98576 13.0952 9.86158 13.5547 10.1679Z" fill="#9FA4B4"/>
</g>
<defs>
<clipPath id="clip0">
<rect width="24" height="24" fill="white"/>
</clipPath>
</defs>
</svg>
