<svg width="24" height="24" viewBox="0 0 24 24" fill="none" xmlns="http://www.w3.org/2000/svg">
<g clip-path="url(#clip0)">
<path fill-rule="evenodd" clip-rule="evenodd" d="M7.51829 0.122635C10.481 -0.369942 13.5571 0.682019 15.5978 2.88561C16.4342 3.78886 17.0746 4.85201 17.4822 6.00788C18.9802 6.04686 20.6168 6.2739 22.0268 7.54734C23.131 8.54465 23.8253 9.91668 23.9748 11.3971C24.2812 14.4308 22.1873 17.2733 19.1992 17.8801C18.6579 17.99 18.1301 17.6403 18.0202 17.0991C17.9103 16.5578 18.2599 16.03 18.8012 15.9201C20.7824 15.5178 22.1881 13.6095 21.9849 11.5981C21.8852 10.6112 21.4224 9.69646 20.6862 9.03158C19.6614 8.10599 18.4374 8.00009 16.7402 8.00009C16.2842 8.00009 15.886 7.69165 15.7719 7.25017C15.482 6.12783 14.918 5.09504 14.1303 4.24453C12.5468 2.53456 10.1453 1.71332 7.8463 2.09555C5.54728 2.47779 3.54073 4.03191 2.59569 6.16229C1.14689 9.42828 2.49932 13.4065 5.60444 15.1252C6.08764 15.3926 6.26254 16.0012 5.99508 16.4844C5.72762 16.9676 5.11909 17.1425 4.63589 16.875C0.627854 14.6565 -1.10337 9.56874 0.767499 5.3513C1.98535 2.60595 4.5556 0.615213 7.51829 0.122635Z" fill="#18191F"/>
<path fill-rule="evenodd" clip-rule="evenodd" d="M13.5547 10.1681C14.0142 10.4744 14.1384 11.0953 13.8321 11.5548L10.8685 16.0001H15C15.3688 16.0001 15.7077 16.2031 15.8817 16.5282C16.0557 16.8534 16.0366 17.248 15.8321 17.5548L11.8321 23.5548C11.5257 24.0143 10.9048 24.1385 10.4453 23.8322C9.98577 23.5258 9.8616 22.9049 10.168 22.4454L13.1315 18.0001H9C8.63121 18.0001 8.29235 17.7971 8.11833 17.472C7.94431 17.1468 7.96338 16.7523 8.16795 16.4454L12.168 10.4454C12.4743 9.98588 13.0952 9.8617 13.5547 10.1681Z" fill="#18191F"/>
</g>
<defs>
<clipPath id="clip0">
<rect width="24" height="24" fill="white"/>
</clipPath>
</defs>
</svg>
